<?xml version="1.0" encoding="UTF-8"?>
<svg version="1.1" viewBox="0 0 87.3 78" xml:space="preserve" xmlns="http://www.w3.org/2000/svg" xmlns:xlink="http://www.w3.org/1999/xlink"><defs><linearGradient id="c" x1="43.65" x2="98.732" y1="27.1" y2="104.37" gradientUnits="userSpaceOnUse"><stop stop-color="#2684fc" offset="0"/><stop stop-color="#2684fc" stop-opacity="0" offset="1"/></linearGradient><linearGradient id="b" x1="53.82" x2="-70.681" y1="67.717" y2="-6.7539" gradientUnits="userSpaceOnUse"><stop stop-color="#74b2fe" offset="0"/><stop stop-color="#74b2fe" stop-opacity="0" offset="1"/></linearGradient><linearGradient id="a" x1="10.533" x2="155.83" y1="43.169" y2="-159.51" gradientUnits="userSpaceOnUse"><stop stop-color="#0015ac" offset="0"/><stop stop-color="#0015ac" stop-opacity="0" offset="1"/></linearGradient></defs><g><path d="m73.55 76.8c1.35-0.8 2.5-1.9 3.3-3.3l1.6-2.75 7.65-13.25c0.8-1.4 1.2-2.95 1.2-4.5h-27.502l5.852 11.5z" fill="#2684fc"/><path d="m43.65 25 13.75-23.8c-1.35-0.8-2.9-1.2-4.5-1.2h-18.5c-1.6 0-3.15 0.45-4.5 1.2z" fill="#2684fc"/><path d="m73.4 26.5-12.7-22c-0.8-1.4-1.95-2.5-3.3-3.3l-13.75 23.8 16.15 28h27.45c0-1.55-0.4-3.1-1.2-4.5z" fill="url(#c)"/></g><g><path d="m6.6 66.85 3.85 6.65c0.8 1.4 1.95 2.5 3.3 3.3l13.75-23.8h-27.5c0 1.55 0.4 3.1 1.2 4.5z" fill="#74b2fe"/><path d="m73.55 76.8c1.35-0.8 2.5-1.9 3.3-3.3l1.6-2.75 7.65-13.25c0.8-1.4 1.2-2.95 1.2-4.5h-27.502l5.852 11.5z" fill="#74b2fe"/><path d="m59.8 53h-32.3l-13.75 23.8c1.35 0.8 2.9 1.2 4.5 1.2h50.8c1.6 0 3.15-0.45 4.5-1.2z" fill="url(#b)"/></g><g><path d="m43.65 25-13.75-23.8c-1.35 0.8-2.5 1.9-3.3 3.3l-25.4 44a9.06 9.06 0 0 0-1.2 4.5h27.5z" fill="url(#a)"/><path d="m6.6 66.85 3.85 6.65c0.8 1.4 1.95 2.5 3.3 3.3l13.75-23.8h-27.5c0 1.55 0.4 3.1 1.2 4.5z" fill="#0015ac"/><path d="m43.65 25 13.75-23.8c-1.35-0.8-2.9-1.2-4.5-1.2h-18.5c-1.6 0-3.15 0.45-4.5 1.2z" fill="#0014a2"/></g><g><path d="m73.55 76.8c1.35-0.8 2.5-1.9 3.3-3.3l1.6-2.75 7.65-13.25c0.8-1.4 1.2-2.95 1.2-4.5h-27.502l5.852 11.5z" fill="#2684fc"/><path d="m43.65 25 13.75-23.8c-1.35-0.8-2.9-1.2-4.5-1.2h-18.5c-1.6 0-3.15 0.45-4.5 1.2z" fill="#2684fc"/><path d="m73.4 26.5-12.7-22c-0.8-1.4-1.95-2.5-3.3-3.3l-13.75 23.8 16.15 28h27.45c0-1.55-0.4-3.1-1.2-4.5z" fill="url(#c)"/></g><g><path d="m6.6 66.85 3.85 6.65c0.8 1.4 1.95 2.5 3.3 3.3l13.75-23.8h-27.5c0 1.55 0.4 3.1 1.2 4.5z" fill="#74b2fe"/><path d="m73.55 76.8c1.35-0.8 2.5-1.9 3.3-3.3l1.6-2.75 7.65-13.25c0.8-1.4 1.2-2.95 1.2-4.5h-27.502l5.852 11.5z" fill="#74b2fe"/><path d="m59.8 53h-32.3l-13.75 23.8c1.35 0.8 2.9 1.2 4.5 1.2h50.8c1.6 0 3.15-0.45 4.5-1.2z" fill="url(#b)"/></g><g><path d="m43.65 25-13.75-23.8c-1.35 0.8-2.5 1.9-3.3 3.3l-25.4 44a9.06 9.06 0 0 0-1.2 4.5h27.5z" fill="url(#a)"/><path d="m6.6 66.85 3.85 6.65c0.8 1.4 1.95 2.5 3.3 3.3l13.75-23.8h-27.5c0 1.55 0.4 3.1 1.2 4.5z" fill="#0015ac"/><path d="m43.65 25 13.75-23.8c-1.35-0.8-2.9-1.2-4.5-1.2h-18.5c-1.6 0-3.15 0.45-4.5 1.2z" fill="#0014a2"/></g>
    <text x="60" y="60" font-family="Arial" font-size="10" fill="#ffffff">Drive</text></svg>
