<?xml version="1.0" encoding="UTF-8"?>
<svg version="1.2" viewBox="0 0 1024 1024" xmlns="http://www.w3.org/2000/svg">
<g transform="translate(-1.4165e-6 110.78)">
<path d="m259.55 106.73q-49.996 56.607-52.318 134.04" fill="none" stroke="#82aeef" stroke-width="2.8496" vector-effect="non-scaling-stroke"/>
<path d="m207.23 240.78q0.79788 2.2512 0.32771 5.058-0.12824 0.7409-0.88338 0.7979c-59.912 4.1319-108.97 28.325-150.04 71.795-54.085 57.219-68.689 144.53-42.658 217.84 6.8675 19.334 19.619 33.098 28.282 50.637a0.74089 0.72664 65.5 0 1-0.37045 1.0116q-3.2058 1.325-3.448 4.0749c-0.99734 11.17-2.2939 27.883 1.439 38.526a1.9947 2.0659 6.3 0 0 0.78364 1.0116l3.6332 2.4649q0.6554 0.4417 0.74089 1.2253c0.69814 6.554 1.325 13.364 3.3197 19.591 17.938 56.136 61.38 107.27 119.85 122.93" fill="none" stroke="#89c5f3" stroke-width="2.8496" vector-effect="non-scaling-stroke"/>
<path d="m168.21 777.74q20.246 5.0865 40.421 5.286" fill="none" stroke="#87bbef" stroke-width="2.8496" vector-effect="non-scaling-stroke"/>
<path d="m208.63 783.02c101.23 1.5245 202.62 0.8548 303.79 0.9688" fill="none" stroke="#8cb6f8" stroke-width="2.8496" vector-effect="non-scaling-stroke"/>
<path d="m512.42 783.99 161.84-0.014" fill="none" stroke="#89c5f3" stroke-width="2.8496" vector-effect="non-scaling-stroke"/>
<path d="m674.26 783.98c22.326-0.456 49.625 8.9476 65.198 12.111 34.252 6.9815 75.442 7.2094 111.13-3.7757" fill="none" stroke="#90d6f0" stroke-width="2.8496" vector-effect="non-scaling-stroke"/>
<path d="m850.6 792.31q63.488-20.887 97.74-77.352c15.345-25.29 23.124-55.396 26.216-84.646" fill="none" stroke="#a0e6f1" stroke-width="2.8496" vector-effect="non-scaling-stroke"/>
<path d="m974.55 630.31q0.34197-17.154-1.781-35.434-0.0858-0.7267 0.35623-1.3251l14.234-19.819" fill="none" stroke="#90d6f0" stroke-width="2.8496" vector-effect="non-scaling-stroke"/>
<path d="m987.36 573.74c20.674-25.546 31.758-61.266 34.651-93.608" fill="none" stroke="#99e0f2" stroke-width="2.8496" vector-effect="non-scaling-stroke"/>
<path d="m1022 480.13c4.6306-68.39-19.235-134.11-70.926-179.92q-13.778-12.21-28.852-19.876-0.64111-0.3277-0.68391-1.0543-0.94036-17.667-2.4506-27.897c-4.5308-30.79-24.278-55.695-45.451-77.408q-24.207-24.82-54.569-40.92" fill="none" stroke="#a0e6f1" stroke-width="2.8496" vector-effect="non-scaling-stroke"/>
<path d="m819.08 133.05c-41.134-19.762-81.184-27.94-126.62-23.822" fill="none" stroke="#99e0f2" stroke-width="2.8496" vector-effect="non-scaling-stroke"/>
<path d="m692.46 109.23-20.716 2.7356" fill="none" stroke="#90d6f0" stroke-width="2.8496" vector-effect="non-scaling-stroke"/>
<path d="m671.74 111.96-4.5166-4.8727" fill="none" stroke="#87bbef" stroke-width="2.8496" vector-effect="non-scaling-stroke"/>
<path d="m667.23 107.09c-18.679-22.212-40.45-44.083-64.528-60.397-65.91-44.653-146.33-58.402-222.31-31.659q-32.87 11.569-57.803 31.132c-22.896 17.981-45.251 37.315-63.032 60.568" fill="none" stroke="#819ee0" stroke-width="2.8496" vector-effect="non-scaling-stroke"/>
<path d="m667.23 107.09q-2.1087 0.6411-3.3767-0.8976-15.73-19.049-31.217-32.642-0.64114-0.57-1.0543 0.1852c-2.3509 4.2173-6.1551 6.497-11.142 4.8157-17.34-5.8558-32.941-13.835-50.893-17.553q-27.541-5.7134-55.652-7.0242-52.176-2.4363-104.19-0.4986" fill="none" stroke="#095ad0" stroke-width="2.8496" vector-effect="non-scaling-stroke"/>
<path d="m409.7 53.475c-47.915 1.3392-92.568 17.439-133.94 40.435-4.1889 2.3367-10.244 7.8933-13.136 11.812q-1.1826 1.5957-3.0633 1.0116" fill="none" stroke="#044dd0" stroke-width="2.8496" vector-effect="non-scaling-stroke"/>
<path d="m440.61 104.07q-26.33 4.0322-49.112 15.16" fill="none" stroke="#82aeef" stroke-width="2.8496" vector-effect="non-scaling-stroke"/>
<path d="m391.5 119.23q-14.447 5.058-25.546 16.456" fill="none" stroke="#044dd0" stroke-width="2.8496" vector-effect="non-scaling-stroke"/>
<path d="m365.96 135.69-4.6021 4.2743" fill="none" stroke="#82aeef" stroke-width="2.8496" vector-effect="non-scaling-stroke"/>
<path d="m361.35 139.96q-4.9297 2.0517-8.4632 5.6992c-5.7134 5.8843-10.572 10.116-15.245 15.658-16.969 20.146-33.055 47.616-37.871 73.818a1.9662 1.9662 0 0 1-1.9662 1.61q-39.766-0.7552-79.474 3.9894-5.7134 0.6839-11.099 0.043" fill="none" stroke="#0c74e3" stroke-width="2.8496" vector-effect="non-scaling-stroke"/>
<path d="m671.74 111.96-26.358 6.8247" fill="none" stroke="#1892df" stroke-width="2.8496" vector-effect="non-scaling-stroke"/>
<path d="m645.38 118.79q-1.0116-2.0659-3.1915-1.6242c-12.025 2.4221-25.917 4.3313-36.204 8.3635q-17.881 7.0099-31.431 21.514" fill="none" stroke="#1387df" stroke-width="2.8496" vector-effect="non-scaling-stroke"/>
<path d="m574.56 147.04c-36.332-37.215-83.108-50.124-133.94-42.972" fill="none" stroke="#87bbef" stroke-width="2.8496" vector-effect="non-scaling-stroke"/>
<path d="m440.61 104.07q-1.1826-2.8211-6.4685-3.0918a1.8095 1.838 71 0 1-1.2538-0.5984c-5.0152-5.6279-6.0126-9.5175-7.6938-17.781q-0.15671-0.7266-0.88335-0.8691l-2.1229-0.4132q-0.79788-0.1425-0.91186-0.9403c-1.496-10.301-8.2637-16.342-12.296-24.535q-0.64115-1.2823 0.71239-2.3651" fill="none" stroke="#0a6adf" stroke-width="2.8496" vector-effect="non-scaling-stroke"/>
<path d="m297.79 279.69c-1.724 1.0543-2.7071 0.3419-4.1746 0.3846q-16.385 0.3847-32.471 2.237" fill="none" stroke="#22a6e5" stroke-width="2.8496" vector-effect="non-scaling-stroke"/>
<path d="m261.15 282.31q-27.968 3.049-52.204 15.915c-12.324 6.5397-21.6 16.399-30.106 27.299a1.1113 1.1113 0 0 0 0.0143 1.3963c4.0464 4.9583 8.8052 2.6359 13.592 2.6644q37.002 0.2707 73.989 0.3704" fill="none" stroke="#1491e3" stroke-width="2.8496" vector-effect="non-scaling-stroke"/>
<path d="m266.43 329.95c25.789 0.6839 52.532 0.228 77.651 3.0206q63.389 7.0811 125.32 22.212 8.6057 2.1087 16.072 2.4649c39.808 1.9235 80.044 0.7552 112.42 0.4417 5.4997-0.057 11.526 0.9546 17.268 1.2966" fill="none" stroke="#22a6e5" stroke-width="2.8496" vector-effect="non-scaling-stroke"/>
<path d="m615.16 359.39c-30.647-0.1425-61.28 0.3277-91.913 0.1709-105.58-0.5271-228.25-0.3277-316.57-0.114-54.085 0.1283-102.31 36.004-97.783 94.25q0.79787 10.273 3.6617 17.197c15.43 37.443 51.549 63.887 91.927 68.689q18.052 2.1372 36.303 2.1372 231.17 0.043 462.34 0.043" fill="none" stroke="#89c5f3" stroke-width="2.8496" vector-effect="non-scaling-stroke"/>
<path d="m703.13 541.76q0.96886 0.399 1.268 1.0686 0.3562 0.7409-0.47018 0.7409l-209.9-0.1" fill="none" stroke="#1181e2" stroke-width="2.8496" vector-effect="non-scaling-stroke"/>
<path d="m494.03 543.47c-15.06 0.3562-32.2-0.3562-45.109-0.2992-65.383 0.2849-128.09 1.1683-196.25-0.2137-28.795-0.5842-55.367 0.5414-82.566-10.914q-0.6554-0.2707-0.85487 0.4132-0.41319 1.3535 0.49867 2.2084a0.9831 0.96885 20.7 0 1 0.28496 0.6127l0.69815 11.498q0.0427 0.7124-0.41319 1.2538-0.82637 0.9546-0.45593 1.9377 0.96884 2.5789 1.1683 5.3857 0.0427 0.6554 0.69815 0.6554h0.96885q0.66964 0 0.66964 0.6554l0.3277 20.987q0.0142 0.6697-0.58416 0.9831l-2.3224 1.2254q-0.6269 0.3277-0.79787 1.0116-1.724 7.0099-3.106 14.063c-0.37044 1.8237-2.3224 4.2601-0.37044 6.4115q0.24221 0.2565 0.5984 0.2565h0.6839a1.0401 1.0258 82.8 0 1 0.99735 0.7836c1.4248 5.9841-3.2628 12.153 3.3482 15.701q1.1256 0.5984-0.15671 0.5984l-4.8443 0.029t0 0.057 0 0.1a0.19947 0.15673 6.1 0 0 0.17097 0.1568l9.3751 1.5245" fill="none" stroke="#157cec" stroke-width="2.8496" vector-effect="non-scaling-stroke"/>
<path d="m176.69 620.55h-38.198q-0.79788 0-0.56991 0.7551 0.18522 0.6697 0.71239 1.2396" fill="none" stroke="#89c5f3" stroke-width="2.8496" vector-effect="non-scaling-stroke"/>
<path d="m138.63 622.55-0.52717 0.3562q-0.6269 0.4417-0.3277 1.1256 6.782 15.844 18.394 28.581 0.52716 0.5842 1.1826 0.171 0.34195-0.1995 0.54142-0.6839" fill="none" stroke="#1a9ce3" stroke-width="2.8496" vector-effect="non-scaling-stroke"/>
<path d="m157.89 652.1q25.632 24.877 61.137 28.467" fill="none" stroke="#89c5f3" stroke-width="2.8496" vector-effect="non-scaling-stroke"/>
<path d="m219.03 680.57-0.48443 0.1709q-0.61265 0.2138-0.12823 0.6269 0.3562 0.3278 0.29921 0.6697" fill="none" stroke="#0a64d4" stroke-width="2.8496" vector-effect="non-scaling-stroke"/>
<path d="m218.72 682.03-4.2459-0.4844" fill="none" stroke="#157cec" stroke-width="2.8496" vector-effect="non-scaling-stroke"/>
<path d="m214.47 681.55q-24.962-3.0206-45.109-17.81-0.69815-0.4987-1.4675-0.1425-0.78363 0.3704-1.6812 0.086a0.59841 0.59841 0 0 0-0.69814 0.8691q2.0802 3.619 0.58416 7.3091a1.5673 1.5388 43 0 0 0.057 1.2681c1.8095 3.5905 0.45593 6.1266 1.1256 9.2611q0.48442 2.3224 1.2253 4.6163a0.12905 0.12905 0 0 0 0.25646-0.029l0.0855-0.6269a0.41319 0.41319 0 0 1 0.75513-0.171q2.7071 4.2031 2.4649 6.1408-0.88337 7.067-4.9582 12.652-0.42743 0.5699-0.21372 1.2396c1.0401 3.3482-2.9636 14.319-3.3055 18.964-0.52717 7.1952-2.2512 15.288-1.553 22.184 0.74089 7.2094 4.716 12.837 7.1667 19.206q0.31345 0.8264-0.55566 0.9404-2.4079 0.2992-3.4337 2.5646-0.27071 0.5841 0.14248 1.0828l2.7213 3.277q0.18522 0.2422 0.48441 0.285 0.28497 0.029 0.61267 0.2279 1.3393 0.7694-0.96886 2.7926" fill="none" stroke="#1181e2" stroke-width="2.8496" vector-effect="non-scaling-stroke"/>
<path d="m574.56 147.04 11.655 12.795" fill="none" stroke="#8bcbf0" stroke-width="2.8496" vector-effect="non-scaling-stroke"/>
<path d="m586.21 159.84c19.064 22.782 29.393 48.272 35.52 76.254a0.58416 0.58416 0 0 0 0.96885 0.2992c22.526-20.845 50.566-29.45 80.842-30.604" fill="none" stroke="#90d6f0" stroke-width="2.8496" vector-effect="non-scaling-stroke"/>
<path d="m703.54 205.78q26.857-0.4274 52.646 8.7055" fill="none" stroke="#99e0f2" stroke-width="2.8496" vector-effect="non-scaling-stroke"/>
<path d="m756.19 214.49q46.961 18.209 65.811 65.041a0.82637 0.81213 80.2 0 1-0.78359 1.1256l-10.515-0.3277" fill="none" stroke="#a0e6f1" stroke-width="2.8496" vector-effect="non-scaling-stroke"/>
<path d="m810.7 280.33c-168.65 0.8264-337.37 0.6269-506-0.1" fill="none" stroke="#90d6f0" stroke-width="2.8496" vector-effect="non-scaling-stroke"/>
<path d="m304.7 280.23q-3.0063-1.0259-6.9102-0.5414" fill="none" stroke="#99e0f2" stroke-width="2.8496" vector-effect="non-scaling-stroke"/>
<path d="m297.79 279.69-0.55565-0.086q-0.56992-0.1-0.56992-0.6839c0.15673-19.648 1.952-40.179 8.3492-58.573q16.528-47.474 56.336-80.386" fill="none" stroke="#89c5f3" stroke-width="2.8496" vector-effect="non-scaling-stroke"/>
<path d="m365.96 135.69 25.546-16.456" fill="none" stroke="#819ee0" stroke-width="2.8496" vector-effect="non-scaling-stroke"/>
<path d="m586.21 159.84c14.319-18.422 38.412-32.043 59.171-41.048" fill="none" stroke="#1ca1e0" stroke-width="2.8496" vector-effect="non-scaling-stroke"/>
<path d="m908.77 404.93c16.114 32.357 10.301 69.159-13.692 95.731" fill="none" stroke="#99e0f2" stroke-width="2.8496" vector-effect="non-scaling-stroke"/>
<path d="m895.08 500.66c-15.103 17.283-34.323 27.741-55.88 34.993" fill="none" stroke="#90d6f0" stroke-width="2.8496" vector-effect="non-scaling-stroke"/>
<path d="m839.2 535.65q-16.186 4.0037-32.528 5.4569" fill="none" stroke="#8bcbf0" stroke-width="2.8496" vector-effect="non-scaling-stroke"/>
<path d="m806.67 541.11-103.54 0.6554" fill="none" stroke="#87bbef" stroke-width="2.8496" vector-effect="non-scaling-stroke"/>
<path d="m882.91 621.94q-14.832 36.617-53.942 51.549" fill="none" stroke="#a0e6f1" stroke-width="2.8496" vector-effect="non-scaling-stroke"/>
<path d="m828.97 673.48q-12.31 4.3028-25.062 6.0126" fill="none" stroke="#90d6f0" stroke-width="2.8496" vector-effect="non-scaling-stroke"/>
<path d="m803.91 679.5q-15.929 1.8095-41.917 1.838-267.86 0.2422-535.72-0.7124-3.5477-0.014-7.2379-0.057" fill="none" stroke="#819ee0" stroke-width="2.8496" vector-effect="non-scaling-stroke"/>
<path d="m157.89 652.1q-12.011-13.108-19.263-29.55" fill="none" stroke="#90d6f0" stroke-width="2.8496" vector-effect="non-scaling-stroke"/>
<path d="m214.47 681.55-0.99735 0.2992a1.2111 1.2111 0 0 0-0.39893 2.1087q2.1799 1.7239 2.1229 4.5593a0.92611 0.94036 0.5 0 1-0.91187 0.9118q-3.0348 0.043-2.4506 3.22c1.0828 6.0411 1.667 12.068 2.9066 18.123q0.14247 0.6981-0.22796 1.325-5.6421 9.4606-3.277 19.904c1.5673 6.9387 0.88336 13.364 1.439 20.275 0.2992 3.8612 1.7952 8.278 2.1799 12.609q0.0427 0.5841 0.56991 0.8548c4.3741 2.3082 4.4738 6.3688 3.7044 10.786q-0.12824 0.7267 0.18521 1.3963l0.47018 1.0116q0.32771 0.6839-0.38468 0.9546c-1.5245 0.5842-5.9556 0.6697-6.5255 1.0401q-0.27071 0.171-0.39894 0.4275-0.25645 0.4986-0.81212 0.4416-2.2939-0.2564-3.0348 1.2254" fill="none" stroke="#1472e8" stroke-width="2.8496" vector-effect="non-scaling-stroke"/>
<path d="m494.03 543.47 9.0331 0.4132q0.62691 0.028 0.79788 0.6126 1.2538 4.2174-2.5931 4.5166-0.79787 0.071-0.76938 0.8691l0.48444 14.675a0.61266 0.6269 24.3 0 0 0.14248 0.3989q1.4675 1.8522-0.72664 2.5931-0.88338 0.2992-0.49868 1.1399l2.1087 4.5878q0.27071 0.6126-0.17096 1.097-1.6812 1.838-4.0749 1.9805-1.1541 0.057-1.0401 1.2111l0.61264 6.7819q0.0997 1.1399 1.2538 1.1114 6.0838-0.171 6.497 5.4284 0.0427 0.7266 0.75515 0.8834c5.4569 1.1825 10.6 2.6216 9.8595 8.9618q-0.0997 0.8264 0.72664 0.8549l1.8807 0.057a0.085794 0.085794 0 0 1 0.0142 0.171q-0.19946 0.071-0.41317 0.1425-0.47018 0.1282-0.0712 0.4274l2.9493 2.1372a0.66965 0.66965 0 0 1-0.057 1.1255q-5.5424 3.1488-2.8781 8.8195a0.9831 0.9831 0 0 1-0.18522 1.097l-0.51293 0.4987a0.84062 0.84062 0 0 0 0.22797 1.3536l1.8522 0.9118q0.98311 0.4702-0.0427 0.8691-1.0828 0.4275-0.9261 0.9546" fill="none" stroke="#1472e8" stroke-width="2.8496" vector-effect="non-scaling-stroke"/>
<path d="m518.26 620.15-341.58 0.399" fill="none" stroke="#8cb6f8" stroke-width="2.8496" vector-effect="non-scaling-stroke"/>
<path d="m526.1 682.65 1.3963 0.2137q1.6528 0.2564 0.0285 0.6411c-3.7044 0.8406-10.486-2.4506-10.002 4.3171q0.3847 5.058-0.95461 10.016-0.21371 0.8122 0.3847 1.3821l7.9075 7.6511q0.54142 0.5129 0.54142 1.2395c0 2.5931-2.1372 6.9245 1.1113 8.1071q0.66965 0.2422 0.66965 0.9403c0.0284 4.3598 1.5673 8.0358 1.1968 12.21-0.48443 5.5424-0.62691 12.253-3.049 17.283q-0.2707 0.5557-0.84063 0.7979-2.3936 1.0259-3.9466 3.163-0.2992 0.4132-0.0427 0.8407l0.25647 0.4274a2.0232 2.1087 34.1 0 1 0.24221 1.4248c-0.52717 2.6501-0.38469 4.944-1.0258 7.6368-0.86911 3.6475-0.82638 7.4801 0.41319 11.085 0.95461 2.7641-3.8612 5.7134-5.6706 7.5086q-0.84063 0.8122 0.31346 0.9974l3.22 0.4844q0.76937 0.114 0.057 0.4275l-5.8844 2.5503" fill="none" stroke="#157cec" stroke-width="2.8496" vector-effect="non-scaling-stroke"/>
<path d="m707.43 620.55-189.17-0.399" fill="none" stroke="#87bbef" stroke-width="2.8496" vector-effect="non-scaling-stroke"/>
<path d="m304.7 280.23q13.649 1.8664 27.27 1.8664c95.774-0.057 191.58-0.057 287.35 0.3135 31.616 0.1282 63.218-0.6127 94.862-0.085" fill="none" stroke="#2ab6e2" stroke-width="2.8496" vector-effect="non-scaling-stroke"/>
<path d="m718.08 359.38-102.91 0.014" fill="none" stroke="#99e0f2" stroke-width="2.8496" vector-effect="non-scaling-stroke"/>
<path d="m266.43 329.95q0.17096-0.5699-1.2396-0.5556-0.41319 0.014-0.057-0.1853l0.49868-0.2849q0.0997-0.043-0.0142-0.071-0.31344-0.057-0.42743-0.1425-0.15672-0.1 0.11399-0.2992c4.3598-3.2913 3.0633-12.752 2.6501-18.764q-0.0427-0.6554 0.55567-0.9404 0.38468-0.1709 0.6269-0.4702 0.3562-0.4131 0.28495-1.2538-0.34195-3.8754-1.1683-7.6795c-1.1826-5.3572-4.8015-8.8194-4.9298-15.374q0-0.4132-0.42743-0.4132-0.24222 0-0.48443 0-0.45593 0.014-0.12823-0.2991l0.34196-0.342q0.29919-0.2992-0.12824-0.3704l-1.3536-0.1995" fill="none" stroke="#24abe2" stroke-width="2.8496" vector-effect="non-scaling-stroke"/>
<path d="m727.35 682.59q-19.947-0.285-39.894 0c-29.721 0.3989-59.47-0.4132-89.206-0.4845-4.1319-0.014-9.603 0.6697-14.718 0.5272q-25.432-0.6412-57.433 0.014" fill="none" stroke="#0a64d4" stroke-width="2.8496" vector-effect="non-scaling-stroke"/>
<path d="m526.1 682.65q-142.29-0.513-284.6 0.1424c-7.3804 0.043-15.188-0.5271-22.782-0.7551" fill="none" stroke="#0d55d9" stroke-width="2.8496" vector-effect="non-scaling-stroke"/>
<path d="m819.08 133.05q-29.422-11.498-45.921-16.029-15.872-4.3598-32.143-6.0126a2.0517 2.0374 10.8 0 0-2.1514 1.4533c-0.58416 1.9235-3.2485 2.9351-4.4453 4.5736-5.1862 7.0526-0.9261 18.194 1.4533 25.717a1.2253 1.1968 58.3 0 1-0.27071 1.1968c-2.935 3.2058-0.21372 5.0723 0.72664 7.7081q3.1773 8.8621 7.0669 17.425c3.6047 7.9218 4.5308 16.584 7.1952 24.877 1.382 4.3171 1.4533 8.5915 2.8638 13.065q0.71239 2.2511 0.39894 4.7018-0.0712 0.5984 0.52717 0.5984h0.66964q0.89763 0 0.99735 0.8976l0.14248 1.2681" fill="none" stroke="#3ac6e4" stroke-width="2.8496" vector-effect="non-scaling-stroke"/>
<path d="m703.54 205.78q3.9182 0.171 3.4907-2.1514-0.2992-1.5957-1.7525-2.0374-0.64116-0.1853-0.61266-0.8407c0.22796-6.212-2.2227-11.384-2.7213-17.012q-0.88336-9.8452-2.9493-19.52c-0.69814-3.2628-2.6786-5.3999-4.3171-8.2637q-0.28495-0.513-0.58416-0.014l-0.28496 0.4701a0.42744 0.42744 0 0 1-0.79787-0.1424q-0.64116-3.277-0.95461-8.8052-0.0997-1.7098-1.7952-1.8522-0.72664-0.057-0.21373-0.57l0.41319-0.4131a1.0116 1.0116 0 0 0 0.14248-1.2254q-2.6928-4.3883 0.49868-7.8648 0.54142-0.5984 0.56991-1.4105 0.29921-9.717 0.69814-19.462 0.057-1.4533-1.667-2.5931-0.91186-0.5985 0.11397-0.9689 3.1915-1.1541 1.6385-1.8807" fill="none" stroke="#2ab6e2" stroke-width="2.8496" vector-effect="non-scaling-stroke"/>
<path d="m1022 480.13q-0.4275 0-0.4701-0.6839-0.029-0.6981-0.7268-0.7979c-11.783-1.5815-14.219-15.174-23.067-23.138q-7.6084-6.8675-13.706-15.088-3.6902-4.9867-7.1809-7.9645-13.621-11.598-28.424-21.7c-2.3081-1.5815-4.6732-1.7097-7.3376-2.2227q-0.66965-0.1282-0.62684-0.7978l0.28488-4.4739q0.0569-0.9403-0.84057-1.1683-7.5228-1.8807-15.245-1.0828-0.39893 0.043-0.61267 0.2422-0.25644 0.2565-0.62693 0.2992l-8.8194 1.0401a0.085487 0.24221 84.5 0 1-0.25645-0.071q0-0.1852 0-0.3705-0.0145-0.6696-0.68391-0.6696-3.6616 0.014-4.9012 3.448" fill="none" stroke="#3ac6e4" stroke-width="2.8496" vector-effect="non-scaling-stroke"/>
<path d="m908.77 404.93q-20.773-35.178-59.499-43.399-8.4916-1.8094-23.167-1.781-36.36 0.071-72.764-0.2707c-9.0901-0.1-23.452 0.6982-35.263-0.1" fill="none" stroke="#a0e6f1" stroke-width="2.8496" vector-effect="non-scaling-stroke"/>
<path d="m718.08 359.38 1.1541-0.4274q0.79787-0.285-0.0427-0.4275-7.7366-1.325-15.616-1.5245a0.58416 0.58416 0 0 1-0.22797-1.1113l0.6839-0.3277a0.75514 0.74089 53 0 0 0.17097-1.2396q-1.5388-1.3393-2.4221-3.1488-7.3946-15.003-14.177-30.334-0.2707-0.5984-0.79787-0.9831-4.0749-2.8923-6.0553-7.5228a1.838 1.895 0.9 0 0-0.85488-0.9119q-7.6083-3.9609-15.117-8.0785-4.5308-2.5077-3.8327-7.6511c0.47018-3.4195 0.057-8.4917 3.106-11.37q0.45592-0.4274-0.17098-0.4417-1.1541-0.014-1.6527-0.029-2.2797-0.071-0.0143-0.3277c17.112-1.9519 34.75-0.9831 51.976-1.1968" fill="none" stroke="#3ac6e4" stroke-width="2.8496" vector-effect="non-scaling-stroke"/>
<path d="m714.19 282.32 94.72-0.5699q0.71239 0 1.3108-0.3704 0.98309-0.5985 0.48442-1.0544" fill="none" stroke="#31bce2" stroke-width="2.8496" vector-effect="non-scaling-stroke"/>
<path d="m883.25 620.92-175.82-0.3704" fill="none" stroke="#8bcbf0" stroke-width="2.8496" vector-effect="non-scaling-stroke"/>
<path d="m707.43 620.55c-19.534-3.1345-39.139 0.5699-58.487-3.1488q-1.1398-0.2137-0.057-0.6554l1.7097-0.6839q0.59842-0.2279 0.91187-0.7979 0.45593-0.8406 0.47019-1.8522c0.057-5.2859 3.5762-6.1835 6.326-8.9334q4.2886-4.2743 7.1952-4.8015 11.327-2.0517 18.308-10.771c5.1007-6.3687 10.572-12.396 16.072-18.408 1.2966-1.4105 2.9778-2.7498 3.0206-4.7445q0.0997-4.4596-2.7783-8.164-0.35619-0.4559-0.0855-0.9831l6.0268-11.698a1.2253 1.2253 0 0 1 1.0401-0.6696c2.5646-0.1 5.0295-1.1256 7.3091-1.2253 13.393-0.6697 26.757 0.6554 40.008-0.1283q14.447-0.8548 26.444-0.1567 13.949 0.7979 25.803-1.6243" fill="none" stroke="#1387df" stroke-width="2.8496" vector-effect="non-scaling-stroke"/>
<path d="m987.36 573.74-10.714 11.555q-0.42747 0.4559-1.0401 0.3704-1.3393-0.1709-5.0295 1.7525a0.91186 0.91186 0 0 1-1.268-0.5129q-2.1514-5.9698-4.6164-11.754c-3.4907-8.1782-9.66-15.302-14.561-23.01-1.9234-3.0348-4.3029-4.6591-6.9387-6.9387-3.5334-3.0776-5.9984-7.3377-9.5318-10.828q-0.49872-0.4844-1.1825-0.5129c-9.0189-0.4844-6.3403-6.4828-9.3751-11.854q-3.3768-5.9983-7.5514-11.498-0.0713-0.086-0.17092-0.086h-0.56997q-0.35613 0-0.3704-0.3562c-0.29924-6.5112-7.5371-7.4801-12.339-10.016a1.4533 1.439 45.3 0 0-1.3109-0.014l-3.9466 1.9662a0.41319 0.41319 0 0 1-0.5984-0.3562v-0.3989q0-0.342-0.32778-0.4132l-0.84058-0.171" fill="none" stroke="#2ab6e2" stroke-width="2.8496" vector-effect="non-scaling-stroke"/>
<path d="m974.55 630.31c-6.6965-0.342-13.365-0.3847-19.918-1.1969q-35.377-4.4168-71.724-7.1809" fill="none" stroke="#31bce2" stroke-width="2.8496" vector-effect="non-scaling-stroke"/>
<path d="m882.91 621.94q0.17094-0.5129 0.34196-1.0116" fill="none" stroke="#90d6f0" stroke-width="2.8496" vector-effect="non-scaling-stroke"/>
<path d="m883.25 620.92q9.3609-3.2057 2.9066-15.815-2.2227-4.3456-2.2369-7.6938 0-0.7694-0.48445-1.382l-5.5994-7.0385a1.2823 1.2966 28.7 0 1-0.27062-0.9403c0.95453-7.8363-2.7926-11.284-5.628-17.026-3.106-6.269-9.5318-17.511-16.143-20.46a0.12823 0.12823 0 0 0-0.17093 0.1852l0.24218 0.4275q0.0569 0.114-0.0713 0.1424l-0.48435 0.057q-0.11405 0.014-0.19947-0.071-3.6617-4.1888-9.1899-5.4141-0.66966-0.1425-1.0686-0.7124c-1.6384-2.2939-4.5166-5.4712-4.1604-8.3778q0.0713-0.5699-0.47019-0.7694l-1.0259-0.3846" fill="none" stroke="#1ca1e0" stroke-width="2.8496" vector-effect="non-scaling-stroke"/>
<path d="m674.26 783.98q1.2253-0.456 2.7926-0.3705 1.0401 0.071 0.14248-0.4702l-0.51292-0.2992q-0.61266-0.3704-0.14249-0.9118c1.7382-2.009 2.5646-4.1319 4.6163-5.8559q9.5603-8.0928 12.296-20.631c0.52718-2.3651-0.22796-3.7044 0.58416-6.0125 2.009-5.7277 4.2459-10.7 4.716-16.898q1.2396-16.328 4.2316-32.456 0.14248-0.7694 0.64116-1.3536l4.3883-5.058q0.44168-0.5129 1.1113-0.5129h0.41318a0.17157 0.17157 0 0 0 0.0285-0.3419q-0.35619-0.043-0.71239-0.071-0.74089-0.057-0.3847-0.7124l1.9092-3.6047a1.5673 1.5815 7 0 1 0.99736-0.7837q1.9804-0.4986 2.4649-2.3651 0.18523-0.6839 0.85487-0.8976 6.0696-1.9235 12.652-1.781" fill="none" stroke="#1a9ce3" stroke-width="2.8496" vector-effect="non-scaling-stroke"/>
<path d="m727.35 682.59c17.368-0.3705 34.437-0.3277 51.762-0.1995 8.9761 0.071 17.753-1.0543 26.601-2.0517a0.25646 0.25646 0 0 0 0.12823-0.4559q-0.52717-0.4275-1.9377-0.3847" fill="none" stroke="#1275d1" stroke-width="2.8496" vector-effect="non-scaling-stroke"/>
<path d="m850.6 792.31q-0.28498-1.9377 0.71235-2.3224a0.18522 0.18522 0 0 1 0.25644 0.114q0.0713 0.1995 0.12823 0.3847 0.0998 0.285 0.32779 0.085 2.0943-1.8095 0.27071-3.4479-0.54143-0.4845-0.68392-1.2111-2.0517-10.486-1.4675-14.86 0.85484-6.44 0.45591-9.6458-0.0858-0.6981 0.14249-1.3678 3.7472-10.387 1.6527-21.343-0.0569-0.3135-0.38466-0.3135-0.19948 0-0.41321 0-0.54142 0.014-0.75515-0.4987c-4.9725-11.854-5.0437-24.122-10.586-35.335a2.0374 2.0659 34 0 1-0.19947-1.0543q0.27071-4.0037-1.6385-7.4659-0.32768-0.5984 0.12823-1.0971 2.1514-2.3936 1.553-5.5851a1.7097 1.6955 7.2 0 0-0.98306-1.2538c-7.3376-3.3483-5.2432-8.905-10.144-12.609" fill="none" stroke="#31bce2" stroke-width="2.8496" vector-effect="non-scaling-stroke"/>
<path d="m288.16 485.81 341.22 0.014" fill="none" stroke="#87bbef" stroke-width="2.8496" vector-effect="non-scaling-stroke"/>
<path d="m629.38 485.83q60.211-0.1282 120.38 0.2993c21.685 0.1424 40.393-5.3145 44.895-29.892q1.1256-6.1551-2.1942-12.396" fill="none" stroke="#89c5f3" stroke-width="2.8496" vector-effect="non-scaling-stroke"/>
<path d="m792.46 443.84c-4.9298-15.587-24.492-21.828-39.467-20.944" fill="none" stroke="#819ee0" stroke-width="2.8496" vector-effect="non-scaling-stroke"/>
<path d="m753 422.89q-15.288-1.3536-31.701-0.7267" fill="none" stroke="#89c5f3" stroke-width="2.8496" vector-effect="non-scaling-stroke"/>
<path d="m721.3 422.17-381.5 0.2422" fill="none" stroke="#87bbef" stroke-width="2.8496" vector-effect="non-scaling-stroke"/>
<path d="m339.8 422.41q-31.673-0.043-63.36-0.2564-14.661-0.1-21.044 1.9519c-22.811 7.3092-32.856 38.412-11.954 54.498 12.666 9.7455 30.79 7.993 44.724 7.2094" fill="none" stroke="#8cb6f8" stroke-width="2.8496" vector-effect="non-scaling-stroke"/>
<path d="m339.8 422.41q-0.82636 0.6839 0.98311 1.6528 0.72664 0.3989 1.7382 0.4132c19.32 0.4132 31.117 0.6126 47.588 3.1345 4.0179 0.6126 9.3181 2.1514 14.547 1.9662a0.10202 0.10202 0 0 1 0.0428 0.1995q-0.24222 0.085-0.48444 0.1709-0.34194 0.1 0 0.171c5.058 1.0686 9.8168-0.3562 14.291 0.029q26.458 2.3224 53.045 3.1345 0.18521 0 0.18521 0.1995v0.5557q0 0.4274 0.42744 0.4559l3.6474 0.2707a0.24221 0.24221 0 0 1 0.0997 0.4559l-0.47018 0.285a0.19947 0.21372 32.4 0 0 0.0855 0.3847l4.5878 0.3989q0.56991 0.043 0.15673 0.456l-0.3562 0.3562q-0.49867 0.5129 0.19947 0.6269l11.826 2.0801a0.42744 0.42744 0 0 1 0.22796 0.7124l-0.37045 0.3847q-0.52717 0.5129 0.17099 0.7409l3.7044 1.2111q0.44168 0.1424 0.11397 0.4701l-0.5984 0.5985a0.48443 0.48443 0 0 0 0.18522 0.7978l4.4026 1.5673q0.91186 0.3277 0.22797 1.0116l-0.32769 0.3277q-0.61267 0.6127 0.0997 1.0971l2.7356 1.838q1.1256 0.7408-0.22797 0.6839-5.058-0.228-10.002-0.9974-0.22797-0.028-0.37045 0.114-0.17097 0.171-0.39894 0.1282l-11.498-1.9234a0.86912 0.91186 27.8 0 0-0.76939 0.2564l-1.838 1.8237q-0.3277 0.342 0.12823 0.4702 2.7783 0.8122 4.8015 3.0063 0.85487 0.9261-0.38469 0.6982l-13.065-2.4364q-0.81213-0.1567-1.3963 0.4132l-2.9208 2.7213q-0.47018 0.4559-0.18523 1.0401 0.85487 1.6812 2.9635 1.7382 1.2396 0.043 0.24222 0.7694l-0.69815 0.5272q-0.66964 0.4844 0.0997 0.7694l5.7276 2.1799q0.31346 0.114 0.31346 0.4417v0.6554q0 0.7266 0.66964 0.9973l11.612 4.83q0.58415 0.2423 0.24221 0.7694c-2.5076 3.9182-1.2966 11.812 4.4453 12.552a0.27133 0.25705 48.4 0 1-0.0285 0.5271l-201.36 0.2992a1.2396 1.5958 8 0 0-1.2823 1.2396q-0.0855 0.4132 0.84063 0.9546" fill="none" stroke="#1472e8" stroke-width="2.8496" vector-effect="non-scaling-stroke"/>
<path d="m721.3 422.17-1.0116 0.6554q-0.56992 0.3705-1.2538 0.3562c-10.429-0.2707-18.209-0.6554-29.45 1.4248q-2.0374 0.3847-4.0749-0.9546-0.59841-0.3847-1.2966-0.4417c-4.8728-0.4702-17.411-1.3393-21.571 1.0401q-0.56991 0.342-1.2253 0.3277-5.9841-0.1-11.925 0.4559-0.057 0.014-0.057 0.071 0 0.029 0 0.086a0.11398 0.12823 86.8 0 0 0.14248 0.114c10.173-0.2849 18.351 1.6243 25.96 0.9831q0.21372-0.014 0.11399 0.171l-0.19947 0.3847q-0.18523 0.3419 0.19947 0.2849l2.8496-0.4417q1.0971-0.1709 0.27071 0.5842c-0.44169 0.3989-1.2253 0.7266-1.895 0.7552q-6.383 0.3134-12.025 3.2485-0.3562 0.1852-0.15673 0.5271l0.24221 0.4132a0.52717 0.51292 78.3 0 1-0.51293 0.7836q-4.5736-0.6126-7.7508 2.3794-0.51291 0.4845-1.1826 0.3562-4.0606-0.7551-5.6421 2.6359-0.3847 0.8121 0.52716 0.8121h1.0543q0.56992 0 0.17098 0.3989l-5.6849 5.7562a1.3108 1.3393 29.6 0 1-1.2396 0.3562q-2.4649-0.5984-3.8896 1.1398-0.4417 0.5414-1.0971 0.8264c-2.4506 1.0686-4.2031 1.5245-6.0268 3.6474q-2.6644 3.1203-5.3572 6.2833-0.54142 0.6412-1.3678 0.4702-3.8896-0.7694-5.7134 2.9208a1.4105 1.4248 2.7 0 1-0.74089 0.6839q-2.5931 1.0543-3.2912 3.8754a0.81213 0.81213 0 0 0 0.82637 0.9973l6.668-0.3846q0.66964-0.029 0.38469 0.5841-2.8638 6.1836-3.4907 13.022a0.91186 0.89761 13.9 0 0 0.55566 0.9119q4.3883 1.8522 8.1925 4.2601 0.47018 0.2992-0.94036 0.8976" fill="none" stroke="#1181e2" stroke-width="2.8496" vector-effect="non-scaling-stroke"/>
<path d="m753 422.89q16.542 2.5076 21.115 4.4453 11.341 4.7873 18.351 16.499" fill="none" stroke="#0a64d4" stroke-width="2.8496" vector-effect="non-scaling-stroke"/>
<path d="m667.23 107.09q-2.1087 0.6411-3.3767-0.8976-15.73-19.049-31.217-32.642-0.64114-0.57-1.0543 0.1852c-2.3509 4.2173-6.1551 6.497-11.142 4.8157-17.34-5.8558-32.941-13.835-50.893-17.553q-27.541-5.7134-55.652-7.0242-52.176-2.4363-104.19-0.4986c-47.915 1.3392-92.568 17.439-133.94 40.435-4.1889 2.3367-10.244 7.8933-13.136 11.812q-1.1826 1.5957-3.0633 1.0116c17.781-23.253 40.136-42.587 63.032-60.568q24.934-19.562 57.803-31.132c75.984-26.743 156.4-12.994 222.31 31.659 24.079 16.314 45.85 38.184 64.528 60.397z" fill="#023dc1" stroke-width="1.4248"/>
<path d="m667.23 107.09 4.5166 4.8727-26.358 6.8247q-1.0116-2.0659-3.1915-1.6242c-12.025 2.4221-25.917 4.3313-36.204 8.3635q-17.881 7.0099-31.431 21.514c-36.332-37.215-83.108-50.124-133.94-42.972q-1.1826-2.8211-6.4685-3.0918a1.8095 1.838 71 0 1-1.2538-0.5984c-5.0152-5.6279-6.0126-9.5175-7.6938-17.781q-0.15671-0.7266-0.88335-0.8691l-2.1229-0.4132q-0.79788-0.1425-0.91186-0.9403c-1.496-10.301-8.2637-16.342-12.296-24.535q-0.64115-1.2823 0.71239-2.3651 52.019-1.9377 104.19 0.4986 28.111 1.3108 55.652 7.0242c17.952 3.7187 33.554 11.698 50.893 17.553 4.9867 1.6813 8.7909-0.5984 11.142-4.8157q0.41319-0.7552 1.0543-0.1852 15.487 13.592 31.217 32.642 1.268 1.5387 3.3767 0.8976z" fill="#0f77de" stroke-width="1.4248"/>
<path d="m409.7 53.475q-1.3535 1.0828-0.71239 2.3651c4.0321 8.1925 10.8 14.234 12.296 24.535q0.11398 0.7978 0.91186 0.9403l2.1229 0.4132q0.72664 0.1425 0.88335 0.8691c1.6812 8.2638 2.6786 12.153 7.6938 17.781a1.8095 1.838 71 0 0 1.2538 0.5984q5.286 0.2707 6.4685 3.0918-26.33 4.0322-49.112 15.16-14.447 5.058-25.546 16.456l-4.6021 4.2743q-4.9297 2.0517-8.4632 5.6992c-5.7134 5.8843-10.572 10.116-15.245 15.658-16.969 20.146-33.055 47.616-37.871 73.818a1.9662 1.9662 0 0 1-1.9662 1.61q-39.766-0.7552-79.474 3.9894-5.7134 0.6839-11.099 0.043 2.3224-77.437 52.318-134.04 1.8807 0.5842 3.0633-1.0116c2.8923-3.9181 8.9476-9.4748 13.136-11.811 41.376-22.996 86.028-39.096 133.94-40.435z" fill="#055cdf" stroke-width="1.4248"/>
<path d="m574.56 147.04 11.655 12.795c19.064 22.782 29.393 48.272 35.52 76.254a0.58416 0.58416 0 0 0 0.96885 0.2992c22.526-20.845 50.566-29.45 80.842-30.604q26.857-0.4274 52.646 8.7055 46.961 18.209 65.811 65.041a0.82637 0.81213 80.2 0 1-0.78359 1.1256l-10.515-0.3277c-168.65 0.8264-337.37 0.6269-506-0.1q-3.0063-1.0258-6.9102-0.5414l-0.55565-0.086q-0.56992-0.1-0.56992-0.6839c0.15673-19.648 1.952-40.179 8.3492-58.573q16.528-47.474 56.336-80.386l4.6021-4.2743 25.546-16.456q22.782-11.128 49.112-15.16c50.836-7.1524 97.612 5.7562 133.94 42.972z" fill="#fff" stroke-width="1.4248"/>
<path d="m819.08 133.05q-29.422-11.498-45.921-16.029-15.872-4.3598-32.143-6.0126a2.0517 2.0374 10.8 0 0-2.1514 1.4533c-0.58416 1.9235-3.2485 2.9351-4.4453 4.5736-5.1862 7.0526-0.9261 18.194 1.4533 25.717a1.2253 1.1968 58.3 0 1-0.27071 1.1968c-2.935 3.2058-0.21372 5.0723 0.72664 7.7081q3.1773 8.8621 7.0669 17.425c3.6047 7.9218 4.5308 16.584 7.1952 24.877 1.382 4.3171 1.4533 8.5915 2.8638 13.065q0.71239 2.2511 0.39894 4.7018-0.0712 0.5984 0.52717 0.5984h0.66964q0.89763 0 0.99735 0.8976l0.14248 1.2681q-25.789-9.1329-52.646-8.7055 3.9182 0.171 3.4907-2.1514-0.2992-1.5957-1.7525-2.0374-0.64116-0.1853-0.61266-0.8407c0.22796-6.212-2.2227-11.384-2.7213-17.012q-0.88336-9.8452-2.9493-19.52c-0.69814-3.2628-2.6786-5.3999-4.3171-8.2637q-0.28495-0.513-0.58416-0.014l-0.28496 0.4701a0.42744 0.42744 0 0 1-0.79787-0.1424q-0.64116-3.277-0.95461-8.8052-0.0997-1.7098-1.7952-1.8522-0.72664-0.057-0.21373-0.57l0.41319-0.4131a1.0116 1.0116 0 0 0 0.14248-1.2254q-2.6928-4.3883 0.49868-7.8648 0.54142-0.5984 0.56991-1.4105 0.29921-9.717 0.69814-19.462 0.057-1.4533-1.667-2.5931-0.91186-0.5985 0.11397-0.9689 3.1915-1.1541 1.6385-1.8807c45.436-4.1176 85.487 4.0606 126.62 23.822z" fill="#32c0e4" stroke-width="1.4248"/>
<path d="m692.46 109.23q1.553 0.7267-1.6385 1.8808-1.0258 0.3704-0.11397 0.9688 1.724 1.1398 1.667 2.5931-0.39893 9.7455-0.69814 19.463-0.0284 0.8121-0.56991 1.4105-3.1915 3.4765-0.49868 7.8648a1.0116 1.0116 0 0 1-0.14248 1.2253l-0.41319 0.4132q-0.51291 0.5129 0.21373 0.5699 1.6955 0.1425 1.7952 1.8522 0.31345 5.5282 0.95461 8.8052a0.42744 0.42744 0 0 0 0.79787 0.1425l0.28496-0.4702q0.29921-0.4987 0.58416 0.014c1.6385 2.8638 3.619 5.001 4.3171 8.2637q2.0659 9.6743 2.9493 19.52c0.49868 5.6279 2.9493 10.8 2.7213 17.012q-0.0285 0.6554 0.61266 0.8406 1.4533 0.4417 1.7525 2.0375 0.42744 2.3224-3.4907 2.1514c-30.277 1.1541-58.316 9.7597-80.842 30.604a0.58416 0.58416 0 0 1-0.96885-0.2992c-6.1266-27.983-16.456-53.472-35.52-76.254 14.319-18.422 38.412-32.043 59.171-41.048l26.358-6.8247z" fill="#21ace0" stroke-width="1.4248"/>
<path d="m819.08 133.05q30.362 16.1 54.569 40.92c21.172 21.714 40.92 46.619 45.451 77.408q1.5102 10.23 2.4506 27.897 0.0424 0.7266 0.68391 1.0543 15.074 7.6653 28.852 19.876c51.691 45.807 75.556 111.53 70.926 179.92q-0.4275 0-0.4701-0.6839-0.029-0.6981-0.7268-0.7979c-11.783-1.5815-14.219-15.174-23.067-23.138q-7.6084-6.8675-13.706-15.088-3.6902-4.9867-7.1809-7.9645-13.621-11.598-28.424-21.7c-2.3081-1.5815-4.6732-1.7097-7.3376-2.2227q-0.66965-0.1282-0.62684-0.7978l0.28488-4.4739q0.0569-0.9403-0.84057-1.1683-7.5228-1.8807-15.245-1.0828-0.39893 0.043-0.61267 0.2422-0.25644 0.2565-0.62693 0.2992l-8.8194 1.0401a0.085487 0.24221 84.5 0 1-0.25645-0.071q0-0.1852 0-0.3705-0.0145-0.6696-0.68391-0.6696-3.6616 0.014-4.9012 3.448-20.773-35.178-59.499-43.399-8.4916-1.8095-23.167-1.781-36.36 0.071-72.764-0.2707c-9.0901-0.1-23.452 0.6981-35.263-0.1l1.1541-0.4274q0.79787-0.285-0.0427-0.4275-7.7366-1.325-15.616-1.5245a0.58416 0.58416 0 0 1-0.22797-1.1113l0.6839-0.3277a0.75514 0.74089 53 0 0 0.17097-1.2396q-1.5388-1.3393-2.4221-3.1488-7.3946-15.003-14.177-30.334-0.2707-0.5984-0.79787-0.9831-4.0749-2.8923-6.0553-7.5229a1.838 1.895 0.9 0 0-0.85488-0.9118q-7.6083-3.9609-15.117-8.0785-4.5308-2.5077-3.8327-7.6511c0.47018-3.4195 0.057-8.4918 3.106-11.37q0.45592-0.4275-0.17098-0.4417-1.1541-0.014-1.6527-0.029-2.2797-0.071-0.0143-0.3277c17.112-1.9519 34.75-0.9831 51.976-1.1968l94.72-0.5699q0.71239 0 1.3108-0.3705 0.98309-0.5984 0.48442-1.0543l10.515 0.3277a0.82637 0.81213 80.2 0 0 0.78359-1.1256q-18.85-46.833-65.811-65.041l-0.14248-1.2681q-0.0997-0.8976-0.99735-0.8976h-0.66964q-0.59841 0-0.52717-0.5984 0.31345-2.4506-0.39894-4.7018c-1.4105-4.4738-1.4818-8.7482-2.8638-13.065-2.6643-8.2923-3.5904-16.955-7.1952-24.877q-3.8896-8.5629-7.0669-17.425c-0.94036-2.6358-3.6617-4.5023-0.72664-7.7081a1.2253 1.1968 58.3 0 0 0.27071-1.1968c-2.3794-7.5228-6.6395-18.665-1.4533-25.717 1.1968-1.6385 3.8612-2.6501 4.4453-4.5736a2.0517 2.0374 10.8 0 1 2.1514-1.4532q16.271 1.6527 32.143 6.0125 16.499 4.5309 45.921 16.029z" fill="#41cce3" stroke-width="1.4248"/>
<path d="m645.38 118.79c-20.759 9.0047-44.852 22.626-59.171 41.048l-11.655-12.795q13.55-14.504 31.431-21.514c10.287-4.0322 24.179-5.9414 36.204-8.3635q2.1799-0.4417 3.1915 1.6242z" fill="#1696e0" stroke-width="1.4248"/>
<path d="m391.5 119.23-25.546 16.456q11.099-11.398 25.546-16.456z" fill="#023dc1" stroke-width="1.4248"/>
<path d="m361.35 139.96q-39.808 32.912-56.336 80.386c-6.3973 18.394-8.1925 38.925-8.3492 58.573q0 0.5841 0.56992 0.6839l0.55565 0.086c-1.724 1.0543-2.7071 0.3419-4.1746 0.3846q-16.385 0.3847-32.471 2.237-27.968 3.049-52.204 15.915c-12.324 6.5397-21.6 16.399-30.106 27.299a1.1113 1.1113 0 0 0 0.0143 1.3963c4.0464 4.9583 8.8052 2.6359 13.592 2.6644q37.002 0.2707 73.989 0.3704c25.789 0.6839 52.532 0.228 77.651 3.0206q63.389 7.0811 125.32 22.212 8.6057 2.1087 16.072 2.4649c39.808 1.9235 80.044 0.7552 112.42 0.4417 5.4997-0.057 11.526 0.9546 17.268 1.2966-30.647-0.1425-61.28 0.3277-91.913 0.1709-105.58-0.5271-228.25-0.3277-316.57-0.114-54.085 0.1283-102.31 36.004-97.783 94.25q0.79787 10.273 3.6617 17.197c15.43 37.443 51.549 63.887 91.927 68.689q18.052 2.1372 36.303 2.1372 231.17 0.043 462.34 0.043 0.96886 0.3989 1.268 1.0686 0.3562 0.7409-0.47018 0.7409l-209.9-0.1c-15.06 0.3562-32.2-0.3562-45.109-0.2992-65.383 0.2849-128.09 1.1683-196.25-0.2137-28.795-0.5842-55.367 0.5414-82.566-10.914q-0.6554-0.2707-0.85487 0.4132-0.41319 1.3535 0.49867 2.2084a0.9831 0.96885 20.7 0 1 0.28496 0.6127l0.69814 11.498q0.0427 0.7124-0.41318 1.2538-0.82638 0.9546-0.45593 1.9377 0.96884 2.5788 1.1683 5.3857 0.0427 0.6554 0.69815 0.6554h0.96884q0.66965 0 0.66965 0.6554l0.3277 20.987q0.0142 0.6697-0.58416 0.9831l-2.3224 1.2254q-0.6269 0.3277-0.79787 1.0115-1.724 7.01-3.106 14.063c-0.37044 1.8237-2.3224 4.2601-0.37044 6.4115q0.24221 0.2565 0.5984 0.2565h0.6839a1.0401 1.0258 82.8 0 1 0.99735 0.7836c1.4248 5.9841-3.2628 12.153 3.3482 15.701q1.1256 0.5984-0.15671 0.5984l-4.8443 0.028t0 0.057 0 0.1a0.19947 0.15673 6.1 0 0 0.17097 0.1567l9.3751 1.5245h-38.198q-0.79787 0-0.5699 0.7552 0.18522 0.6696 0.71239 1.2395l-0.52717 0.3562q-0.6269 0.4417-0.3277 1.1256 6.782 15.844 18.394 28.581 0.52716 0.5841 1.1826 0.1709 0.34194-0.1994 0.54142-0.6838 25.632 24.877 61.137 28.467l-0.48443 0.171q-0.61265 0.2137-0.12823 0.6269 0.35619 0.3277 0.29921 0.6697l-4.2459-0.4845q-24.962-3.0205-45.109-17.81-0.69815-0.4986-1.4675-0.1424-0.78363 0.3704-1.6812 0.085a0.59841 0.59841 0 0 0-0.69814 0.8691q2.0802 3.6189 0.58416 7.3091a1.5673 1.5388 43 0 0 0.057 1.2681c1.8095 3.5904 0.45593 6.1265 1.1256 9.2611q0.48442 2.3224 1.2253 4.6163a0.12905 0.12905 0 0 0 0.25646-0.029l0.0855-0.6269a0.41319 0.41319 0 0 1 0.75513-0.171q2.7071 4.2031 2.4649 6.1408-0.88337 7.0669-4.9582 12.652-0.42743 0.5699-0.21372 1.2396c1.0401 3.3482-2.9636 14.319-3.3055 18.964-0.52716 7.1952-2.2512 15.288-1.553 22.184 0.74089 7.2094 4.716 12.837 7.1667 19.206q0.31345 0.8264-0.55566 0.9404-2.4079 0.2991-3.4337 2.5646-0.27071 0.5841 0.14247 1.0828l2.7214 3.277q0.18522 0.2422 0.48441 0.285 0.28497 0.029 0.61267 0.2279 1.3393 0.7694-0.96886 2.7926c-58.473-15.659-101.91-66.794-119.85-122.93-1.9947-6.2263-2.6216-13.037-3.3197-19.591q-0.08551-0.7836-0.74089-1.2253l-3.6332-2.4649a1.9947 2.0659 6.3 0 1-0.78364-1.0116c-3.7329-10.643-2.4364-27.356-1.439-38.526q0.24221-2.7499 3.448-4.0749a0.74089 0.72664 65.5 0 0 0.37044-1.0105c-8.6627-17.539-21.414-31.302-28.282-50.637-26.031-73.305-11.427-160.62 42.658-217.84 41.077-43.47 90.132-67.663 150.04-71.795q0.75514-0.057 0.88337-0.7979 0.47017-2.8068-0.3277-5.058 5.3857 0.6412 11.099-0.043 39.709-4.7445 79.474-3.9894a1.9662 1.9662 0 0 0 1.9662-1.61c4.8158-26.202 20.902-53.672 37.871-73.818 4.6733-5.5424 9.5318-9.774 15.245-15.658q3.5335-3.6474 8.4632-5.6991z" fill="#128be6" stroke-width="1.4248"/>
<path d="m297.79 279.69q3.9039-0.4845 6.9102 0.5414 13.649 1.8664 27.27 1.8664c95.774-0.057 191.58-0.057 287.35 0.3135 31.616 0.1282 63.218-0.6127 94.862-0.085-17.226 0.2137-34.864-0.7551-51.976 1.1968q-2.2654 0.2565 0.0143 0.3277 0.49866 0.014 1.6527 0.028 0.62691 0.014 0.17098 0.4417c-3.049 2.8781-2.6359 7.9503-3.106 11.37q-0.69813 5.1434 3.8327 7.651 7.5086 4.1177 15.117 8.0786a1.838 1.895 0.9 0 1 0.85487 0.9118q1.9805 4.6306 6.0553 7.5229 0.52717 0.3847 0.79787 0.9831 6.782 15.331 14.177 30.334 0.88337 1.8095 2.4221 3.1488a0.75514 0.74089 53 0 1-0.17096 1.2396l-0.68391 0.3277a0.58416 0.58416 0 0 0 0.22797 1.1113q7.8791 0.1995 15.616 1.5245 0.84062 0.1425 0.0427 0.4275l-1.1541 0.4274-102.91 0.014c-5.7419-0.342-11.769-1.3536-17.268-1.2966-32.371 0.3135-72.607 1.4818-112.42-0.4417q-7.4659-0.3561-16.072-2.4648-61.935-15.131-125.32-22.212c-25.119-2.7926-51.862-2.3366-77.651-3.0205q0.17097-0.57-1.2396-0.5557-0.41319 0.014-0.057-0.1852l0.49868-0.285q0.0997-0.043-0.0142-0.071-0.31345-0.057-0.42744-0.1425-0.15673-0.1 0.11399-0.2992c4.3598-3.2912 3.0633-12.752 2.6501-18.764q-0.0427-0.6554 0.55567-0.9403 0.38469-0.171 0.6269-0.4702 0.3562-0.4132 0.28496-1.2538-0.34196-3.8754-1.1683-7.6796c-1.1826-5.3572-4.8015-8.8194-4.9298-15.373q0-0.4132-0.42743-0.4132-0.24222 0-0.48443 0-0.45593 0.014-0.12823-0.2992l0.34196-0.342q0.29919-0.2992-0.12824-0.3704l-1.3536-0.1995q16.086-1.8522 32.471-2.2369c1.4675-0.043 2.4506 0.6697 4.1746-0.3847z" fill="#32c0e4" stroke-width="1.4248"/>
<path d="m304.7 280.23c168.62 0.7266 337.35 0.9261 506 0.1q0.49867 0.4559-0.48442 1.0543-0.59841 0.3705-1.3108 0.3705l-94.72 0.5699c-31.644-0.5272-63.246 0.2137-94.862 0.085-95.774-0.3705-191.58-0.3705-287.35-0.3135q-13.621 0-27.27-1.8664z" fill="#21ace0" stroke-width="1.4248"/>
<path d="m261.15 282.31 1.3536 0.1994q0.42743 0.071 0.12824 0.3705l-0.34196 0.3419q-0.3277 0.3135 0.12823 0.2992 0.24221 0 0.48443 0 0.42743 0 0.42743 0.4132c0.12823 6.554 3.7472 10.016 4.9298 15.373q0.82637 3.8042 1.1683 7.6796 0.0712 0.8406-0.28495 1.2538-0.24222 0.2992-0.6269 0.4702-0.59842 0.285-0.55567 0.9404c0.41318 6.0126 1.7097 15.473-2.6501 18.764q-0.27072 0.1994-0.11399 0.2992 0.11399 0.086 0.42743 0.1424 0.11398 0.028 0.0142 0.071l-0.49868 0.285q-0.3562 0.1995 0.057 0.1852 1.4105-0.014 1.2396 0.5557-36.987-0.1-73.989-0.3704c-4.7873-0.029-9.5461 2.2938-13.592-2.6644a1.1113 1.1113 0 0 1-0.0142-1.3963c8.506-10.9 17.781-20.759 30.106-27.299q24.236-12.866 52.204-15.915z" fill="#1696e0" stroke-width="1.4248"/>
<path d="m615.16 359.39 102.91-0.014c11.811 0.7978 26.173 0 35.263 0.1q36.403 0.3419 72.764 0.2707 14.675-0.028 23.167 1.7809 38.726 8.221 59.499 43.399c16.114 32.357 10.301 69.159-13.692 95.731-15.103 17.283-34.323 27.741-55.88 34.993q-16.186 4.0037-32.528 5.457l-103.54 0.6554q-231.17 0-462.34-0.043-18.251 0-36.303-2.1372c-40.378-4.8015-76.497-31.246-91.927-68.689q-2.8638-6.9245-3.6617-17.197c-4.5308-58.245 43.698-94.121 97.783-94.249 88.322-0.2137 211-0.4132 316.57 0.114 30.633 0.1567 61.266-0.3135 91.913-0.171zm-327 126.42 341.22 0.014q60.211-0.1282 120.38 0.2992c21.685 0.1425 40.393-5.3144 44.895-29.892q1.1256-6.1551-2.1942-12.396c-4.9298-15.587-24.492-21.828-39.467-20.944q-15.288-1.3535-31.701-0.7266l-381.5 0.2422q-31.673-0.043-63.36-0.2565-14.661-0.1-21.044 1.952c-22.811 7.3091-32.856 38.412-11.954 54.498 12.666 9.7455 30.79 7.993 44.724 7.2094z" fill="#fff" stroke-width="1.4248"/>
<path d="m1022 480.13c-2.8923 32.343-13.977 68.062-34.651 93.608l-10.714 11.555q-0.42747 0.4559-1.0401 0.3704-1.3393-0.1709-5.0295 1.7525a0.91186 0.91186 0 0 1-1.268-0.5129q-2.1514-5.9698-4.6164-11.754c-3.4907-8.1782-9.66-15.302-14.561-23.01-1.9234-3.0348-4.3029-4.6591-6.9387-6.9387-3.5334-3.0776-5.9984-7.3377-9.5318-10.828q-0.49872-0.4844-1.1825-0.5129c-9.0189-0.4844-6.3403-6.4828-9.3751-11.854q-3.3768-5.9983-7.5514-11.498-0.0713-0.086-0.17092-0.086h-0.56997q-0.35613 0-0.3704-0.3562c-0.29924-6.5112-7.5371-7.4801-12.339-10.016a1.4533 1.439 45.3 0 0-1.3109-0.014l-3.9466 1.9662a0.41319 0.41319 0 0 1-0.5984-0.3562v-0.3989q0-0.342-0.32778-0.4132l-0.84058-0.171c23.993-26.572 29.807-63.374 13.692-95.731q1.2396-3.4337 4.9012-3.4479 0.66964 0 0.68391 0.6696 0 0.1852 0 0.3704a0.085487 0.24221 84.5 0 0 0.25645 0.071l8.8194-1.0401q0.37049-0.043 0.62693-0.2992 0.21374-0.1994 0.61267-0.2422 7.7223-0.7978 15.245 1.0829 0.89764 0.2279 0.84057 1.1683l-0.28488 4.4738q-0.0424 0.6697 0.62684 0.7979c2.6644 0.5129 5.0296 0.6411 7.3376 2.2227q14.804 10.102 28.424 21.699 3.4907 2.9778 7.1809 7.9645 6.0981 8.2211 13.706 15.088c8.8479 7.9645 11.284 21.557 23.067 23.138q0.6982 0.1 0.7268 0.7979 0.042 0.6839 0.4701 0.6839z" fill="#32c0e4" stroke-width="1.4248"/>
<path d="m339.8 422.41q-0.82636 0.6839 0.98311 1.6528 0.72664 0.3989 1.7382 0.4132c19.32 0.4132 31.117 0.6126 47.588 3.1345 4.0179 0.6126 9.3181 2.1514 14.547 1.9662a0.10202 0.10202 0 0 1 0.0428 0.1995q-0.24222 0.085-0.48444 0.1709-0.34194 0.1 0 0.171c5.058 1.0686 9.8168-0.3562 14.291 0.029q26.458 2.3224 53.045 3.1345 0.18521 0 0.18521 0.1995v0.5557q0 0.4274 0.42744 0.4559l3.6474 0.2707a0.24221 0.24221 0 0 1 0.0997 0.4559l-0.47018 0.285a0.19947 0.21372 32.4 0 0 0.0855 0.3847l4.5878 0.3989q0.56991 0.043 0.15673 0.456l-0.3562 0.3562q-0.49867 0.5129 0.19947 0.6269l11.826 2.0801a0.42744 0.42744 0 0 1 0.22796 0.7124l-0.37045 0.3847q-0.52717 0.5129 0.17099 0.7409l3.7044 1.2111q0.44168 0.1424 0.11397 0.4701l-0.5984 0.5985a0.48443 0.48443 0 0 0 0.18522 0.7978l4.4026 1.5673q0.91186 0.3277 0.22797 1.0116l-0.32769 0.3277q-0.61267 0.6127 0.0997 1.0971l2.7356 1.838q1.1256 0.7408-0.22797 0.6839-5.058-0.228-10.002-0.9974-0.22797-0.028-0.37045 0.114-0.17097 0.171-0.39894 0.1282l-11.498-1.9234a0.86912 0.91186 27.8 0 0-0.76939 0.2564l-1.838 1.8237q-0.3277 0.342 0.12823 0.4702 2.7783 0.8122 4.8015 3.0063 0.85487 0.9261-0.38469 0.6982l-13.065-2.4364q-0.81213-0.1567-1.3963 0.4132l-2.9208 2.7213q-0.47018 0.4559-0.18523 1.0401 0.85487 1.6812 2.9635 1.7382 1.2396 0.043 0.24222 0.7694l-0.69815 0.5272q-0.66964 0.4844 0.0997 0.7694l5.7276 2.1799q0.31346 0.114 0.31346 0.4417v0.6554q0 0.7266 0.66964 0.9973l11.612 4.83q0.58415 0.2423 0.24221 0.7694c-2.5076 3.9182-1.2966 11.812 4.4453 12.552a0.27133 0.25705 48.4 0 1-0.0285 0.5271l-201.36 0.2992a1.2396 1.5958 8 0 0-1.2823 1.2396q-0.0855 0.4132 0.84063 0.9546c-13.934 0.7836-32.058 2.5361-44.724-7.2094-20.902-16.086-10.857-47.189 11.954-54.498q6.383-2.0517 21.044-1.9519 31.687 0.2137 63.36 0.2564z" fill="#186df1" stroke-width="1.4248"/>
<path d="m721.3 422.17-1.0116 0.6554q-0.56992 0.3705-1.2538 0.3562c-10.429-0.2707-18.209-0.6554-29.45 1.4248q-2.0374 0.3847-4.0749-0.9546-0.59841-0.3847-1.2966-0.4417c-4.8728-0.4702-17.411-1.3393-21.571 1.0401q-0.56991 0.342-1.2253 0.3277-5.9841-0.1-11.925 0.4559-0.057 0.014-0.057 0.071 0 0.029 0 0.086a0.11398 0.12823 86.8 0 0 0.14248 0.114c10.173-0.2849 18.351 1.6243 25.96 0.9831q0.21372-0.014 0.11399 0.171l-0.19947 0.3847q-0.18523 0.3419 0.19947 0.2849l2.8496-0.4417q1.0971-0.1709 0.27071 0.5842c-0.44169 0.3989-1.2253 0.7266-1.895 0.7552q-6.383 0.3134-12.025 3.2485-0.3562 0.1852-0.15673 0.5271l0.24221 0.4132a0.52717 0.51292 78.3 0 1-0.51293 0.7836q-4.5736-0.6126-7.7508 2.3794-0.51291 0.4845-1.1826 0.3562-4.0606-0.7551-5.6421 2.6359-0.3847 0.8121 0.52716 0.8121h1.0543q0.56992 0 0.17098 0.3989l-5.6849 5.7562a1.3108 1.3393 29.6 0 1-1.2396 0.3562q-2.4649-0.5984-3.8896 1.1398-0.4417 0.5414-1.0971 0.8264c-2.4506 1.0686-4.2031 1.5245-6.0268 3.6474q-2.6644 3.1203-5.3572 6.2833-0.54142 0.6412-1.3678 0.4702-3.8896-0.7694-5.7134 2.9208a1.4105 1.4248 2.7 0 1-0.74089 0.6839q-2.5931 1.0543-3.2912 3.8754a0.81213 0.81213 0 0 0 0.82637 0.9973l6.668-0.3846q0.66964-0.029 0.38469 0.5841-2.8638 6.1836-3.4907 13.022a0.91186 0.89761 13.9 0 0 0.55566 0.9119q4.3883 1.8522 8.1925 4.2601 0.47018 0.2992-0.94036 0.8976l-341.22-0.014q-0.92611-0.5414-0.84063-0.9546a1.2396 1.5958 8 0 1 1.2823-1.2396l201.36-0.2992a0.27133 0.25705 48.4 0 0 0.0286-0.5271c-5.7419-0.7409-6.953-8.6342-4.4453-12.552q0.34195-0.5272-0.24222-0.7694l-11.612-4.83q-0.66964-0.2707-0.66964-0.9973v-0.6554q0-0.3277-0.31346-0.4417l-5.7276-2.1799q-0.76938-0.285-0.0997-0.7694l0.69814-0.5272q0.99735-0.7266-0.24221-0.7694-2.1087-0.057-2.9636-1.7382-0.28496-0.5842 0.18523-1.0401l2.9208-2.7213q0.58417-0.5699 1.3963-0.4132l13.065 2.4364q1.2396 0.2279 0.38468-0.6982-2.0232-2.1942-4.8015-3.0063-0.45593-0.1282-0.12823-0.4702l1.838-1.8237a0.86912 0.91186 27.8 0 1 0.76938-0.2564l11.498 1.9234q0.22796 0.043 0.39894-0.1282 0.14248-0.1425 0.37044-0.114 4.944 0.7694 10.002 0.9974 1.3536 0.057 0.22797-0.6839l-2.7356-1.838q-0.7124-0.4844-0.0997-1.0971l0.3277-0.3277q0.6839-0.6839-0.22796-1.0116l-4.4026-1.5673a0.48443 0.48443 0 0 1-0.18523-0.7978l0.59841-0.5984q0.3277-0.3277-0.11399-0.4702l-3.7044-1.2111q-0.69816-0.228-0.17098-0.7409l0.37044-0.3847a0.42744 0.42744 0 0 0-0.22797-0.7124l-11.826-2.0801q-0.69814-0.114-0.19946-0.627l0.35619-0.3561q0.41318-0.4132-0.15673-0.456l-4.5878-0.3989a0.19947 0.21372 32.4 0 1-0.0855-0.3847l0.47018-0.285a0.24221 0.24221 0 0 0-0.0997-0.4559l-3.6474-0.2707q-0.42745-0.029-0.42745-0.4559v-0.5557q0-0.1995-0.18522-0.1995-26.586-0.8121-53.045-3.1345c-4.4738-0.3847-9.2326 1.0401-14.291-0.029q-0.34195-0.071 0-0.171 0.24221-0.085 0.48442-0.1709a0.10201 0.10201 0 0 0-0.0427-0.1995c-5.229 0.1852-10.529-1.3536-14.547-1.9662-16.47-2.5219-28.268-2.7213-47.588-3.1345q-1.0116-0.014-1.7382-0.4132-1.8095-0.9689-0.9831-1.6528z" fill="#0f77de" stroke-width="1.4248"/>
<path d="m721.3 422.17q16.414-0.6269 31.701 0.7267 16.542 2.5076 21.115 4.4453 11.341 4.7873 18.351 16.499 3.3197 6.2405 2.1942 12.396c-4.5023 24.578-23.21 30.034-44.895 29.892q-60.169-0.4275-120.38-0.2993 1.4105-0.5984 0.94036-0.8976-3.8042-2.4078-8.1925-4.2601a0.91186 0.89761 13.9 0 1-0.55566-0.9118q0.6269-6.839 3.4907-13.022 0.28495-0.6127-0.38469-0.5842l-6.668 0.3847a0.81213 0.81213 0 0 1-0.82637-0.9974q0.69813-2.821 3.2912-3.8754a1.4105 1.4248 2.7 0 0 0.74089-0.6839q1.8237-3.6902 5.7134-2.9208 0.82638 0.171 1.3678-0.4702 2.6928-3.163 5.3572-6.2833c1.8237-2.1229 3.5762-2.5788 6.0268-3.6474q0.65539-0.285 1.0971-0.8264 1.4248-1.7382 3.8896-1.1398a1.3108 1.3393 29.6 0 0 1.2396-0.3562l5.6849-5.7561q0.39894-0.399-0.17098-0.399h-1.0543q-0.91186 0-0.52716-0.8121 1.5815-3.391 5.6421-2.6358 0.66966 0.1282 1.1826-0.3562 3.1773-2.9921 7.7508-2.3794a0.52717 0.51292 78.3 0 0 0.51293-0.7837l-0.2422-0.4131q-0.19948-0.342 0.15672-0.5272 5.6421-2.9351 12.025-3.2485c0.66965-0.029 1.4533-0.3562 1.895-0.7552q0.82638-0.7551-0.27071-0.5841l-2.8496 0.4417q-0.3847 0.057-0.19947-0.285l0.19947-0.3847q0.0997-0.1852-0.11399-0.171c-7.6083 0.6412-15.787-1.268-25.96-0.9831a0.11398 0.12823 86.8 0 1-0.14248-0.1139q0-0.057 0-0.086 0-0.057 0.057-0.071 5.9413-0.5557 11.925-0.456 0.6554 0.014 1.2253-0.3277c4.1604-2.3794 16.698-1.5102 21.571-1.0401q0.69815 0.057 1.2966 0.4417 2.0374 1.3393 4.0749 0.9546c11.242-2.0802 19.021-1.6955 29.45-1.4248q0.68389 0.014 1.2538-0.3562z" fill="#128be6" stroke-width="1.4248"/>
<path d="m753 422.89c14.974-0.8834 34.537 5.3571 39.467 20.944q-7.0099-11.712-18.351-16.499-4.5736-1.9377-21.115-4.4453z" fill="#023dc1" stroke-width="1.4248"/>
<path d="m987.36 573.74-14.234 19.819q-0.44175 0.5984-0.35623 1.3251 2.123 18.28 1.781 35.434c-6.6965-0.342-13.365-0.3847-19.918-1.1969q-35.377-4.4168-71.724-7.1809 0.17094-0.5129 0.34196-1.0116 9.3609-3.2057 2.9066-15.815-2.2227-4.3456-2.2369-7.6938 0-0.7694-0.48445-1.382l-5.5994-7.0385a1.2823 1.2966 28.7 0 1-0.27062-0.9403c0.95453-7.8363-2.7926-11.284-5.628-17.026-3.106-6.269-9.5318-17.511-16.143-20.46a0.12823 0.12823 0 0 0-0.17093 0.1852l0.24218 0.4275q0.0569 0.114-0.0713 0.1424l-0.48435 0.057q-0.11405 0.014-0.19947-0.071-3.6617-4.1888-9.1899-5.4141-0.66966-0.1425-1.0686-0.7124c-1.6384-2.2939-4.5166-5.4712-4.1604-8.3778q0.0713-0.5699-0.47019-0.7694l-1.0259-0.3846c21.557-7.2522 40.777-17.71 55.88-34.993l0.84058 0.1709q0.32778 0.071 0.32778 0.4132v0.399a0.41319 0.41319 0 0 0 0.5984 0.3562l3.9466-1.9662a1.4533 1.439 45.3 0 1 1.3108 0.014c4.8015 2.5361 12.039 3.5049 12.339 10.016q0.0145 0.3562 0.3704 0.3562h0.56995q0.0997 0 0.17094 0.085 4.1746 5.4997 7.5514 11.498c3.0348 5.3714 0.35622 11.37 9.3751 11.854q0.68381 0.029 1.1825 0.5129c3.5334 3.4907 5.9984 7.7508 9.5318 10.828 2.6359 2.2796 5.0153 3.9039 6.9387 6.9387 4.9012 7.708 11.071 14.832 14.561 23.01q2.4649 5.7847 4.6164 11.754a0.91186 0.91186 0 0 0 1.268 0.5129q3.6902-1.9234 5.0295-1.7525 0.61267 0.086 1.0401-0.3704z" fill="#21ace0" stroke-width="1.4248"/>
<path d="m494.03 543.47 9.0331 0.4132q0.62691 0.028 0.79788 0.6126 1.2538 4.2174-2.5931 4.5166-0.79787 0.071-0.76938 0.8691l0.48444 14.675a0.61266 0.6269 24.3 0 0 0.14248 0.3989q1.4675 1.8522-0.72664 2.5931-0.88338 0.2992-0.49868 1.1399l2.1087 4.5878q0.27071 0.6126-0.17096 1.097-1.6812 1.838-4.0749 1.9805-1.1541 0.057-1.0401 1.2111l0.61264 6.7819q0.0997 1.1399 1.2538 1.1114 6.0838-0.171 6.497 5.4284 0.0427 0.7266 0.75515 0.8834c5.4569 1.1825 10.6 2.6216 9.8595 8.9618q-0.0997 0.8264 0.72664 0.8549l1.8807 0.057a0.085794 0.085794 0 0 1 0.0142 0.171q-0.19946 0.071-0.41317 0.1425-0.47018 0.1282-0.0712 0.4274l2.9493 2.1372a0.66965 0.66965 0 0 1-0.057 1.1255q-5.5424 3.1488-2.8781 8.8195a0.9831 0.9831 0 0 1-0.18522 1.097l-0.51293 0.4987a0.84062 0.84062 0 0 0 0.22797 1.3536l1.8522 0.9118q0.98311 0.4702-0.0427 0.8691-1.0828 0.4275-0.9261 0.9546l-341.58 0.399-9.3751-1.5245a0.19947 0.15673 6.1 0 1-0.17098-0.1568q0-0.043 0-0.1t0-0.057l4.8443-0.028q1.2823 0 0.15673-0.5984c-6.611-3.5477-1.9235-9.717-3.3482-15.701a1.0401 1.0258 82.8 0 0-0.99736-0.7836h-0.68389q-0.3562 0-0.5984-0.2565c-1.952-2.1514 0-4.5878 0.37043-6.4115q1.382-7.0527 3.106-14.063 0.17096-0.6839 0.79787-1.0116l2.3224-1.2253q0.59842-0.3135 0.58416-0.9831l-0.3277-20.987q0-0.6554-0.66964-0.6554h-0.96885q-0.65541 0-0.69814-0.6554-0.19948-2.8068-1.1683-5.3857-0.37045-0.9831 0.45593-1.9377 0.45593-0.5414 0.41318-1.2538l-0.69814-11.498a0.9831 0.96885 20.7 0 0-0.28496-0.6127q-0.91187-0.8548-0.49867-2.2084 0.19947-0.6839 0.85487-0.4132c27.199 11.455 53.771 10.33 82.566 10.914 68.162 1.382 130.87 0.4987 196.25 0.2137 12.909-0.057 30.049 0.6554 45.109 0.2992z" fill="#186df1" stroke-width="1.4248"/>
<path d="m839.2 535.65 1.0259 0.3847q0.54142 0.1995 0.47017 0.7694c-0.35622 2.9066 2.5219 6.0838 4.1604 8.3777q0.39894 0.5699 1.0686 0.7124 5.5282 1.2253 9.1899 5.4142 0.0858 0.086 0.19947 0.071l0.48435-0.057q0.12822-0.028 0.0713-0.1425l-0.24218-0.4274a0.12823 0.12823 0 0 1 0.17093-0.1852c6.611 2.9493 13.037 14.191 16.143 20.46 2.8353 5.7418 6.5825 9.1898 5.628 17.026a1.2823 1.2966 28.7 0 0 0.2706 0.9404l5.5994 7.0384q0.48444 0.6127 0.48444 1.3821 0.0145 3.3482 2.2369 7.6938 6.4543 12.609-2.9066 15.815l-175.82-0.3705c-19.534-3.1345-39.139 0.5699-58.487-3.1487q-1.1398-0.2138-0.057-0.6554l1.7097-0.6839q0.59842-0.228 0.91187-0.7979 0.45593-0.8406 0.47019-1.8522c0.057-5.286 3.5762-6.1836 6.326-8.9334q4.2886-4.2744 7.1952-4.8015 11.327-2.0517 18.308-10.771c5.1007-6.3688 10.572-12.396 16.072-18.408 1.2966-1.4105 2.9778-2.7498 3.0206-4.7445q0.0997-4.4596-2.7783-8.164-0.35619-0.456-0.0855-0.9831l6.0268-11.698a1.2253 1.2253 0 0 1 1.0401-0.6697c2.5646-0.1 5.0295-1.1256 7.3091-1.2253 13.393-0.6696 26.757 0.6554 40.008-0.1282q14.447-0.8549 26.444-0.1567 13.949 0.7978 25.803-1.6243 16.342-1.4533 32.528-5.4569z" fill="#1696e0" stroke-width="1.4248"/>
<path d="m806.67 541.11q-11.854 2.4222-25.803 1.6243-11.997-0.6981-26.444 0.1567c-13.25 0.7837-26.615-0.5414-40.008 0.1283-2.2797 0.1-4.7445 1.1255-7.3091 1.2253a1.2253 1.2253 0 0 0-1.0401 0.6696l-6.0268 11.698q-0.27071 0.5272 0.0855 0.9831 2.8781 3.7044 2.7783 8.164c-0.0427 1.9947-1.724 3.334-3.0205 4.7445-5.4997 6.0126-10.971 12.04-16.072 18.408q-6.9814 8.7197-18.308 10.771-2.9066 0.5272-7.1952 4.8015c-2.7498 2.7499-6.2691 3.6475-6.326 8.9334q-0.0142 1.0116-0.47018 1.8522-0.31346 0.57-0.91187 0.7979l-1.7097 0.6839q-1.0828 0.4417 0.057 0.6554c19.349 3.7187 38.954 0.014 58.487 3.1488l-189.17-0.399q-0.15673-0.5271 0.9261-0.9546 1.0258-0.3989 0.0427-0.8691l-1.8522-0.9118a0.84062 0.84062 0 0 1-0.22797-1.3536l0.51293-0.4987a0.9831 0.9831 0 0 0 0.18522-1.097q-2.6644-5.6707 2.8781-8.8195a0.66965 0.66965 0 0 0 0.057-1.1255l-2.9493-2.1372q-0.39893-0.2992 0.0712-0.4274 0.21371-0.071 0.41317-0.1425a0.085794 0.085794 0 0 0-0.0142-0.171l-1.8807-0.057q-0.82638-0.029-0.72665-0.8549c0.7409-6.3402-4.4026-7.7793-9.8595-8.9619q-0.7124-0.1567-0.75515-0.8833-0.41318-5.5994-6.497-5.4284-1.1541 0.029-1.2538-1.1114l-0.61264-6.7819q-0.114-1.1541 1.0401-1.2111 2.3936-0.1425 4.0749-1.9805 0.44168-0.4844 0.17097-1.097l-2.1087-4.5878q-0.3847-0.8407 0.49868-1.1399 2.1942-0.7409 0.72664-2.5931a0.61266 0.6269 24.3 0 1-0.14244-0.3989l-0.48447-14.675q-0.0285-0.7979 0.76938-0.8691 3.8469-0.2992 2.5931-4.5166-0.17097-0.5841-0.79788-0.6126l-9.0331-0.4132 209.9 0.1q0.82638 0 0.47018-0.7409-0.29919-0.6697-1.268-1.0686z" fill="#0f77de" stroke-width="1.4248"/>
<path d="m176.69 620.55 341.58-0.399 364.99 0.7694q-0.17102 0.4987-0.34196 1.0116-14.832 36.617-53.942 51.549-12.31 4.3028-25.062 6.0126-15.929 1.8095-41.917 1.838-267.86 0.2422-535.72-0.7124-3.5477-0.014-7.2379-0.057-35.506-3.5905-61.137-28.467-12.011-13.108-19.263-29.55-0.52717-0.5699-0.71239-1.2396-0.22797-0.7551 0.56991-0.7551z" fill="#fff" stroke-width="1.4248"/>
<path d="m882.91 621.94q36.346 2.7641 71.724 7.1809c6.5539 0.8122 13.222 0.8549 19.918 1.1969-3.0918 29.251-10.871 59.356-26.216 84.646q-34.252 56.464-97.74 77.352-0.28498-1.9377 0.71235-2.3224a0.18522 0.18522 0 0 1 0.25644 0.114q0.0713 0.1995 0.12823 0.3847 0.0998 0.285 0.32779 0.085 2.0943-1.8095 0.27071-3.4479-0.54143-0.4845-0.68392-1.2111-2.0517-10.486-1.4675-14.86 0.85484-6.44 0.45591-9.6458-0.0858-0.6981 0.14249-1.3678 3.7472-10.387 1.6527-21.343-0.0569-0.3135-0.38466-0.3135-0.19948 0-0.41321 0-0.54142 0.014-0.75515-0.4987c-4.9725-11.854-5.0437-24.122-10.586-35.335a2.0374 2.0659 34 0 1-0.19947-1.0543q0.27071-4.0037-1.6385-7.4659-0.32768-0.5984 0.12823-1.0971 2.1514-2.3936 1.553-5.5851a1.7097 1.6955 7.2 0 0-0.98306-1.2538c-7.3376-3.3483-5.2432-8.905-10.144-12.609q39.11-14.932 53.942-51.549z" fill="#41cce3" stroke-width="1.4248"/>
<path d="m138.63 622.55q7.2521 16.442 19.263 29.55-0.19947 0.4844-0.54142 0.6839-0.65541 0.4132-1.1826-0.171-11.612-12.738-18.394-28.581-0.2992-0.6839 0.3277-1.1256z" fill="#21ace0" stroke-width="1.4248"/>
<path d="m214.47 681.55-0.99735 0.2992a1.2111 1.2111 0 0 0-0.39893 2.1087q2.1799 1.7239 2.1229 4.5593a0.92611 0.94036 0.5 0 1-0.91187 0.9118q-3.0348 0.043-2.4506 3.22c1.0828 6.0411 1.667 12.068 2.9066 18.123q0.14247 0.6981-0.22796 1.325-5.6421 9.4606-3.277 19.904c1.5673 6.9387 0.88336 13.364 1.439 20.275 0.2992 3.8612 1.7952 8.278 2.1799 12.609q0.0427 0.5841 0.56991 0.8548c4.3741 2.3082 4.4738 6.3688 3.7044 10.786q-0.12824 0.7267 0.18521 1.3963l0.47018 1.0116q0.32771 0.6839-0.38468 0.9546c-1.5245 0.5842-5.9556 0.6697-6.5255 1.0401q-0.27071 0.171-0.39894 0.4275-0.25645 0.4986-0.81212 0.4416-2.2939-0.2564-3.0348 1.2254-20.175-0.1995-40.421-5.286 2.3082-2.0232 0.96886-2.7926-0.3277-0.1994-0.61266-0.2279-0.2992-0.043-0.48442-0.285l-2.7213-3.277q-0.41319-0.4987-0.14248-1.0828 1.0258-2.2654 3.4337-2.5646 0.86911-0.114 0.55566-0.9404c-2.4506-6.3688-6.4258-11.997-7.1667-19.206-0.69814-6.8959 1.0259-14.989 1.553-22.184 0.34194-4.6448 4.3456-15.616 3.3055-18.964q-0.21371-0.6697 0.21372-1.2396 4.0749-5.5851 4.9582-12.652 0.24222-1.9377-2.4649-6.1408a0.41319 0.41319 0 0 0-0.75513 0.171l-0.0855 0.6269a0.12905 0.12905 0 0 1-0.25646 0.029q-0.7409-2.2939-1.2253-4.6163c-0.66965-3.1345 0.68391-5.6706-1.1256-9.2611a1.5673 1.5388 43 0 1-0.057-1.2681q1.496-3.6901-0.58416-7.3091a0.59841 0.59841 0 0 1 0.69814-0.8691q0.89761 0.2849 1.6812-0.086 0.76939-0.3562 1.4675 0.1425 20.146 14.789 45.109 17.81z" fill="#0f77de" stroke-width="1.4248"/>
<path d="m828.97 673.48c4.9012 3.7044 2.8068 9.2611 10.144 12.609a1.7097 1.6955 7.2 0 1 0.98306 1.2538q0.5984 3.1916-1.553 5.5852-0.45591 0.4987-0.12823 1.0971 1.9092 3.4622 1.6385 7.4658a2.0374 2.0659 34 0 0 0.19947 1.0544c5.5424 11.213 5.6136 23.48 10.586 35.335q0.21373 0.5129 0.75515 0.4987 0.21373 0 0.41321 0 0.32769 0 0.38466 0.3134 2.0944 10.957-1.6527 21.343-0.228 0.6696-0.14249 1.3678 0.39893 3.2058-0.45591 9.6458-0.58423 4.3741 1.4675 14.86 0.14249 0.7266 0.68392 1.211 1.8236 1.6385-0.27071 3.448-0.22801 0.1995-0.32779-0.085-0.0569-0.1852-0.12823-0.3847a0.18522 0.18522 0 0 0-0.25644-0.114q-0.99733 0.3847-0.71235 2.3224c-35.691 10.985-76.881 10.757-111.13 3.7757-15.573-3.163-42.872-12.567-65.198-12.111q1.2253-0.4559 2.7926-0.3704 1.0401 0.071 0.14248-0.4702l-0.51292-0.2992q-0.61266-0.3704-0.14249-0.9118c1.7382-2.009 2.5646-4.1319 4.6163-5.8559q9.5603-8.0928 12.296-20.631c0.52718-2.3651-0.22796-3.7044 0.58416-6.0126 2.009-5.7276 4.2459-10.7 4.716-16.898q1.2396-16.328 4.2316-32.457 0.14248-0.7693 0.64116-1.3535l4.3883-5.058q0.44168-0.5129 1.1113-0.5129h0.41318a0.17159 0.17159 0 0 0 0.0285-0.342q-0.35619-0.043-0.71239-0.071-0.74089-0.057-0.3847-0.7124l1.9092-3.6047a1.5673 1.5815 7 0 1 0.99736-0.7836q1.9804-0.4987 2.4649-2.3651 0.18523-0.6839 0.85487-0.8976 6.0696-1.9235 12.652-1.781c17.368-0.3705 34.437-0.3277 51.762-0.1995 8.9761 0.071 17.753-1.0543 26.601-2.0517a0.25646 0.25646 0 0 0 0.12823-0.4559q-0.52717-0.4275-1.9377-0.3847 12.752-1.7098 25.062-6.0126z" fill="#21ace0" stroke-width="1.4248"/>
<path d="m803.91 679.5q1.4105-0.043 1.9377 0.3847a0.25646 0.25646 0 0 1-0.12823 0.4559c-8.8479 0.9974-17.625 2.1229-26.601 2.0517-17.325-0.1282-34.394-0.171-51.762 0.1995q-19.947-0.285-39.894 0c-29.721 0.3989-59.47-0.4132-89.206-0.4845-4.1319-0.014-9.603 0.6697-14.718 0.5272q-25.432-0.6412-57.433 0.014-142.29-0.5129-284.6 0.1425c-7.3804 0.043-15.188-0.5272-22.782-0.7551q0.057-0.342-0.29921-0.6697-0.48442-0.4132 0.12823-0.6269l0.48443-0.171q3.6902 0.043 7.2379 0.057 267.86 0.9546 535.72 0.7124 25.988-0.029 41.917-1.838z" fill="#023dc1" stroke-width="1.4248"/>
<path d="m214.47 681.55 4.2459 0.4844c7.5941 0.228 15.402 0.7979 22.782 0.7551q142.31-0.6554 284.6-0.1424l1.3963 0.2137q1.6528 0.2564 0.0285 0.6411c-3.7044 0.8406-10.486-2.4506-10.002 4.3171q0.3847 5.058-0.95461 10.016-0.21371 0.8122 0.3847 1.3821l7.9075 7.6511q0.54142 0.5129 0.54142 1.2395c0 2.5931-2.1372 6.9245 1.1113 8.1071q0.66965 0.2422 0.66965 0.9403c0.0284 4.3598 1.5673 8.0358 1.1968 12.21-0.48443 5.5424-0.62691 12.253-3.049 17.283q-0.2707 0.5557-0.84063 0.7979-2.3936 1.0259-3.9466 3.163-0.2992 0.4132-0.0427 0.8407l0.25647 0.4274a2.0232 2.1087 34.1 0 1 0.24221 1.4248c-0.52717 2.6501-0.38469 4.944-1.0258 7.6368-0.86911 3.6475-0.82638 7.4801 0.41319 11.085 0.95461 2.7641-3.8612 5.7134-5.6706 7.5086q-0.84063 0.8122 0.31346 0.9974l3.22 0.4844q0.76937 0.114 0.057 0.4275l-5.8844 2.5503c-101.17-0.114-202.56 0.5557-303.79-0.9688q0.7409-1.4818 3.0348-1.2254 0.55566 0.057 0.81212-0.4416 0.12823-0.2565 0.39893-0.4275c0.56993-0.3704 5.001-0.4559 6.5255-1.0401q0.71239-0.2707 0.38468-0.9546l-0.47018-1.0116q-0.31345-0.6696-0.18521-1.3963c0.76937-4.4168 0.66964-8.4774-3.7044-10.786q-0.52717-0.2707-0.56991-0.8548c-0.38469-4.3314-1.8807-8.7482-2.1799-12.609-0.55566-6.9102 0.12823-13.336-1.439-20.275q-2.3651-10.444 3.277-19.904 0.37044-0.6269 0.22797-1.325c-1.2396-6.0554-1.8237-12.082-2.9066-18.123q-0.58416-3.1772 2.4506-3.22a0.92611 0.94036 0.5 0 0 0.91187-0.9118q0.057-2.8354-2.1229-4.5593a1.2111 1.2111 0 0 1 0.39893-2.1087z" fill="#186df1" stroke-width="1.4248"/>
<path d="m727.35 682.59q-6.5825-0.1425-12.652 1.7809-0.66965 0.2138-0.85487 0.8977-0.48444 1.8664-2.4649 2.3651a1.5673 1.5815 7 0 0-0.99735 0.7836l-1.9092 3.6047q-0.3562 0.6554 0.38469 0.7124 0.3562 0.029 0.71239 0.071a0.17159 0.17159 0 0 1-0.0285 0.342h-0.41318q-0.66965 0-1.1113 0.5129l-4.3883 5.058q-0.49868 0.5841-0.64116 1.3535-2.992 16.129-4.2316 32.457c-0.47018 6.1978-2.7071 11.17-4.716 16.898-0.81213 2.3082-0.057 3.6475-0.58416 6.0126q-2.7356 12.538-12.296 20.631c-2.0517 1.724-2.8781 3.8469-4.6163 5.8558q-0.47018 0.5415 0.14248 0.9119l0.51293 0.2992q0.8976 0.5414-0.14249 0.4702-1.5673-0.086-2.7926 0.3704l-161.84 0.014 5.8844-2.5503q0.71239-0.3135-0.057-0.4275l-3.22-0.4844q-1.1541-0.1852-0.31346-0.9974c1.8095-1.7952 6.6252-4.7445 5.6706-7.5086-1.2396-3.6047-1.2823-7.4374-0.4132-11.085 0.64116-2.6928 0.49868-4.9867 1.0258-7.6368a2.0232 2.1087 34.1 0 0-0.24221-1.4248l-0.25647-0.4275q-0.25645-0.4274 0.0427-0.8406 1.553-2.1372 3.9467-3.163 0.56992-0.2422 0.84062-0.7979c2.4221-5.0295 2.5646-11.74 3.049-17.283 0.37044-4.1746-1.1683-7.8506-1.1968-12.21q0-0.6981-0.66966-0.9404c-3.2485-1.1825-1.1113-5.5139-1.1113-8.107q0-0.7266-0.54142-1.2395l-7.9075-7.6511q-0.59841-0.5699-0.38469-1.3821 1.3393-4.9582 0.9546-10.016c-0.48442-6.7677 6.2975-3.4765 10.002-4.3171q1.6242-0.3847-0.0285-0.6411l-1.3963-0.2138q32.001-0.6554 57.433-0.014c5.115 0.1425 10.586-0.5414 14.718-0.5271 29.735 0.071 59.485 0.8833 89.206 0.4844q19.947-0.285 39.894 0z" fill="#128be6" stroke-width="1.4248"/>
</g>
</svg>
