<?xml version="1.0" encoding="UTF-8" standalone="no"?>
<!-- Created with Inkscape (http://www.inkscape.org/) -->

<svg
   width="210mm"
   height="297mm"
   viewBox="0 0 210 297"
   version="1.1"
   id="svg1"
   inkscape:version="1.3 (0e150ed6c4, 2023-07-21)"
   sodipodi:docname="cloud.svg"
   xmlns:inkscape="http://www.inkscape.org/namespaces/inkscape"
   xmlns:sodipodi="http://sodipodi.sourceforge.net/DTD/sodipodi-0.dtd"
   xmlns:xlink="http://www.w3.org/1999/xlink"
   xmlns="http://www.w3.org/2000/svg"
   xmlns:svg="http://www.w3.org/2000/svg">
  <sodipodi:namedview
     id="namedview1"
     pagecolor="#505050"
     bordercolor="#eeeeee"
     borderopacity="1"
     inkscape:showpageshadow="0"
     inkscape:pageopacity="0"
     inkscape:pagecheckerboard="0"
     inkscape:deskcolor="#505050"
     inkscape:document-units="mm"
     inkscape:zoom="0.46992642"
     inkscape:cx="287.27902"
     inkscape:cy="697.98161"
     inkscape:window-width="1920"
     inkscape:window-height="946"
     inkscape:window-x="0"
     inkscape:window-y="0"
     inkscape:window-maximized="1"
     inkscape:current-layer="layer1" />
  <defs
     id="defs1">
    <linearGradient
       id="linearGradient73"
       inkscape:collect="always">
      <stop
         style="stop-color:#0077ff;stop-opacity:1;"
         offset="0"
         id="stop74" />
      <stop
         style="stop-color:#88c5ff;stop-opacity:1;"
         offset="1"
         id="stop75" />
    </linearGradient>
    <linearGradient
       id="swatch60"
       inkscape:swatch="solid">
      <stop
         style="stop-color:#000000;stop-opacity:1;"
         offset="0"
         id="stop60" />
    </linearGradient>
    <linearGradient
       id="swatch55"
       inkscape:swatch="solid">
      <stop
         style="stop-color:#0100e6;stop-opacity:1;"
         offset="0"
         id="stop56" />
    </linearGradient>
    <linearGradient
       id="swatch50"
       inkscape:swatch="solid">
      <stop
         style="stop-color:#000000;stop-opacity:1;"
         offset="0"
         id="stop51" />
    </linearGradient>
    <linearGradient
       id="swatch30"
       inkscape:swatch="solid">
      <stop
         style="stop-color:#000000;stop-opacity:1;"
         offset="0"
         id="stop31" />
    </linearGradient>
    <linearGradient
       id="swatch25"
       inkscape:swatch="solid">
      <stop
         style="stop-color:#000000;stop-opacity:1;"
         offset="0"
         id="stop26" />
    </linearGradient>
    <linearGradient
       id="swatch11"
       inkscape:swatch="solid">
      <stop
         style="stop-color:#17c1be;stop-opacity:1;"
         offset="0"
         id="stop12" />
    </linearGradient>
    <linearGradient
       inkscape:collect="always"
       xlink:href="#linearGradient73"
       id="linearGradient75"
       x1="103.12375"
       y1="411.59996"
       x2="695.7465"
       y2="411.59996"
       gradientUnits="userSpaceOnUse"
       gradientTransform="matrix(0.26458333,0,0,0.26458333,-0.68387692,39.59751)" />
  </defs>
  <g
     inkscape:label="Camada 1"
     inkscape:groupmode="layer"
     id="layer1">
    <path
       style="display:inline;opacity:1;fill:url(#linearGradient75);fill-opacity:1;fill-rule:nonzero;stroke-width:1.082;stroke-dasharray:none;stroke:#000000;stroke-opacity:1"
       d="m 57.73063,196.95676 c -10.244402,-1.23602 -19.789497,-7.30685 -25.483399,-16.20786 -7.404982,-11.57584 -7.537349,-26.90208 -0.332185,-38.46229 1.719122,-2.75822 2.618483,-3.87536 5.318276,-6.60607 2.785549,-2.81744 5.742284,-4.97542 9.095922,-6.63868 5.640748,-2.79756 9.114528,-3.55265 17.382368,-3.77839 l 6.121739,-0.16715 1.282409,-2.41067 c 0.705324,-1.32587 2.004364,-3.42849 2.886763,-4.67247 2.129922,-3.00273 7.200672,-8.03877 10.26864,-10.19833 5.267005,-3.7075 11.723113,-6.37372 18.054247,-7.45599 4.69763,-0.803036 11.82745,-0.617757 16.21261,0.42131 8.5171,2.01813 15.1016,5.68852 21.26909,11.85601 7.55631,7.55631 12.03263,17.05546 12.9569,27.4957 l 0.18986,2.14464 4.11689,0.14868 c 3.33703,0.12053 4.59683,0.29073 6.65053,0.89851 9.47566,2.80426 16.44395,9.96832 19.0427,19.57768 0.55601,2.05596 0.6453,3.04689 0.63419,7.03789 -0.0118,4.22047 -0.0828,4.87657 -0.77678,7.17865 -2.90121,9.62321 -10.22277,16.84639 -19.6039,19.34049 l -2.39289,0.63619 -50.53206,0.0415 c -27.792636,0.0228 -51.355501,-0.0579 -52.36192,-0.17931 z"
       id="path3" />
  </g>
</svg>
