<?xml version="1.0" encoding="UTF-8" standalone="no"?>
<svg xmlns="http://www.w3.org/2000/svg" version="1.2" baseProfile="tiny" viewBox="0.00 0.00 112.00 112.00">
<g stroke-width="2.00" fill="none" stroke-linecap="butt">
<path stroke="#de967f" vector-effect="non-scaling-stroke" d="
  M 55.34 0.60
  Q 51.59 2.17 47.38 1.48"
/>
<path stroke="#de967f" vector-effect="non-scaling-stroke" d="
  M 66.18 1.81
  L 67.78 4.59
  Q 68.03 5.02 68.53 5.01
  Q 71.10 4.97 71.77 5.20
  C 81.80 8.52 88.62 10.22 95.76 18.32"
/>
<path stroke="#f1a38f" vector-effect="non-scaling-stroke" d="
  M 95.76 18.32
  Q 96.71 19.57 96.86 21.14
  A 1.12 1.12 0.0 0 1 95.69 22.36
  Q 84.33 21.86 73.00 23.07
  Q 72.59 23.12 72.47 22.72
  L 71.53 19.64"
/>
<path stroke="#d78975" vector-effect="non-scaling-stroke" d="
  M 71.53 19.64
  L 71.29 14.55"
/>
<path stroke="#f1a38f" vector-effect="non-scaling-stroke" d="
  M 71.29 14.55
  Q 71.78 13.65 71.13 12.21
  Q 70.96 11.84 70.56 11.83
  L 59.42 11.53
  Q 58.93 11.52 58.61 11.90
  Q 57.34 13.40 55.31 12.97
  Q 54.79 12.86 54.34 13.15
  Q 50.57 15.69 47.34 15.14
  Q 45.59 14.84 44.41 15.25
  C 41.50 16.27 38.52 16.62 35.50 17.18
  Q 35.00 17.27 34.64 17.62
  Q 33.20 19.01 31.29 18.28"
/>
<path stroke="#ea9e86" vector-effect="non-scaling-stroke" d="
  M 31.29 18.28
  L 31.28 12.25
  Q 31.27 11.76 31.77 11.75
  L 42.06 11.68
  A 0.55 0.54 -88.3 0 0 42.60 11.16
  L 43.02 2.83"
/>
<path stroke="#e08d78" vector-effect="non-scaling-stroke" d="
  M 31.29 18.28
  L 31.23 18.73
  Q 31.14 19.35 31.76 19.24
  C 36.68 18.37 41.14 16.36 45.95 16.10
  Q 51.47 15.79 57.04 15.75"
/>
<path stroke="#c6735e" vector-effect="non-scaling-stroke" d="
  M 57.04 15.75
  C 54.80 16.16 50.84 15.01 50.53 18.16"
/>
<path stroke="#9d5d49" vector-effect="non-scaling-stroke" d="
  M 50.53 18.16
  L 33.97 22.50
  Q 33.41 22.64 33.02 22.23
  Q 32.60 21.79 31.84 22.05
  Q 31.30 22.24 31.30 22.82
  L 31.29 26.52"
/>
<path stroke="#dd9884" vector-effect="non-scaling-stroke" d="
  M 31.29 26.52
  Q 30.35 27.28 29.42 29.22
  A 1.43 1.43 0.0 0 0 30.27 31.19
  Q 35.75 32.95 40.00 29.41
  Q 40.36 29.11 40.83 29.07
  C 44.69 28.78 49.37 29.08 52.99 27.73
  Q 54.23 27.26 55.72 27.21"
/>
<path stroke="#cd8168" vector-effect="non-scaling-stroke" d="
  M 55.72 27.21
  Q 55.23 28.92 55.83 31.02
  Q 55.97 31.49 56.36 31.78
  C 59.08 33.72 61.71 32.62 64.34 34.09
  A 1.72 1.72 0.0 0 1 63.79 37.29
  Q 58.91 38.12 53.06 38.28
  C 50.62 38.34 48.56 37.04 45.96 37.06
  C 43.01 37.08 33.23 36.35 31.60 39.03
  A 2.06 2.05 27.8 0 1 29.00 39.83
  L 23.21 37.22
  A 0.39 0.34 48.9 0 0 22.99 37.19
  Q 19.47 37.53 16.05 36.53
  A 1.40 1.39 30.2 0 1 15.44 34.22
  L 21.13 28.37
  Q 21.36 28.14 21.26 27.83
  Q 21.16 27.48 21.46 27.21
  Q 26.97 22.34 25.60 15.29
  C 25.09 12.67 25.17 10.48 27.81 9.50
  Q 28.49 9.25 27.93 8.79
  L 26.77 7.86"
/>
<path stroke="#cd7866" vector-effect="non-scaling-stroke" d="
  M 71.29 14.55
  Q 63.98 16.19 57.04 15.75"
/>
<path stroke="#f1a38f" vector-effect="non-scaling-stroke" d="
  M 102.41 26.24
  Q 93.46 28.06 84.28 27.92
  Q 83.84 27.91 83.44 28.07
  L 78.82 29.88
  Q 78.36 30.06 78.15 30.50
  C 76.34 34.34 73.42 34.69 71.08 37.74"
/>
<path stroke="#905345" vector-effect="non-scaling-stroke" d="
  M 71.30 30.53
  L 71.23 24.05"
/>
<path stroke="#cd7866" vector-effect="non-scaling-stroke" d="
  M 71.53 19.64
  L 71.23 24.05"
/>
<path stroke="#76392b" vector-effect="non-scaling-stroke" d="
  M 71.23 24.05
  L 70.83 21.04"
/>
<path stroke="#8a4838" vector-effect="non-scaling-stroke" d="
  M 70.83 21.04
  Q 66.77 18.03 64.68 18.12
  Q 57.58 18.41 50.53 18.16"
/>
<path stroke="#d48670" vector-effect="non-scaling-stroke" d="
  M 96.94 18.51
  L 95.76 18.32"
/>
<path stroke="#d1917c" vector-effect="non-scaling-stroke" d="
  M 55.72 27.21
  L 57.55 23.47
  A 1.24 1.24 0.0 0 0 56.25 21.70
  Q 54.50 21.98 52.71 21.41"
/>
<path stroke="#915642" vector-effect="non-scaling-stroke" d="
  M 52.71 21.41
  Q 56.53 20.32 59.41 21.64
  A 1.49 1.49 0.0 0 1 59.95 23.92
  L 56.92 27.76
  A 2.33 2.32 -55.0 0 0 57.52 31.18
  Q 61.00 33.35 64.61 30.77"
/>
<path stroke="#7d4635" vector-effect="non-scaling-stroke" d="
  M 64.61 30.77
  L 71.30 30.53"
/>
<path stroke="#d48670" vector-effect="non-scaling-stroke" d="
  M 71.30 30.53
  L 71.08 37.74"
/>
<path stroke="#de967f" vector-effect="non-scaling-stroke" d="
  M 71.08 37.74
  Q 71.34 38.85 70.84 40.66"
/>
<path stroke="#d48670" vector-effect="non-scaling-stroke" d="
  M 70.84 40.66
  L 68.21 40.71"
/>
<path stroke="#ab654f" vector-effect="non-scaling-stroke" d="
  M 68.21 40.71
  Q 69.30 38.37 67.26 38.00
  Q 65.80 37.74 63.78 38.68
  Q 63.33 38.89 62.84 38.85
  C 59.27 38.56 56.22 39.92 52.90 39.67
  Q 46.39 39.20 39.89 39.26
  Q 39.28 39.26 39.09 39.84
  L 39.02 40.09
  A 0.58 0.57 12.8 0 0 39.50 40.84
  Q 50.47 42.20 61.52 41.26"
/>
<path stroke="#d48670" vector-effect="non-scaling-stroke" d="
  M 61.52 41.26
  Q 57.37 42.39 52.91 41.94
  A 1.08 1.08 0.0 0 0 52.02 42.25
  Q 47.46 46.76 41.15 47.54
  C 38.29 47.90 36.46 49.12 34.23 50.53
  A 1.05 1.05 0.0 0 0 34.78 52.47
  L 46.32 52.55"
/>
<path stroke="#ba6c56" vector-effect="non-scaling-stroke" d="
  M 46.32 52.55
  L 33.73 54.28"
/>
<path stroke="#ab654f" vector-effect="non-scaling-stroke" d="
  M 33.73 54.28
  C 31.58 53.82 30.11 53.57 28.09 52.38
  C 21.53 48.50 16.61 49.44 9.73 51.99
  C 6.03 53.36 5.42 56.90 8.74 59.19
  C 12.88 62.05 25.74 61.54 30.97 61.56
  C 34.08 61.58 36.61 62.73 39.37 63.90
  C 42.01 65.01 44.58 65.18 47.36 65.81
  C 49.55 66.30 51.78 67.67 54.81 68.14
  Q 56.45 68.40 57.30 70.25"
/>
<path stroke="#c46a5c" vector-effect="non-scaling-stroke" d="
  M 57.30 70.25
  L 57.26 70.91
  Q 57.23 71.36 57.68 71.43
  L 60.13 71.80
  Q 60.64 71.88 60.72 72.39
  L 61.48 77.55
  A 0.74 0.73 67.6 0 1 61.20 78.24
  Q 59.28 79.74 57.71 78.13
  Q 57.34 77.76 56.85 77.91
  C 53.32 78.98 50.03 77.62 46.77 76.75"
/>
<path stroke="#ba6c56" vector-effect="non-scaling-stroke" d="
  M 46.77 76.75
  C 43.12 73.13 35.58 67.39 29.53 66.29
  A 0.64 0.63 -78.0 0 0 28.80 66.77
  C 28.34 68.77 29.26 74.79 30.03 76.60
  C 31.59 80.26 35.82 80.20 32.71 85.71
  Q 30.89 88.95 27.47 88.81
  Q 26.98 88.79 26.56 89.05
  L 18.87 93.87"
/>
<path stroke="#cd8168" vector-effect="non-scaling-stroke" d="
  M 13.33 87.34
  Q 14.77 87.58 15.68 85.57
  A 0.91 0.89 10.0 0 1 16.46 85.04
  Q 24.79 84.59 26.15 75.72
  Q 26.80 71.49 23.98 69.29
  Q 23.53 68.94 23.21 68.45
  L 22.20 66.88
  Q 21.91 66.43 21.39 66.31
  C 16.61 65.22 8.63 63.13 4.46 64.36
  Q 3.97 64.50 3.91 65.01
  L 3.51 68.74"
/>
<path stroke="#4d2316" vector-effect="non-scaling-stroke" d="
  M 70.83 21.04
  Q 67.57 21.38 64.75 19.30
  A 0.91 0.91 0.0 0 0 63.45 19.53
  Q 60.54 23.89 58.61 28.62
  A 1.85 1.85 0.0 0 0 60.50 31.16
  L 64.61 30.77"
/>
<path stroke="#a16d5e" vector-effect="non-scaling-stroke" d="
  M 52.71 21.41
  C 49.32 21.70 45.98 21.42 42.77 22.37
  Q 36.90 24.12 31.29 26.52"
/>
<path stroke="#de967f" vector-effect="non-scaling-stroke" d="
  M 107.76 34.82
  Q 102.67 35.27 97.87 35.61
  Q 95.94 35.75 93.20 36.54
  C 90.66 37.28 88.00 37.27 85.47 38.60
  C 82.79 40.00 79.43 40.16 76.50 41.18"
/>
<path stroke="#f1a38f" vector-effect="non-scaling-stroke" d="
  M 76.50 41.18
  Q 72.16 43.01 70.84 40.66"
/>
<path stroke="#86483c" vector-effect="non-scaling-stroke" d="
  M 108.59 40.74
  Q 105.50 40.27 102.57 41.22
  Q 102.10 41.38 101.63 41.21
  Q 99.56 40.48 96.83 40.65
  Q 88.86 41.12 83.01 43.18"
/>
<path stroke="#7b3830" vector-effect="non-scaling-stroke" d="
  M 83.01 43.18
  L 76.41 45.72
  Q 75.93 45.90 75.59 46.29
  C 72.75 49.51 68.78 50.20 65.00 51.85
  C 63.85 52.35 62.74 52.04 61.62 52.85
  C 59.25 54.56 55.23 57.05 52.34 57.34
  C 49.38 57.64 46.52 57.29 43.59 57.51
  Q 40.52 57.73 37.48 57.38"
/>
<path stroke="#904539" vector-effect="non-scaling-stroke" d="
  M 37.48 57.38
  Q 43.97 56.30 50.43 56.65
  Q 52.37 56.75 54.53 55.04
  Q 54.75 54.87 55.03 54.80
  Q 55.35 54.71 55.56 54.41
  Q 55.79 54.08 55.44 54.28
  Q 50.79 56.82 45.52 56.20
  Q 45.24 56.17 44.99 55.85
  Q 44.69 55.47 44.21 55.45
  C 39.22 55.27 28.63 56.34 24.50 54.37
  C 22.24 53.29 18.72 51.48 17.14 53.54
  Q 16.86 53.90 17.01 54.34
  C 18.69 59.24 22.58 59.40 27.25 58.68
  A 1.71 1.66 50.6 0 1 28.13 58.78
  C 31.57 60.14 35.38 60.62 38.59 62.43
  Q 41.71 64.19 43.00 64.29
  Q 50.02 64.86 56.32 68.03
  Q 56.79 68.26 56.94 68.76
  Q 57.30 69.97 58.99 69.92"
/>
<path stroke="#ad554a" vector-effect="non-scaling-stroke" d="
  M 58.99 69.92
  L 57.30 70.25"
/>
<path stroke="#a45745" vector-effect="non-scaling-stroke" d="
  M 33.73 54.28
  Q 42.99 55.42 52.08 53.76
  Q 52.17 53.74 52.20 53.66
  Q 52.24 53.54 52.27 53.41
  Q 52.31 53.24 52.49 53.21
  Q 58.66 52.37 64.33 49.80
  Q 64.79 49.60 65.08 49.20
  Q 65.64 48.42 66.56 48.09
  C 70.13 46.80 73.03 44.61 76.79 43.79
  C 80.68 42.95 83.85 41.32 88.23 40.87
  Q 88.86 40.81 88.27 40.57
  Q 87.36 40.21 86.58 40.75
  Q 86.19 41.01 85.73 41.00
  L 83.98 40.97"
/>
<path stroke="#bd5c52" vector-effect="non-scaling-stroke" d="
  M 46.77 76.75
  Q 48.59 78.02 50.98 78.48
  Q 50.78 79.02 48.03 77.66
  A 0.34 0.34 0.0 0 0 47.56 78.10
  L 47.79 78.65
  Q 48.02 79.19 48.58 79.31
  Q 49.65 79.53 50.31 80.38
  Q 50.66 80.82 51.21 80.77
  Q 53.94 80.53 56.08 82.14
  Q 56.45 82.42 56.92 82.38
  C 59.61 82.12 61.26 86.24 61.64 88.37
  Q 61.74 88.91 62.19 89.20
  L 66.12 91.76
  A 1.72 1.66 -89.0 0 1 66.65 92.33
  Q 67.78 94.43 69.89 95.36
  C 75.49 97.82 69.77 100.23 74.10 104.11"
/>
<path stroke="#a45745" vector-effect="non-scaling-stroke" d="
  M 74.10 104.11
  Q 72.03 103.55 70.51 101.63
  Q 70.12 101.13 70.18 100.49
  Q 70.48 97.40 67.85 96.02
  Q 67.40 95.78 67.10 95.37
  C 64.82 92.17 60.92 91.19 58.07 88.01
  Q 57.73 87.64 57.82 87.15
  C 58.34 84.24 56.25 84.08 54.45 83.06
  Q 52.14 81.75 48.02 80.67
  Q 42.69 79.28 36.75 73.75
  Q 36.39 73.41 35.91 73.29
  Q 33.28 72.61 32.75 75.20
  A 1.76 1.76 0.0 0 0 33.51 77.01
  C 38.57 80.36 36.97 86.68 33.60 90.45
  Q 33.35 90.72 32.99 90.75
  Q 31.32 90.88 30.52 92.29
  A 0.72 0.71 22.2 0 1 29.72 92.62
  Q 24.20 91.11 20.93 96.11"
/>
<path stroke="#bd5c52" vector-effect="non-scaling-stroke" d="
  M 58.99 69.92
  Q 61.50 71.77 63.46 75.78"
/>
<path stroke="#db6060" vector-effect="non-scaling-stroke" d="
  M 83.99 86.84
  L 77.47 87.08
  Q 76.97 87.10 76.61 87.45
  C 73.79 90.14 76.95 93.12 78.63 95.20
  C 80.36 97.33 82.20 97.82 84.80 97.71
  Q 85.34 97.69 85.78 97.99
  Q 87.08 98.86 88.48 98.22
  Q 88.95 98.01 89.33 98.37
  L 90.28 99.30"
/>
<path stroke="#ad554a" vector-effect="non-scaling-stroke" d="
  M 79.48 106.33
  Q 77.09 104.21 74.10 104.11"
/>
<path stroke="#cd7866" vector-effect="non-scaling-stroke" d="
  M 82.99 41.03
  C 78.25 42.54 73.27 43.26 68.80 44.81
  Q 65.77 45.87 62.77 46.96
  C 61.55 47.41 60.70 48.53 59.08 48.53
  Q 58.59 48.53 58.18 48.79
  Q 52.70 52.34 46.32 52.55"
/>
<path stroke="#be715f" vector-effect="non-scaling-stroke" d="
  M 68.21 40.71
  L 61.52 41.26"
/>
<path stroke="#914c41" vector-effect="non-scaling-stroke" d="
  M 111.43 51.46
  Q 111.11 52.19 110.48 52.54"
/>
<path stroke="#6f4033" vector-effect="non-scaling-stroke" d="
  M 110.48 52.54
  L 109.70 46.50"
/>
<path stroke="#914c41" vector-effect="non-scaling-stroke" d="
  M 109.70 46.50
  Q 109.67 47.12 109.79 46.22"
/>
<path stroke="#9d5c4d" vector-effect="non-scaling-stroke" d="
  M 109.79 46.22
  L 108.59 40.74"
/>
<path stroke="#ab654f" vector-effect="non-scaling-stroke" d="
  M 108.59 40.74
  L 107.67 38.08
  Q 107.51 37.62 107.04 37.50
  C 104.66 36.89 102.32 37.95 100.17 37.93
  Q 96.05 37.91 92.17 39.21
  C 89.46 40.11 86.74 40.08 83.98 40.97"
/>
<path stroke="#ba6c56" vector-effect="non-scaling-stroke" d="
  M 83.98 40.97
  Q 83.17 41.57 82.99 41.03"
/>
<path stroke="#d48670" vector-effect="non-scaling-stroke" d="
  M 82.99 41.03
  L 76.50 41.18"
/>
<path stroke="#3f1314" vector-effect="non-scaling-stroke" d="
  M 109.70 46.50
  C 103.05 49.22 95.30 48.99 88.32 48.12
  A 1.02 1.01 -63.3 0 0 87.46 48.41
  L 86.80 49.08
  Q 86.50 49.37 86.08 49.41
  C 82.34 49.75 64.10 51.47 62.33 55.51
  Q 62.13 55.97 61.78 56.31
  L 59.75 58.33
  Q 59.30 58.77 59.56 59.34
  C 62.19 65.10 67.31 63.25 71.49 66.79
  A 1.87 1.86 -20.6 0 0 72.38 67.19
  C 76.76 67.89 85.20 68.87 88.97 66.08
  C 95.74 61.06 101.02 58.72 109.65 58.08
  Q 110.16 58.04 110.19 57.54
  L 110.48 52.54"
/>
<path stroke="#8a3f37" vector-effect="non-scaling-stroke" d="
  M 110.97 58.60
  L 107.03 76.93"
/>
<path stroke="#772c2b" vector-effect="non-scaling-stroke" d="
  M 104.48 81.07
  Q 101.74 79.78 98.12 80.33
  A 0.09 0.09 0.0 0 1 98.03 80.20
  L 98.18 79.91
  A 0.13 0.12 -78.5 0 0 98.06 79.72
  C 91.81 80.30 84.65 81.76 78.44 81.17
  A 0.51 0.51 0.0 0 1 78.16 80.28
  L 81.08 77.72
  Q 81.39 77.46 81.39 77.05
  C 81.42 74.09 78.75 73.71 76.22 73.85
  Q 71.46 74.12 66.69 73.61
  Q 66.10 73.55 65.79 73.03
  Q 65.24 72.13 64.22 71.90
  Q 63.73 71.79 63.53 71.33
  C 61.89 67.68 59.16 69.11 56.80 66.48
  Q 56.47 66.12 56.00 65.96
  Q 51.95 64.56 47.88 63.27
  C 46.39 62.80 45.40 61.77 43.42 62.41
  A 1.78 1.73 -45.9 0 1 42.50 62.44
  L 37.22 61.20
  Q 36.70 61.08 36.37 60.66
  Q 35.33 59.32 33.65 59.37
  A 0.63 0.62 88.7 0 1 33.00 58.74
  L 33.00 57.95
  Q 33.00 57.26 33.68 57.28
  L 37.48 57.38"
/>
<path stroke="#be504e" vector-effect="non-scaling-stroke" d="
  M 97.35 91.67
  L 94.85 89.49
  Q 94.50 89.19 94.04 89.09
  L 83.99 86.84"
/>
<path stroke="#a94a46" vector-effect="non-scaling-stroke" d="
  M 83.99 86.84
  L 87.27 86.75
  A 0.38 0.38 0.0 0 0 87.34 86.00
  C 80.57 84.60 73.60 86.27 67.39 83.04
  A 0.97 0.95 5.3 0 1 66.94 82.51
  Q 66.41 81.01 65.01 80.49
  A 0.91 0.90 -86.3 0 1 64.45 79.85
  L 63.46 75.78"
/>
<path stroke="#a04c40" vector-effect="non-scaling-stroke" d="
  M 63.46 75.78
  Q 64.31 78.93 65.52 80.22
  Q 66.27 81.01 65.88 80.00
  C 64.87 77.30 63.57 74.90 62.55 72.28
  Q 61.77 70.30 58.99 69.92"
/>
<path stroke="#6d2f2e" vector-effect="non-scaling-stroke" d="
  M 109.79 46.22
  L 96.66 46.88
  A 2.63 2.63 0.0 0 1 94.16 45.40
  L 93.08 43.14
  Q 92.84 42.64 92.34 42.41
  Q 89.52 41.12 87.23 43.01
  A 1.02 0.97 24.3 0 1 86.60 43.23
  L 83.01 43.18"
/>
<path stroke="#d48670" vector-effect="non-scaling-stroke" d="
  M 51.25 68.03
  C 49.39 67.68 48.13 66.80 46.39 66.53
  Q 42.31 65.91 38.24 65.35
  Q 37.01 65.18 36.38 65.75
  A 0.84 0.84 0.0 0 0 36.80 67.20
  Q 41.75 68.01 45.37 71.54
  Q 45.71 71.87 46.19 71.94
  Q 47.28 72.09 47.26 73.24
  A 0.62 0.62 0.0 0 0 47.92 73.88
  Q 49.07 73.81 49.42 74.83
  A 1.25 1.25 0.0 0 0 50.60 75.67
  L 54.53 75.68
  Q 55.29 75.68 55.29 74.92
  L 55.28 70.80
  Q 55.28 70.09 54.59 70.24
  Q 52.69 70.66 52.15 68.85
  A 1.17 1.15 87.0 0 0 51.25 68.03"
/>
</g>
<path fill="#c17960" d="
  M 55.34 0.60
  Q 51.59 2.17 47.38 1.48
  Q 50.73 -0.44 55.34 0.60
  Z"
/>
<path fill="#fab39d" d="
  M 55.34 0.60
  L 66.18 1.81
  L 67.78 4.59
  Q 68.03 5.02 68.53 5.01
  Q 71.10 4.97 71.77 5.20
  C 81.80 8.52 88.62 10.22 95.76 18.32
  Q 96.71 19.57 96.86 21.14
  A 1.12 1.12 0.0 0 1 95.69 22.36
  Q 84.33 21.86 73.00 23.07
  Q 72.59 23.12 72.47 22.72
  L 71.53 19.64
  L 71.29 14.55
  Q 71.78 13.65 71.13 12.21
  Q 70.96 11.84 70.56 11.83
  L 59.42 11.53
  Q 58.93 11.52 58.61 11.90
  Q 57.34 13.40 55.31 12.97
  Q 54.79 12.86 54.34 13.15
  Q 50.57 15.69 47.34 15.14
  Q 45.59 14.84 44.41 15.25
  C 41.50 16.27 38.52 16.62 35.50 17.18
  Q 35.00 17.27 34.64 17.62
  Q 33.20 19.01 31.29 18.28
  L 31.28 12.25
  Q 31.27 11.76 31.77 11.75
  L 42.06 11.68
  A 0.55 0.54 -88.3 0 0 42.60 11.16
  L 43.02 2.83
  L 47.38 1.48
  Q 51.59 2.17 55.34 0.60
  Z"
/>
<path fill="#c17960" d="
  M 66.18 1.81
  C 78.92 4.02 89.34 7.30 96.94 18.51
  L 95.76 18.32
  C 88.62 10.22 81.80 8.52 71.77 5.20
  Q 71.10 4.97 68.53 5.01
  Q 68.03 5.02 67.78 4.59
  L 66.18 1.81
  Z"
/>
<path fill="#d9886f" d="
  M 43.02 2.83
  L 42.60 11.16
  A 0.55 0.54 -88.3 0 1 42.06 11.68
  L 31.77 11.75
  Q 31.27 11.76 31.28 12.25
  L 31.29 18.28
  L 31.23 18.73
  Q 31.14 19.35 31.76 19.24
  C 36.68 18.37 41.14 16.36 45.95 16.10
  Q 51.47 15.79 57.04 15.75
  C 54.80 16.16 50.84 15.01 50.53 18.16
  L 33.97 22.50
  Q 33.41 22.64 33.02 22.23
  Q 32.60 21.79 31.84 22.05
  Q 31.30 22.24 31.30 22.82
  L 31.29 26.52
  Q 30.35 27.28 29.42 29.22
  A 1.43 1.43 0.0 0 0 30.27 31.19
  Q 35.75 32.95 40.00 29.41
  Q 40.36 29.11 40.83 29.07
  C 44.69 28.78 49.37 29.08 52.99 27.73
  Q 54.23 27.26 55.72 27.21
  Q 55.23 28.92 55.83 31.02
  Q 55.97 31.49 56.36 31.78
  C 59.08 33.72 61.71 32.62 64.34 34.09
  A 1.72 1.72 0.0 0 1 63.79 37.29
  Q 58.91 38.12 53.06 38.28
  C 50.62 38.34 48.56 37.04 45.96 37.06
  C 43.01 37.08 33.23 36.35 31.60 39.03
  A 2.06 2.05 27.8 0 1 29.00 39.83
  L 23.21 37.22
  A 0.39 0.34 48.9 0 0 22.99 37.19
  Q 19.47 37.53 16.05 36.53
  A 1.40 1.39 30.2 0 1 15.44 34.22
  L 21.13 28.37
  Q 21.36 28.14 21.26 27.83
  Q 21.16 27.48 21.46 27.21
  Q 26.97 22.34 25.60 15.29
  C 25.09 12.67 25.17 10.48 27.81 9.50
  Q 28.49 9.25 27.93 8.79
  L 26.77 7.86
  L 43.02 2.83
  Z"
/>
<path fill="#c17960" d="
  M 26.77 7.86
  L 27.93 8.79
  Q 28.49 9.25 27.81 9.50
  C 25.17 10.48 25.09 12.67 25.60 15.29
  Q 26.97 22.34 21.46 27.21
  Q 21.16 27.48 21.26 27.83
  Q 21.36 28.14 21.13 28.37
  L 15.44 34.22
  A 1.40 1.39 30.2 0 0 16.05 36.53
  Q 19.47 37.53 22.99 37.19
  A 0.39 0.34 48.9 0 1 23.21 37.22
  L 29.00 39.83
  A 2.06 2.05 27.8 0 0 31.60 39.03
  C 33.23 36.35 43.01 37.08 45.96 37.06
  C 48.56 37.04 50.62 38.34 53.06 38.28
  Q 58.91 38.12 63.79 37.29
  A 1.72 1.72 0.0 0 0 64.34 34.09
  C 61.71 32.62 59.08 33.72 56.36 31.78
  Q 55.97 31.49 55.83 31.02
  Q 55.23 28.92 55.72 27.21
  L 57.55 23.47
  A 1.24 1.24 0.0 0 0 56.25 21.70
  Q 54.50 21.98 52.71 21.41
  Q 56.53 20.32 59.41 21.64
  A 1.49 1.49 0.0 0 1 59.95 23.92
  L 56.92 27.76
  A 2.33 2.32 -55.0 0 0 57.52 31.18
  Q 61.00 33.35 64.61 30.77
  L 71.30 30.53
  L 71.08 37.74
  Q 71.34 38.85 70.84 40.66
  L 68.21 40.71
  Q 69.30 38.37 67.26 38.00
  Q 65.80 37.74 63.78 38.68
  Q 63.33 38.89 62.84 38.85
  C 59.27 38.56 56.22 39.92 52.90 39.67
  Q 46.39 39.20 39.89 39.26
  Q 39.28 39.26 39.09 39.84
  L 39.02 40.09
  A 0.58 0.57 12.8 0 0 39.50 40.84
  Q 50.47 42.20 61.52 41.26
  Q 57.37 42.39 52.91 41.94
  A 1.08 1.08 0.0 0 0 52.02 42.25
  Q 47.46 46.76 41.15 47.54
  C 38.29 47.90 36.46 49.12 34.23 50.53
  A 1.05 1.05 0.0 0 0 34.78 52.47
  L 46.32 52.55
  L 33.73 54.28
  C 31.58 53.82 30.11 53.57 28.09 52.38
  C 21.53 48.50 16.61 49.44 9.73 51.99
  C 6.03 53.36 5.42 56.90 8.74 59.19
  C 12.88 62.05 25.74 61.54 30.97 61.56
  C 34.08 61.58 36.61 62.73 39.37 63.90
  C 42.01 65.01 44.58 65.18 47.36 65.81
  C 49.55 66.30 51.78 67.67 54.81 68.14
  Q 56.45 68.40 57.30 70.25
  L 57.26 70.91
  Q 57.23 71.36 57.68 71.43
  L 60.13 71.80
  Q 60.64 71.88 60.72 72.39
  L 61.48 77.55
  A 0.74 0.73 67.6 0 1 61.20 78.24
  Q 59.28 79.74 57.71 78.13
  Q 57.34 77.76 56.85 77.91
  C 53.32 78.98 50.03 77.62 46.77 76.75
  C 43.12 73.13 35.58 67.39 29.53 66.29
  A 0.64 0.63 -78.0 0 0 28.80 66.77
  C 28.34 68.77 29.26 74.79 30.03 76.60
  C 31.59 80.26 35.82 80.20 32.71 85.71
  Q 30.89 88.95 27.47 88.81
  Q 26.98 88.79 26.56 89.05
  L 18.87 93.87
  Q 16.71 90.24 13.33 87.34
  Q 14.77 87.58 15.68 85.57
  A 0.91 0.89 10.0 0 1 16.46 85.04
  Q 24.79 84.59 26.15 75.72
  Q 26.80 71.49 23.98 69.29
  Q 23.53 68.94 23.21 68.45
  L 22.20 66.88
  Q 21.91 66.43 21.39 66.31
  C 16.61 65.22 8.63 63.13 4.46 64.36
  Q 3.97 64.50 3.91 65.01
  L 3.51 68.74
  C -2.12 59.31 1.21 53.89 3.18 44.47
  C 5.31 34.28 9.94 21.71 16.74 15.99
  C 20.63 12.72 22.51 9.85 26.77 7.86
  Z
  M 51.25 68.03
  C 49.39 67.68 48.13 66.80 46.39 66.53
  Q 42.31 65.91 38.24 65.35
  Q 37.01 65.18 36.38 65.75
  A 0.84 0.84 0.0 0 0 36.80 67.20
  Q 41.75 68.01 45.37 71.54
  Q 45.71 71.87 46.19 71.94
  Q 47.28 72.09 47.26 73.24
  A 0.62 0.62 0.0 0 0 47.92 73.88
  Q 49.07 73.81 49.42 74.83
  A 1.25 1.25 0.0 0 0 50.60 75.67
  L 54.53 75.68
  Q 55.29 75.68 55.29 74.92
  L 55.28 70.80
  Q 55.28 70.09 54.59 70.24
  Q 52.69 70.66 52.15 68.85
  A 1.17 1.15 87.0 0 0 51.25 68.03
  Z"
/>
<path fill="#e79280" d="
  M 71.29 14.55
  Q 63.98 16.19 57.04 15.75
  Q 51.47 15.79 45.95 16.10
  C 41.14 16.36 36.68 18.37 31.76 19.24
  Q 31.14 19.35 31.23 18.73
  L 31.29 18.28
  Q 33.20 19.01 34.64 17.62
  Q 35.00 17.27 35.50 17.18
  C 38.52 16.62 41.50 16.27 44.41 15.25
  Q 45.59 14.84 47.34 15.14
  Q 50.57 15.69 54.34 13.15
  Q 54.79 12.86 55.31 12.97
  Q 57.34 13.40 58.61 11.90
  Q 58.93 11.52 59.42 11.53
  L 70.56 11.83
  Q 70.96 11.84 71.13 12.21
  Q 71.78 13.65 71.29 14.55
  Z"
/>
<path fill="#b35e4c" d="
  M 71.29 14.55
  L 71.53 19.64
  L 71.23 24.05
  L 70.83 21.04
  Q 66.77 18.03 64.68 18.12
  Q 57.58 18.41 50.53 18.16
  C 50.84 15.01 54.80 16.16 57.04 15.75
  Q 63.98 16.19 71.29 14.55
  Z"
/>
<path fill="#613223" d="
  M 70.83 21.04
  Q 67.57 21.38 64.75 19.30
  A 0.91 0.91 0.0 0 0 63.45 19.53
  Q 60.54 23.89 58.61 28.62
  A 1.85 1.85 0.0 0 0 60.50 31.16
  L 64.61 30.77
  Q 61.00 33.35 57.52 31.18
  A 2.33 2.32 -55.0 0 1 56.92 27.76
  L 59.95 23.92
  A 1.49 1.49 0.0 0 0 59.41 21.64
  Q 56.53 20.32 52.71 21.41
  C 49.32 21.70 45.98 21.42 42.77 22.37
  Q 36.90 24.12 31.29 26.52
  L 31.30 22.82
  Q 31.30 22.24 31.84 22.05
  Q 32.60 21.79 33.02 22.23
  Q 33.41 22.64 33.97 22.50
  L 50.53 18.16
  Q 57.58 18.41 64.68 18.12
  Q 66.77 18.03 70.83 21.04
  Z"
/>
<path fill="#e79280" d="
  M 95.76 18.32
  L 96.94 18.51
  L 102.41 26.24
  Q 93.46 28.06 84.28 27.92
  Q 83.84 27.91 83.44 28.07
  L 78.82 29.88
  Q 78.36 30.06 78.15 30.50
  C 76.34 34.34 73.42 34.69 71.08 37.74
  L 71.30 30.53
  L 71.23 24.05
  L 71.53 19.64
  L 72.47 22.72
  Q 72.59 23.12 73.00 23.07
  Q 84.33 21.86 95.69 22.36
  A 1.12 1.12 0.0 0 0 96.86 21.14
  Q 96.71 19.57 95.76 18.32
  Z"
/>
<path fill="#381309" d="
  M 70.83 21.04
  L 71.23 24.05
  L 71.30 30.53
  L 64.61 30.77
  L 60.50 31.16
  A 1.85 1.85 0.0 0 1 58.61 28.62
  Q 60.54 23.89 63.45 19.53
  A 0.91 0.91 0.0 0 1 64.75 19.30
  Q 67.57 21.38 70.83 21.04
  Z"
/>
<path fill="#e0a898" d="
  M 52.71 21.41
  Q 54.50 21.98 56.25 21.70
  A 1.24 1.24 0.0 0 1 57.55 23.47
  L 55.72 27.21
  Q 54.23 27.26 52.99 27.73
  C 49.37 29.08 44.69 28.78 40.83 29.07
  Q 40.36 29.11 40.00 29.41
  Q 35.75 32.95 30.27 31.19
  A 1.43 1.43 0.0 0 1 29.42 29.22
  Q 30.35 27.28 31.29 26.52
  Q 36.90 24.12 42.77 22.37
  C 45.98 21.42 49.32 21.70 52.71 21.41
  Z"
/>
<path fill="#fab39d" d="
  M 102.41 26.24
  L 107.76 34.82
  Q 102.67 35.27 97.87 35.61
  Q 95.94 35.75 93.20 36.54
  C 90.66 37.28 88.00 37.27 85.47 38.60
  C 82.79 40.00 79.43 40.16 76.50 41.18
  Q 72.16 43.01 70.84 40.66
  Q 71.34 38.85 71.08 37.74
  C 73.42 34.69 76.34 34.34 78.15 30.50
  Q 78.36 30.06 78.82 29.88
  L 83.44 28.07
  Q 83.84 27.91 84.28 27.92
  Q 93.46 28.06 102.41 26.24
  Z"
/>
<path fill="#c17960" d="
  M 107.76 34.82
  Q 111.72 42.11 111.43 51.46
  Q 111.11 52.19 110.48 52.54
  L 109.70 46.50
  Q 109.67 47.12 109.79 46.22
  L 108.59 40.74
  L 107.67 38.08
  Q 107.51 37.62 107.04 37.50
  C 104.66 36.89 102.32 37.95 100.17 37.93
  Q 96.05 37.91 92.17 39.21
  C 89.46 40.11 86.74 40.08 83.98 40.97
  Q 83.17 41.57 82.99 41.03
  L 76.50 41.18
  C 79.43 40.16 82.79 40.00 85.47 38.60
  C 88.00 37.27 90.66 37.28 93.20 36.54
  Q 95.94 35.75 97.87 35.61
  Q 102.67 35.27 107.76 34.82
  Z"
/>
<path fill="#94503d" d="
  M 108.59 40.74
  Q 105.50 40.27 102.57 41.22
  Q 102.10 41.38 101.63 41.21
  Q 99.56 40.48 96.83 40.65
  Q 88.86 41.12 83.01 43.18
  L 76.41 45.72
  Q 75.93 45.90 75.59 46.29
  C 72.75 49.51 68.78 50.20 65.00 51.85
  C 63.85 52.35 62.74 52.04 61.62 52.85
  C 59.25 54.56 55.23 57.05 52.34 57.34
  C 49.38 57.64 46.52 57.29 43.59 57.51
  Q 40.52 57.73 37.48 57.38
  Q 43.97 56.30 50.43 56.65
  Q 52.37 56.75 54.53 55.04
  Q 54.75 54.87 55.03 54.80
  Q 55.35 54.71 55.56 54.41
  Q 55.79 54.08 55.44 54.28
  Q 50.79 56.82 45.52 56.20
  Q 45.24 56.17 44.99 55.85
  Q 44.69 55.47 44.21 55.45
  C 39.22 55.27 28.63 56.34 24.50 54.37
  C 22.24 53.29 18.72 51.48 17.14 53.54
  Q 16.86 53.90 17.01 54.34
  C 18.69 59.24 22.58 59.40 27.25 58.68
  A 1.71 1.66 50.6 0 1 28.13 58.78
  C 31.57 60.14 35.38 60.62 38.59 62.43
  Q 41.71 64.19 43.00 64.29
  Q 50.02 64.86 56.32 68.03
  Q 56.79 68.26 56.94 68.76
  Q 57.30 69.97 58.99 69.92
  L 57.30 70.25
  Q 56.45 68.40 54.81 68.14
  C 51.78 67.67 49.55 66.30 47.36 65.81
  C 44.58 65.18 42.01 65.01 39.37 63.90
  C 36.61 62.73 34.08 61.58 30.97 61.56
  C 25.74 61.54 12.88 62.05 8.74 59.19
  C 5.42 56.90 6.03 53.36 9.73 51.99
  C 16.61 49.44 21.53 48.50 28.09 52.38
  C 30.11 53.57 31.58 53.82 33.73 54.28
  Q 42.99 55.42 52.08 53.76
  Q 52.17 53.74 52.20 53.66
  Q 52.24 53.54 52.27 53.41
  Q 52.31 53.24 52.49 53.21
  Q 58.66 52.37 64.33 49.80
  Q 64.79 49.60 65.08 49.20
  Q 65.64 48.42 66.56 48.09
  C 70.13 46.80 73.03 44.61 76.79 43.79
  C 80.68 42.95 83.85 41.32 88.23 40.87
  Q 88.86 40.81 88.27 40.57
  Q 87.36 40.21 86.58 40.75
  Q 86.19 41.01 85.73 41.00
  L 83.98 40.97
  C 86.74 40.08 89.46 40.11 92.17 39.21
  Q 96.05 37.91 100.17 37.93
  C 102.32 37.95 104.66 36.89 107.04 37.50
  Q 107.51 37.62 107.67 38.08
  L 108.59 40.74
  Z"
/>
<path fill="#94503d" d="
  M 68.21 40.71
  L 61.52 41.26
  Q 50.47 42.20 39.50 40.84
  A 0.58 0.57 12.8 0 1 39.02 40.09
  L 39.09 39.84
  Q 39.28 39.26 39.89 39.26
  Q 46.39 39.20 52.90 39.67
  C 56.22 39.92 59.27 38.56 62.84 38.85
  Q 63.33 38.89 63.78 38.68
  Q 65.80 37.74 67.26 38.00
  Q 69.30 38.37 68.21 40.71
  Z"
/>
<path fill="#783f3a" d="
  M 108.59 40.74
  L 109.79 46.22
  L 96.66 46.88
  A 2.63 2.63 0.0 0 1 94.16 45.40
  L 93.08 43.14
  Q 92.84 42.64 92.34 42.41
  Q 89.52 41.12 87.23 43.01
  A 1.02 0.97 24.3 0 1 86.60 43.23
  L 83.01 43.18
  Q 88.86 41.12 96.83 40.65
  Q 99.56 40.48 101.63 41.21
  Q 102.10 41.38 102.57 41.22
  Q 105.50 40.27 108.59 40.74
  Z"
/>
<path fill="#e79280" d="
  M 70.84 40.66
  Q 72.16 43.01 76.50 41.18
  L 82.99 41.03
  C 78.25 42.54 73.27 43.26 68.80 44.81
  Q 65.77 45.87 62.77 46.96
  C 61.55 47.41 60.70 48.53 59.08 48.53
  Q 58.59 48.53 58.18 48.79
  Q 52.70 52.34 46.32 52.55
  L 34.78 52.47
  A 1.05 1.05 0.0 0 1 34.23 50.53
  C 36.46 49.12 38.29 47.90 41.15 47.54
  Q 47.46 46.76 52.02 42.25
  A 1.08 1.08 0.0 0 1 52.91 41.94
  Q 57.37 42.39 61.52 41.26
  L 68.21 40.71
  L 70.84 40.66
  Z"
/>
<path fill="#b35e4c" d="
  M 33.73 54.28
  L 46.32 52.55
  Q 52.70 52.34 58.18 48.79
  Q 58.59 48.53 59.08 48.53
  C 60.70 48.53 61.55 47.41 62.77 46.96
  Q 65.77 45.87 68.80 44.81
  C 73.27 43.26 78.25 42.54 82.99 41.03
  Q 83.17 41.57 83.98 40.97
  L 85.73 41.00
  Q 86.19 41.01 86.58 40.75
  Q 87.36 40.21 88.27 40.57
  Q 88.86 40.81 88.23 40.87
  C 83.85 41.32 80.68 42.95 76.79 43.79
  C 73.03 44.61 70.13 46.80 66.56 48.09
  Q 65.64 48.42 65.08 49.20
  Q 64.79 49.60 64.33 49.80
  Q 58.66 52.37 52.49 53.21
  Q 52.31 53.24 52.27 53.41
  Q 52.24 53.54 52.20 53.66
  Q 52.17 53.74 52.08 53.76
  Q 42.99 55.42 33.73 54.28
  Z"
/>
<path fill="#611f22" d="
  M 109.79 46.22
  Q 109.67 47.12 109.70 46.50
  C 103.05 49.22 95.30 48.99 88.32 48.12
  A 1.02 1.01 -63.3 0 0 87.46 48.41
  L 86.80 49.08
  Q 86.50 49.37 86.08 49.41
  C 82.34 49.75 64.10 51.47 62.33 55.51
  Q 62.13 55.97 61.78 56.31
  L 59.75 58.33
  Q 59.30 58.77 59.56 59.34
  C 62.19 65.10 67.31 63.25 71.49 66.79
  A 1.87 1.86 -20.6 0 0 72.38 67.19
  C 76.76 67.89 85.20 68.87 88.97 66.08
  C 95.74 61.06 101.02 58.72 109.65 58.08
  Q 110.16 58.04 110.19 57.54
  L 110.48 52.54
  Q 111.11 52.19 111.43 51.46
  Q 111.92 56.09 110.97 58.60
  L 107.03 76.93
  L 104.48 81.07
  Q 101.74 79.78 98.12 80.33
  A 0.09 0.09 0.0 0 1 98.03 80.20
  L 98.18 79.91
  A 0.13 0.12 -78.5 0 0 98.06 79.72
  C 91.81 80.30 84.65 81.76 78.44 81.17
  A 0.51 0.51 0.0 0 1 78.16 80.28
  L 81.08 77.72
  Q 81.39 77.46 81.39 77.05
  C 81.42 74.09 78.75 73.71 76.22 73.85
  Q 71.46 74.12 66.69 73.61
  Q 66.10 73.55 65.79 73.03
  Q 65.24 72.13 64.22 71.90
  Q 63.73 71.79 63.53 71.33
  C 61.89 67.68 59.16 69.11 56.80 66.48
  Q 56.47 66.12 56.00 65.96
  Q 51.95 64.56 47.88 63.27
  C 46.39 62.80 45.40 61.77 43.42 62.41
  A 1.78 1.73 -45.9 0 1 42.50 62.44
  L 37.22 61.20
  Q 36.70 61.08 36.37 60.66
  Q 35.33 59.32 33.65 59.37
  A 0.63 0.62 88.7 0 1 33.00 58.74
  L 33.00 57.95
  Q 33.00 57.26 33.68 57.28
  L 37.48 57.38
  Q 40.52 57.73 43.59 57.51
  C 46.52 57.29 49.38 57.64 52.34 57.34
  C 55.23 57.05 59.25 54.56 61.62 52.85
  C 62.74 52.04 63.85 52.35 65.00 51.85
  C 68.78 50.20 72.75 49.51 75.59 46.29
  Q 75.93 45.90 76.41 45.72
  L 83.01 43.18
  L 86.60 43.23
  A 1.02 0.97 24.3 0 0 87.23 43.01
  Q 89.52 41.12 92.34 42.41
  Q 92.84 42.64 93.08 43.14
  L 94.16 45.40
  A 2.63 2.63 0.0 0 0 96.66 46.88
  L 109.79 46.22
  Z"
/>
<path fill="#1c0705" d="
  M 109.70 46.50
  L 110.48 52.54
  L 110.19 57.54
  Q 110.16 58.04 109.65 58.08
  C 101.02 58.72 95.74 61.06 88.97 66.08
  C 85.20 68.87 76.76 67.89 72.38 67.19
  A 1.87 1.86 -20.6 0 1 71.49 66.79
  C 67.31 63.25 62.19 65.10 59.56 59.34
  Q 59.30 58.77 59.75 58.33
  L 61.78 56.31
  Q 62.13 55.97 62.33 55.51
  C 64.10 51.47 82.34 49.75 86.08 49.41
  Q 86.50 49.37 86.80 49.08
  L 87.46 48.41
  A 1.02 1.01 -63.3 0 1 88.32 48.12
  C 95.30 48.99 103.05 49.22 109.70 46.50
  Z"
/>
<path fill="#8c3934" d="
  M 37.48 57.38
  L 33.68 57.28
  Q 33.00 57.26 33.00 57.95
  L 33.00 58.74
  A 0.63 0.62 88.7 0 0 33.65 59.37
  Q 35.33 59.32 36.37 60.66
  Q 36.70 61.08 37.22 61.20
  L 42.50 62.44
  A 1.78 1.73 -45.9 0 0 43.42 62.41
  C 45.40 61.77 46.39 62.80 47.88 63.27
  Q 51.95 64.56 56.00 65.96
  Q 56.47 66.12 56.80 66.48
  C 59.16 69.11 61.89 67.68 63.53 71.33
  Q 63.73 71.79 64.22 71.90
  Q 65.24 72.13 65.79 73.03
  Q 66.10 73.55 66.69 73.61
  Q 71.46 74.12 76.22 73.85
  C 78.75 73.71 81.42 74.09 81.39 77.05
  Q 81.39 77.46 81.08 77.72
  L 78.16 80.28
  A 0.51 0.51 0.0 0 0 78.44 81.17
  C 84.65 81.76 91.81 80.30 98.06 79.72
  A 0.13 0.12 -78.5 0 1 98.18 79.91
  L 98.03 80.20
  A 0.09 0.09 0.0 0 0 98.12 80.33
  Q 101.74 79.78 104.48 81.07
  L 97.35 91.67
  L 94.85 89.49
  Q 94.50 89.19 94.04 89.09
  L 83.99 86.84
  L 87.27 86.75
  A 0.38 0.38 0.0 0 0 87.34 86.00
  C 80.57 84.60 73.60 86.27 67.39 83.04
  A 0.97 0.95 5.3 0 1 66.94 82.51
  Q 66.41 81.01 65.01 80.49
  A 0.91 0.90 -86.3 0 1 64.45 79.85
  L 63.46 75.78
  Q 64.31 78.93 65.52 80.22
  Q 66.27 81.01 65.88 80.00
  C 64.87 77.30 63.57 74.90 62.55 72.28
  Q 61.77 70.30 58.99 69.92
  Q 57.30 69.97 56.94 68.76
  Q 56.79 68.26 56.32 68.03
  Q 50.02 64.86 43.00 64.29
  Q 41.71 64.19 38.59 62.43
  C 35.38 60.62 31.57 60.14 28.13 58.78
  A 1.71 1.66 50.6 0 0 27.25 58.68
  C 22.58 59.40 18.69 59.24 17.01 54.34
  Q 16.86 53.90 17.14 53.54
  C 18.72 51.48 22.24 53.29 24.50 54.37
  C 28.63 56.34 39.22 55.27 44.21 55.45
  Q 44.69 55.47 44.99 55.85
  Q 45.24 56.17 45.52 56.20
  Q 50.79 56.82 55.44 54.28
  Q 55.79 54.08 55.56 54.41
  Q 55.35 54.71 55.03 54.80
  Q 54.75 54.87 54.53 55.04
  Q 52.37 56.75 50.43 56.65
  Q 43.97 56.30 37.48 57.38
  Z"
/>
<path fill="#b35e4c" d="
  M 110.97 58.60
  Q 112.81 68.55 107.03 76.93
  L 110.97 58.60
  Z"
/>
<path fill="#d9886f" d="
  M 13.33 87.34
  C 11.00 85.33 8.93 83.91 7.76 80.93
  Q 5.40 74.92 3.51 68.74
  L 3.91 65.01
  Q 3.97 64.50 4.46 64.36
  C 8.63 63.13 16.61 65.22 21.39 66.31
  Q 21.91 66.43 22.20 66.88
  L 23.21 68.45
  Q 23.53 68.94 23.98 69.29
  Q 26.80 71.49 26.15 75.72
  Q 24.79 84.59 16.46 85.04
  A 0.91 0.89 10.0 0 0 15.68 85.57
  Q 14.77 87.58 13.33 87.34
  Z"
/>
<path fill="#e79280" d="
  M 52.15 68.85
  Q 52.69 70.66 54.59 70.24
  Q 55.28 70.09 55.28 70.80
  L 55.29 74.92
  Q 55.29 75.68 54.53 75.68
  L 50.60 75.67
  A 1.25 1.25 0.0 0 1 49.42 74.83
  Q 49.07 73.81 47.92 73.88
  A 0.62 0.62 0.0 0 1 47.26 73.24
  Q 47.28 72.09 46.19 71.94
  Q 45.71 71.87 45.37 71.54
  Q 41.75 68.01 36.80 67.20
  A 0.84 0.84 0.0 0 1 36.38 65.75
  Q 37.01 65.18 38.24 65.35
  Q 42.31 65.91 46.39 66.53
  C 48.13 66.80 49.39 67.68 51.25 68.03
  A 1.17 1.15 87.0 0 1 52.15 68.85
  Z"
/>
<path fill="#b35e4c" d="
  M 46.77 76.75
  Q 48.59 78.02 50.98 78.48
  Q 50.78 79.02 48.03 77.66
  A 0.34 0.34 0.0 0 0 47.56 78.10
  L 47.79 78.65
  Q 48.02 79.19 48.58 79.31
  Q 49.65 79.53 50.31 80.38
  Q 50.66 80.82 51.21 80.77
  Q 53.94 80.53 56.08 82.14
  Q 56.45 82.42 56.92 82.38
  C 59.61 82.12 61.26 86.24 61.64 88.37
  Q 61.74 88.91 62.19 89.20
  L 66.12 91.76
  A 1.72 1.66 -89.0 0 1 66.65 92.33
  Q 67.78 94.43 69.89 95.36
  C 75.49 97.82 69.77 100.23 74.10 104.11
  Q 72.03 103.55 70.51 101.63
  Q 70.12 101.13 70.18 100.49
  Q 70.48 97.40 67.85 96.02
  Q 67.40 95.78 67.10 95.37
  C 64.82 92.17 60.92 91.19 58.07 88.01
  Q 57.73 87.64 57.82 87.15
  C 58.34 84.24 56.25 84.08 54.45 83.06
  Q 52.14 81.75 48.02 80.67
  Q 42.69 79.28 36.75 73.75
  Q 36.39 73.41 35.91 73.29
  Q 33.28 72.61 32.75 75.20
  A 1.76 1.76 0.0 0 0 33.51 77.01
  C 38.57 80.36 36.97 86.68 33.60 90.45
  Q 33.35 90.72 32.99 90.75
  Q 31.32 90.88 30.52 92.29
  A 0.72 0.71 22.2 0 1 29.72 92.62
  Q 24.20 91.11 20.93 96.11
  L 18.87 93.87
  L 26.56 89.05
  Q 26.98 88.79 27.47 88.81
  Q 30.89 88.95 32.71 85.71
  C 35.82 80.20 31.59 80.26 30.03 76.60
  C 29.26 74.79 28.34 68.77 28.80 66.77
  A 0.64 0.63 -78.0 0 1 29.53 66.29
  C 35.58 67.39 43.12 73.13 46.77 76.75
  Z"
/>
<path fill="#c65a57" d="
  M 58.99 69.92
  Q 61.50 71.77 63.46 75.78
  L 64.45 79.85
  A 0.91 0.90 -86.3 0 0 65.01 80.49
  Q 66.41 81.01 66.94 82.51
  A 0.97 0.95 5.3 0 0 67.39 83.04
  C 73.60 86.27 80.57 84.60 87.34 86.00
  A 0.38 0.38 0.0 0 1 87.27 86.75
  L 83.99 86.84
  L 77.47 87.08
  Q 76.97 87.10 76.61 87.45
  C 73.79 90.14 76.95 93.12 78.63 95.20
  C 80.36 97.33 82.20 97.82 84.80 97.71
  Q 85.34 97.69 85.78 97.99
  Q 87.08 98.86 88.48 98.22
  Q 88.95 98.01 89.33 98.37
  L 90.28 99.30
  Q 85.38 104.08 79.48 106.33
  Q 77.09 104.21 74.10 104.11
  C 69.77 100.23 75.49 97.82 69.89 95.36
  Q 67.78 94.43 66.65 92.33
  A 1.72 1.66 -89.0 0 0 66.12 91.76
  L 62.19 89.20
  Q 61.74 88.91 61.64 88.37
  C 61.26 86.24 59.61 82.12 56.92 82.38
  Q 56.45 82.42 56.08 82.14
  Q 53.94 80.53 51.21 80.77
  Q 50.66 80.82 50.31 80.38
  Q 49.65 79.53 48.58 79.31
  Q 48.02 79.19 47.79 78.65
  L 47.56 78.10
  A 0.34 0.34 0.0 0 1 48.03 77.66
  Q 50.78 79.02 50.98 78.48
  Q 48.59 78.02 46.77 76.75
  C 50.03 77.62 53.32 78.98 56.85 77.91
  Q 57.34 77.76 57.71 78.13
  Q 59.28 79.74 61.20 78.24
  A 0.74 0.73 67.6 0 0 61.48 77.55
  L 60.72 72.39
  Q 60.64 71.88 60.13 71.80
  L 57.68 71.43
  Q 57.23 71.36 57.26 70.91
  L 57.30 70.25
  L 58.99 69.92
  Z"
/>
<path fill="#b35e4c" d="
  M 58.99 69.92
  Q 61.77 70.30 62.55 72.28
  C 63.57 74.90 64.87 77.30 65.88 80.00
  Q 66.27 81.01 65.52 80.22
  Q 64.31 78.93 63.46 75.78
  Q 61.50 71.77 58.99 69.92
  Z"
/>
<path fill="#94503d" d="
  M 74.10 104.11
  Q 77.09 104.21 79.48 106.33
  L 66.21 110.44
  Q 65.72 110.60 65.23 110.43
  C 63.13 109.73 62.02 109.77 59.78 110.72
  C 56.67 112.04 53.88 110.31 50.76 110.06
  C 43.31 109.45 36.76 106.84 30.98 102.16
  C 27.73 99.52 23.96 99.18 20.93 96.11
  Q 24.20 91.11 29.72 92.62
  A 0.72 0.71 22.2 0 0 30.52 92.29
  Q 31.32 90.88 32.99 90.75
  Q 33.35 90.72 33.60 90.45
  C 36.97 86.68 38.57 80.36 33.51 77.01
  A 1.76 1.76 0.0 0 1 32.75 75.20
  Q 33.28 72.61 35.91 73.29
  Q 36.39 73.41 36.75 73.75
  Q 42.69 79.28 48.02 80.67
  Q 52.14 81.75 54.45 83.06
  C 56.25 84.08 58.34 84.24 57.82 87.15
  Q 57.73 87.64 58.07 88.01
  C 60.92 91.19 64.82 92.17 67.10 95.37
  Q 67.40 95.78 67.85 96.02
  Q 70.48 97.40 70.18 100.49
  Q 70.12 101.13 70.51 101.63
  Q 72.03 103.55 74.10 104.11
  Z"
/>
<path fill="#f06668" d="
  M 83.99 86.84
  L 94.04 89.09
  Q 94.50 89.19 94.85 89.49
  L 97.35 91.67
  L 90.28 99.30
  L 89.33 98.37
  Q 88.95 98.01 88.48 98.22
  Q 87.08 98.86 85.78 97.99
  Q 85.34 97.69 84.80 97.71
  C 82.20 97.82 80.36 97.33 78.63 95.20
  C 76.95 93.12 73.79 90.14 76.61 87.45
  Q 76.97 87.10 77.47 87.08
  L 83.99 86.84
  Z"
/>
</svg>
