<?xml version="1.0" encoding="UTF-8" standalone="no"?>
<!-- Created with Inkscape (http://www.inkscape.org/) -->

<svg
   version="1.1"
   viewBox="0 0 2100 1400"
   id="svg375"
   sodipodi:docname="pt.svg"
   inkscape:version="1.3 (0e150ed6c4, 2023-07-21)"
   xmlns:inkscape="http://www.inkscape.org/namespaces/inkscape"
   xmlns:sodipodi="http://sodipodi.sourceforge.net/DTD/sodipodi-0.dtd"
   xmlns="http://www.w3.org/2000/svg"
   xmlns:svg="http://www.w3.org/2000/svg">
  <defs
     id="defs375" />
  <sodipodi:namedview
     id="namedview375"
     pagecolor="#ffffff"
     bordercolor="#000000"
     borderopacity="0.25"
     inkscape:showpageshadow="2"
     inkscape:pageopacity="0.0"
     inkscape:pagecheckerboard="0"
     inkscape:deskcolor="#d1d1d1"
     inkscape:zoom="1"
     inkscape:cx="929"
     inkscape:cy="554"
     inkscape:window-width="1920"
     inkscape:window-height="946"
     inkscape:window-x="0"
     inkscape:window-y="0"
     inkscape:window-maximized="1"
     inkscape:current-layer="svg375" />
  <g
     transform="matrix(1.1596 0 0 1.1596 725.32 52.689)"
     id="g375"
     inkscape:label="g375">
    <g
       transform="matrix(0.92783,0,0,0.92783,20.207,31.902)"
       id="g374"
       inkscape:label="g374"
       style="display:inline">
      <path
         d="m 280.07,339.46 c -10.901,11.468 -23.701,21.003 -37.225,23.686 -1.3098,0.25984 -2.6489,0.47792 -4.0039,0.66992 3.8796,-0.052 7.7615,-0.0861 11.643,-0.0977 h 59.119 c 3.2555,0 7.7563,0.0753 12.041,0.13868 -1.4725,-0.20231 -2.9296,-0.42923 -4.3496,-0.71094 -13.523,-2.6828 -26.323,-12.218 -37.225,-23.686 z m -115.11,3.4492 c -5.7805,7.5001 -17.68,18.13 -24.686,22.023 -8.9593,4.9786 -19.462,5.0149 -28.762,4.5137 -8.6788,-0.46778 -17.689,-5.7697 -26.217,-13.623 l -0.06055,0.0215 4.2227,17.17 c 21.838,-2.7886 46.198,-4.4918 67.486,-6.0234 h 0.0527 l 0.0527,-0.041 c 18.343,-0.9837 36.703,-1.8584 55.076,-2.4629 -9.4787,-0.53632 -17.144,-3.2908 -25.699,-7.4355 -7.4632,-3.6158 -21.467,-14.143 -21.467,-14.143 z m 230.21,0 c 0,0 -14.004,10.527 -21.467,14.143 -8.5244,4.1299 -16.168,6.8755 -25.6,7.4258 17.098,0.54083 36.407,1.358 54.924,2.4726 32.515,1.9574 62.244,5.4753 67.631,6.1211 l 4.2363,-17.227 -0.008,-0.002 c -8.3231,7.9139 -17.192,13.114 -26.27,13.604 -9.2996,0.50123 -19.802,0.46494 -28.762,-4.5137 -7.0059,-3.893 -18.905,-14.523 -24.686,-22.023 z"
         color="#000000"
         fill="#cfb746"
         stroke-width="4"
         style="paint-order:markers fill stroke"
         id="path212" />
      <path
         d="m 280.07,339.46 c -10.901,11.468 -23.701,21.003 -37.225,23.686 -1.3098,0.25984 -2.6489,0.47792 -4.0039,0.66992 3.8796,-0.052 7.7615,-0.0861 11.643,-0.0977 h 59.119 c 3.2555,0 7.7563,0.0753 12.041,0.13868 -1.4725,-0.20231 -2.9296,-0.42923 -4.3496,-0.71094 -13.523,-2.6828 -26.323,-12.218 -37.225,-23.686 z m -115.11,3.4492 c -5.7805,7.5001 -17.68,18.13 -24.686,22.023 -8.9592,4.9786 -19.462,5.0149 -28.762,4.5137 -8.6788,-0.46778 -17.689,-5.7698 -26.217,-13.623 l -0.06055,0.0215 4.2227,17.17 c 21.838,-2.7886 46.198,-4.4918 67.486,-6.0234 h 0.0527 l 0.0527,-0.041 c 18.343,-0.98368 36.703,-1.8584 55.076,-2.4629 -9.4787,-0.53632 -17.144,-3.2908 -25.699,-7.4355 -7.4632,-3.6158 -21.467,-14.143 -21.467,-14.143 z m 230.21,0 c 0,0 -14.004,10.527 -21.467,14.143 -8.5244,4.1299 -16.168,6.8755 -25.6,7.4258 17.098,0.54083 36.407,1.358 54.924,2.4726 32.515,1.9574 62.244,5.4753 67.631,6.1211 l 4.2363,-17.227 -0.008,-0.002 c -8.3231,7.9139 -17.192,13.114 -26.27,13.604 -9.2996,0.50123 -19.802,0.46492 -28.762,-4.5137 -7.0058,-3.893 -18.905,-14.523 -24.686,-22.023 z m -115.11,4.0547 c 4.3307,4.2058 8.9905,7.9423 13.867,11.254 h -27.734 c 4.8767,-3.3116 9.5366,-7.0481 13.867,-11.254 z m -114.38,3.2441 c 3.2064,2.3809 9.3527,6.8076 15.377,10.162 -8.0862,0.33139 -16.175,0.65223 -24.268,1.0859 0.0267,-10e-4 0.004,-10e-4 -0.0664,0.004 l -1.5508,0.0879 -0.10547,0.0684 c -0.52658,0.0388 -1.0854,0.0826 -1.623,0.12305 4.3577,-3.5594 8.6184,-7.4716 12.236,-11.531 z m 228.75,0.002 c 3.6035,4.0424 7.8456,7.937 12.186,11.484 -1.0869,-0.0786 -2.1266,-0.16605 -3.2617,-0.23438 -8.2131,-0.49441 -16.252,-0.78221 -24.293,-1.0918 6.0213,-3.3535 12.163,-7.7773 15.369,-10.158 z"
         color="#000000"
         fill="#ffe9a7"
         stroke-width="3"
         style="display:inline;paint-order:markers fill stroke"
         id="path213" />
      <path
         d="m 280.07,339.46 c -10.901,11.468 -23.701,21.003 -37.225,23.686 -1.3098,0.25984 -2.6489,0.47792 -4.0039,0.66992 3.8796,-0.052 7.7615,-0.0861 11.643,-0.0977 h 59.119 c 3.2555,0 7.7563,0.0753 12.041,0.13868 -1.4725,-0.20231 -2.9296,-0.42923 -4.3496,-0.71094 -13.523,-2.6828 -26.323,-12.218 -37.225,-23.686 z m -115.11,3.4492 c -5.7805,7.5001 -17.68,18.13 -24.686,22.023 -8.9592,4.9786 -19.462,5.0149 -28.762,4.5137 -8.6788,-0.46778 -17.689,-5.7697 -26.217,-13.623 l -0.06055,0.0215 4.2227,17.17 c 21.838,-2.7886 46.198,-4.4918 67.486,-6.0234 h 0.0527 l 0.0527,-0.041 c 18.343,-0.98369 36.703,-1.8584 55.076,-2.4629 -9.4787,-0.53632 -17.144,-3.2908 -25.699,-7.4355 -7.4632,-3.6158 -21.467,-14.143 -21.467,-14.143 z m 230.21,0 c 0,0 -14.004,10.527 -21.467,14.143 -8.5244,4.1299 -16.168,6.8755 -25.6,7.4258 17.098,0.54083 36.407,1.358 54.924,2.4726 32.515,1.9574 62.244,5.4753 67.631,6.1211 l 4.2363,-17.227 -0.008,-0.002 c -8.3231,7.9139 -17.192,13.114 -26.27,13.604 -9.2996,0.50123 -19.802,0.46493 -28.762,-4.5137 -7.0059,-3.893 -18.905,-14.523 -24.686,-22.023 z m -115.11,2.0449 c 5.7366,5.6992 11.969,10.79 18.639,14.764 h -37.277 c 6.6701,-3.9735 12.902,-9.0645 18.639,-14.764 z m -114.55,3.2871 c 3.2802,2.4467 12.246,9.0596 19.166,12.412 0.78991,0.3827 1.526,0.63178 2.2969,0.95313 -10.034,0.40867 -20.071,0.81006 -30.102,1.3476 -0.0143,7.7e-4 -0.0286,9.5e-4 -0.043,0.002 l -1.1738,0.0664 -0.0937,0.0605 c -2.1532,0.15772 -4.4277,0.3329 -6.6836,0.50586 5.8099,-4.3511 11.953,-9.9192 16.633,-15.348 z m 229.09,0.002 c 4.6586,5.4033 10.77,10.941 16.557,15.283 -2.5929,-0.1983 -5.1568,-0.40355 -7.8945,-0.56836 -10.167,-0.61206 -20.15,-0.97401 -30.109,-1.3555 0.76701,-0.32002 1.4992,-0.56846 2.2852,-0.94922 6.9181,-3.3517 15.88,-9.962 19.162,-12.41 z m -302.82,17.502 c 1.4021,0.93593 2.816,1.7972 4.2441,2.5723 -1.1781,0.11651 -2.3577,0.23194 -3.5234,0.36328 z m 376.51,0.19922 -0.68164,2.7715 c -0.81238,-0.0907 -2.1122,-0.22976 -3.3125,-0.35937 1.3484,-0.72861 2.6784,-1.5374 3.9941,-2.4121 z"
         color="#000000"
         fill="#cfb746"
         stroke-width="2"
         style="display:inline;paint-order:markers fill stroke"
         id="path214" />
      <path
         d="m 280.07,339.46 c -10.901,11.468 -23.701,21.003 -37.225,23.686 -1.3098,0.25984 -2.6489,0.47792 -4.0039,0.66992 3.8796,-0.052 7.7615,-0.0861 11.643,-0.0977 h 59.119 c 3.2555,0 7.7563,0.0753 12.041,0.13868 -1.4725,-0.20231 -2.9296,-0.42923 -4.3496,-0.71094 -3.3808,-0.6707 -6.7162,-1.7704 -9.9883,-3.2207 -9.8161,-4.351 -19.06,-11.864 -27.236,-20.465 z m -115.11,3.4492 c -5.7805,7.5001 -17.68,18.13 -24.686,22.023 -8.9592,4.9786 -19.462,5.0149 -28.762,4.5137 -8.6788,-0.46778 -17.689,-5.7698 -26.217,-13.623 l -0.06055,0.0215 4.2227,17.17 c 21.838,-2.7886 46.198,-4.4918 67.486,-6.0234 h 0.0527 l 0.0527,-0.041 c 18.343,-0.98368 36.703,-1.8584 55.076,-2.4629 -9.4787,-0.53632 -17.144,-3.2908 -25.699,-7.4355 -7.4632,-3.6158 -21.467,-14.143 -21.467,-14.143 z m 230.21,0 c 0,0 -14.004,10.527 -21.467,14.143 -8.5244,4.1299 -16.168,6.8755 -25.6,7.4258 8.5492,0.27041 17.651,0.61026 26.93,1.0215 9.2791,0.41123 18.736,0.89385 27.994,1.4512 32.515,1.9574 62.244,5.4753 67.631,6.1211 l 4.2363,-17.227 -0.008,-0.002 c -8.3231,7.9139 -17.192,13.114 -26.27,13.604 -9.2996,0.50123 -19.802,0.46492 -28.762,-4.5137 -7.0058,-3.893 -18.905,-14.523 -24.686,-22.023 z m -115.11,0.70508 c 6.7777,6.8332 14.254,12.86 22.295,17.104 h -44.59 c 8.0412,-4.2438 15.517,-10.27 22.295,-17.104 z m -114.66,3.3144 c 2.8401,2.124 12.658,9.4054 19.715,12.824 2.1614,1.0472 4.2724,1.8038 6.3945,2.6523 -11.544,0.46984 -23.092,0.93034 -34.625,1.5488 h -0.002 l -0.89843,0.0508 -0.0859,0.0566 c -3.2598,0.23797 -6.721,0.50675 -10.156,0.76953 6.5856,-4.5391 14.333,-11.584 19.658,-17.902 z m 229.32,0.002 c 5.2989,6.2865 12.993,13.282 19.557,17.822 -3.6393,-0.27813 -7.2382,-0.56618 -11.07,-0.79688 -11.667,-0.70233 -23.149,-1.1172 -34.576,-1.5566 2.1163,-0.84665 4.2214,-1.6022 6.377,-2.6465 7.0556,-3.4184 16.871,-10.697 19.713,-12.822 z m -304.52,16.568 c 3.0151,2.2174 6.0911,4.0339 9.2207,5.4766 -2.5782,0.24723 -5.1602,0.48983 -7.6816,0.7871 z m 379.67,0.19922 -1.502,6.1074 c -1.485,-0.16958 -4.5108,-0.49389 -7.459,-0.81054 3.0648,-1.3962 6.0548,-3.1518 8.9609,-5.2969 z"
         color="#000000"
         fill="#f8eca8"
         stroke-width="2"
         style="display:inline;paint-order:markers fill stroke"
         id="path215" />
      <path
         d="m 280.07,339.46 c -10.901,11.468 -23.701,21.003 -37.225,23.686 -1.3098,0.25984 -2.6489,0.47792 -4.0039,0.66992 3.8796,-0.052 7.7615,-0.0861 11.643,-0.0977 h 59.119 c 3.2555,0 7.7563,0.0753 12.041,0.13868 -1.4725,-0.20231 -2.9296,-0.42923 -4.3496,-0.71094 -13.523,-2.6828 -26.323,-12.218 -37.225,-23.686 z m -115.11,3.4492 c -5.7805,7.5001 -17.68,18.13 -24.686,22.023 -8.9593,4.9786 -19.462,5.0149 -28.762,4.5137 -8.6788,-0.46778 -17.689,-5.7697 -26.217,-13.623 l -0.06055,0.0215 4.2227,17.17 c 21.838,-2.7886 46.198,-4.4918 67.486,-6.0234 h 0.0527 l 0.0527,-0.041 c 18.343,-0.9837 36.703,-1.8584 55.076,-2.4629 -9.4787,-0.53632 -17.144,-3.2908 -25.699,-7.4355 -7.4632,-3.6158 -21.467,-14.143 -21.467,-14.143 z m 230.21,0 c 0,0 -14.004,10.527 -21.467,14.143 -8.5244,4.1299 -16.168,6.8755 -25.6,7.4258 17.098,0.54083 36.407,1.358 54.924,2.4726 32.515,1.9574 62.244,5.4753 67.631,6.1211 l 4.2363,-17.227 -0.008,-0.002 c -8.3231,7.9139 -17.192,13.114 -26.27,13.604 -9.2996,0.50123 -19.802,0.46494 -28.762,-4.5137 -7.0059,-3.893 -18.905,-14.523 -24.686,-22.023 z"
         fill="none"
         stop-color="#000000"
         stroke="#806600"
         stroke-width="1.9532"
         style="font-variation-settings:normal;display:inline;paint-order:markers fill stroke"
         id="path216" />
      <path
         d="m 280.07,339.46 c -10.901,11.468 -23.701,21.003 -37.225,23.686 -1.3098,0.25984 -2.6489,0.47792 -4.0039,0.66992 3.8796,-0.052 7.7615,-0.0861 11.643,-0.0977 h 59.119 c 3.2555,0 7.7563,0.0753 12.041,0.13868 -1.4725,-0.20231 -2.9296,-0.42923 -4.3496,-0.71094 -13.523,-2.6828 -26.323,-12.218 -37.225,-23.686 z m -115.11,3.4492 c -5.7805,7.5001 -17.68,18.13 -24.686,22.023 -8.9592,4.9786 -19.462,5.0149 -28.762,4.5137 -8.6788,-0.46778 -17.689,-5.7697 -26.217,-13.623 l -0.06055,0.0215 4.2227,17.17 c 21.838,-2.7886 46.198,-4.4918 67.486,-6.0234 h 0.0527 l 0.0527,-0.041 c 18.343,-0.98369 36.703,-1.8584 55.076,-2.4629 -9.4787,-0.53632 -17.144,-3.2908 -25.699,-7.4355 -7.4632,-3.6158 -21.467,-14.143 -21.467,-14.143 z m 230.21,0 c 0,0 -14.004,10.527 -21.467,14.143 -8.5244,4.1299 -16.168,6.8755 -25.6,7.4258 17.098,0.54083 36.407,1.358 54.924,2.4726 32.515,1.9574 62.244,5.4753 67.631,6.1211 l 4.2363,-17.227 -0.008,-0.002 c -8.3231,7.9139 -17.192,13.114 -26.27,13.604 -9.2996,0.50123 -19.802,0.46493 -28.762,-4.5137 -7.0059,-3.893 -18.905,-14.523 -24.686,-22.023 z"
         fill="none"
         stop-color="#000000"
         stroke="#806600"
         stroke-width="1.9532"
         style="font-variation-settings:normal;display:inline;paint-order:markers fill stroke"
         id="path217" />
      <g
         transform="translate(0,20)"
         id="g309"
         style="display:inline">
        <g
           transform="matrix(1.9532,0,0,1.9532,-635.15,-161.17)"
           id="g308">
          <g
             transform="matrix(0.89055,0,0,0.89055,215.28,-161.4)"
             stroke-width="1.1229"
             id="g220">
            <path
               d="m 284.42,457.55 c -6.267,6.5929 -13.626,12.075 -21.401,13.617 -5.5623,1.1035 -11.937,1.0869 -17.6,0.77666 -5.4768,-0.3001 -9.8972,-1.888 -14.833,-4.2795 -4.2906,-2.0787 -12.341,-8.1311 -12.341,-8.1311 -3.3232,4.3118 -10.164,10.424 -14.191,12.662 -5.1507,2.8622 -11.188,2.883 -16.535,2.5948 -10.004,-0.53919 -20.803,-12.099 -28.507,-24.707 -0.66504,-1.0884 0.52193,-2.8943 -0.1243,-3.9881 7.1753,-1.5691 9.8594,15.947 28.025,21.382 5.7105,1.7087 15.71,-1.129 19.083,-4.823 7.2786,-7.971 7.1893,-17.857 8.5102,-23.41 1.5131,4.5086 3.6489,8.9255 12.153,16.453 4.3424,3.8438 10.245,8.0651 21.026,9.5322 8.1723,1.1121 19.086,-1.3544 25.827,-7.2839 5.452,-4.7962 8.8111,-11.398 10.907,-20.158 2.0964,8.7599 5.4554,15.362 10.907,20.158 6.7403,5.9295 17.654,8.396 25.827,7.2839 10.781,-1.4671 16.684,-5.6883 21.026,-9.5322 8.5039,-7.5277 10.64,-11.944 12.153,-16.453 1.321,5.5532 1.2316,15.439 8.5102,23.41 3.3731,3.6939 13.373,6.5317 19.083,4.823 18.166,-5.4356 20.85,-22.951 28.025,-21.382 -0.64623,1.0938 0.54074,2.8997 -0.1243,3.9881 -7.7036,12.608 -18.503,24.168 -28.507,24.707 -5.3463,0.28816 -11.384,0.26736 -16.535,-2.5948 -4.0277,-2.2381 -10.868,-8.3498 -14.191,-12.662 0,0 -8.0508,6.0524 -12.341,8.1311 -4.9362,2.3915 -9.3566,3.9794 -14.833,4.2795 -5.6626,0.3102 -12.037,0.32683 -17.6,-0.77666 -7.7744,-1.5423 -15.134,-7.024 -21.401,-13.617 z"
               fill="#f6e078"
               id="path218" />
            <path
               d="m 284.42,437.79 c -2.0964,8.7599 -5.4546,15.363 -10.907,20.159 -6.7403,5.9295 -17.654,8.3956 -25.827,7.2835 -10.781,-1.4671 -16.683,-5.6898 -21.026,-9.5336 -8.5039,-7.5276 -10.639,-11.944 -12.152,-16.453 -1.3209,5.5532 -1.233,15.439 -8.5116,23.41 -3.3731,3.6939 -13.372,6.5337 -19.083,4.825 -18.166,-5.4356 -20.851,-22.952 -28.026,-21.383 0.64623,1.0938 1.1311,4.5699 1.7962,5.6583 1.0107,1.6541 1.6628,2.8776 2.3598,4.0617 0.12068,-0.17122 0.31268,-0.37684 0.42328,-0.54609 0.16474,-0.2521 0.30255,-0.57889 0.45179,-0.85533 0.63341,0.81072 1.0223,1.2298 1.7743,2.1822 3.9793,5.0403 9.951,11.613 20.094,14.648 4.0316,1.2063 8.4194,0.73639 12.545,-0.35091 4.1255,-1.0873 7.9143,-2.6857 10.567,-5.5904 4.3132,-4.7235 6.3739,-10.022 7.5313,-14.699 1.8949,2.4223 4.2148,5.0143 7.6256,8.0335 4.5962,4.0686 11.514,8.9106 23.103,10.488 9.4047,1.2798 21.035,-1.2643 28.95,-8.2265 3.5423,-3.1162 6.2057,-6.9755 8.3121,-11.376 2.1071,4.4004 4.7722,8.2599 8.3143,11.376 7.9142,6.9622 19.545,9.5063 28.95,8.2265 11.589,-1.5771 18.506,-6.4191 23.103,-10.488 3.4116,-3.02 5.7306,-5.6129 7.6256,-8.0357 1.1573,4.6772 3.2175,9.9766 7.5313,14.701 2.6523,2.9046 6.4389,4.503 10.564,5.5904 4.1255,1.0873 8.5132,1.5572 12.545,0.35091 9.6857,-2.8982 15.507,-8.9934 19.482,-13.929 -0.15953,0.72587 -0.3297,1.3029 -0.49346,2.1054 -0.10481,0.51368 -0.20175,1.1714 -0.30484,1.7129 2.4168,-3.0073 4.7304,-6.3178 6.8843,-9.8429 0.66504,-1.0884 0.68502,-4.1018 1.3312,-5.1956 -7.1753,-1.5691 -9.8583,15.948 -28.024,21.383 -5.7105,1.7087 -15.71,-1.131 -19.083,-4.825 -7.2786,-7.971 -7.1907,-17.857 -8.5116,-23.41 -1.513,4.5086 -3.6483,8.9254 -12.152,16.453 -4.3424,3.8438 -10.245,8.0666 -21.026,9.5336 -8.1723,1.1121 -19.086,-1.354 -25.827,-7.2835 -5.452,-4.7962 -8.8124,-11.4 -10.909,-20.159 z"
               color="#000000"
               fill="#ffe9a7"
               stop-color="#000000"
               style="font-variation-settings:normal"
               id="path219" />
            <path
               d="m 284.42,457.55 c -6.267,6.5929 -13.626,12.075 -21.401,13.617 -5.5623,1.1035 -11.937,1.0869 -17.6,0.77666 -5.4768,-0.3001 -9.8972,-1.888 -14.833,-4.2795 -4.2906,-2.0787 -12.341,-8.1311 -12.341,-8.1311 -3.3232,4.3118 -10.164,10.424 -14.191,12.662 -5.1507,2.8622 -11.188,2.883 -16.535,2.5948 -7.3402,-0.39563 -15.109,-6.725 -21.769,-15.048 -2.4164,-3.0199 -3.0167,-4.6322 -5.0677,-7.9888 -0.66505,-1.0884 -1.1482,-4.5644 -1.7944,-5.6582 7.1753,-1.5691 9.8594,15.947 28.025,21.382 5.7105,1.7087 15.71,-1.129 19.083,-4.823 7.2786,-7.971 7.1893,-17.857 8.5102,-23.41 1.5131,4.5086 3.6489,8.9255 12.153,16.453 4.3424,3.8438 10.245,8.0651 21.026,9.5322 8.1723,1.1121 19.086,-1.3544 25.827,-7.2839 5.452,-4.7962 8.8111,-11.398 10.907,-20.158 2.0964,8.7599 5.4554,15.362 10.907,20.158 6.7403,5.9295 17.654,8.396 25.827,7.2839 10.781,-1.4671 16.684,-5.6883 21.026,-9.5322 8.5039,-7.5277 10.64,-11.944 12.153,-16.453 1.321,5.5532 1.2316,15.439 8.5102,23.41 3.3731,3.6939 13.373,6.5317 19.083,4.823 18.166,-5.4356 20.85,-22.951 28.025,-21.382 -0.64623,1.0938 -0.66731,4.1077 -1.3324,5.1961 -7.7036,12.608 -17.295,22.96 -27.299,23.499 -5.3463,0.28816 -11.384,0.26736 -16.535,-2.5948 -4.0277,-2.2381 -10.868,-8.3498 -14.191,-12.662 0,0 -8.0508,6.0524 -12.341,8.1311 -4.9362,2.3915 -9.3566,3.9794 -14.833,4.2795 -5.6626,0.3102 -12.037,0.32683 -17.6,-0.77666 -7.7744,-1.5423 -15.134,-7.024 -21.401,-13.617 z"
               fill="none"
               stroke="#806600"
               stroke-width="1.1229"
               id="path220" />
          </g>
          <g
             transform="translate(-758.65,-123.27)"
             id="g288">
            <g
               id="g237">
              <g
                 transform="matrix(0.85533,0,0,0.85533,802.15,90.438)"
                 stroke-width="1.1691"
                 id="g228">
                <g
                   fill-rule="evenodd"
                   id="g227">
                  <path
                     d="m 390.39,381.08 c 0,0 12.056,-0.88424 33.297,-2.0834 21.242,-1.1992 44,-1.8289 55.609,-1.8289 h 35.387 c 11.245,0 34.538,0.62974 55.609,1.8289 21.071,1.1992 33.055,2.2045 33.055,2.2045 l 7.3876,-33.005 c 0,0 -75.7,-6.8309 -113.75,-6.8309 -38.05,0 -113.75,6.8309 -113.75,6.8309 z"
                     fill="#d1b948"
                     id="path221" />
                  <g
                     id="g225">
                    <path
                       d="m 482.92,341.44 29.641,0.14614 0.0643,35.396 h -28.107 z"
                       fill="#c5a941"
                       id="path222" />
                    <path
                       d="m 399.02,346.47 85.628,-5.2802 -0.0547,34.195 -83.535,3.8807 z"
                       fill="#e7cd54"
                       id="path223" />
                    <path
                       d="m 405.94,345.53 57.768,-3.8534 1.5287,34.637 -57.258,2.6756 z"
                       fill="#f6e078"
                       id="path224" />
                    <path
                       d="m 413.79,344.77 32.903,-2.1182 1.5287,34.7 -16.197,0.58798 -16.197,0.58798 z"
                       fill="#f8eca8"
                       id="path225" />
                  </g>
                  <path
                     d="m 478.97,373 c -11.723,0 -34.477,0.62611 -55.783,1.8289 -13.345,0.76851 -20.741,2.0497 -34.044,3.3554 l 1.3309,2.8063 c 13.389,-1.2191 19.657,-1.4181 33.076,-2.2262 21.178,-1.1956 43.924,-1.8289 55.419,-1.8289 h 35.387 c 11.128,0 34.433,0.63364 55.435,1.8289 20.937,1.1916 33.698,2.3473 33.698,2.3473 l 0.64144,-2.6573 c 0,0 -12.772,-2.4188 -33.976,-3.6256 -21.139,-1.2031 -44.436,-1.8289 -55.798,-1.8289 h -35.387 z"
                     fill="#d1b948"
                     id="path226" />
                  <path
                     d="m 423.19,344.46 c -21.376,1.2068 -39.864,3.6462 -39.864,3.6462 l 1.3372,5.8374 c 0,0 17.782,-2.3174 38.889,-3.509 21.178,-1.1956 43.924,-1.671 55.419,-1.671 h 35.387 c 11.128,0 34.784,0.72957 55.786,1.9248 20.937,1.1916 39.16,3.2552 39.16,3.2552 l 1.0163,-5.8374 c 0,0 -18.96,-2.4394 -40.164,-3.6462 -21.139,-1.2031 -44.436,-2.6863 -55.798,-2.6863 h -35.387 c -18.632,0.32121 -37.21,1.6156 -55.782,2.6863 z"
                     fill="#d0b500"
                     id="path227" />
                </g>
                <path
                   d="m 496.5,341.73 c 38.012,-0.0193 76.02,2.041 113.86,6.2343 l -6.9279,33.312 c -37.64,-3.3788 -68.451,-4.2827 -106.51,-4.5808 m 0.5045,-34.966 c -38.012,-0.0193 -76.02,2.041 -113.86,6.2343 l 6.9279,33.312 c 37.64,-3.3788 68.451,-4.2827 106.51,-4.5808"
                   fill="none"
                   stroke="#806600"
                   stroke-width="1.1691"
                   id="path228" />
              </g>
              <g
                 transform="matrix(0.8648,0,0,0.66189,1721.5,11.586)"
                 stroke-width="1.3218"
                 id="g232">
                <g
                   id="g231">
                  <path
                     d="m -644.32,561.77 -0.0312,0.0312 h -0.0312 c -13.369,1.2568 -28.842,2.6278 -42.344,5.0312 -1.9091,2.9817 -2.0675,5.7008 1.4062,7.875 12.963,-2.3075 28.246,-3.7112 41.625,-4.9688 18.145,-1.3742 36.44,-2.2332 54.688,-2.4688 h 35 c 10.916,0 33.968,0.8703 54.688,2.5 20.625,1.6223 41.688,4.9375 41.688,4.9375 3.5944,-2.398 3.2039,-5.0807 1.25,-7.875 0,0 -21.258,-3.4064 -42.312,-5.0625 -20.96,-1.6487 -43.984,-2.5 -55.312,-2.5 h -35 c -18.464,0.0721 -36.901,1.21 -55.313,2.5001 z"
                     color="#000000"
                     fill="#f6e078"
                     style="text-indent:0;text-decoration-line:none;text-transform:none"
                     id="path229" />
                  <path
                     d="m -454.93,569.96 c 0.10745,-1.3197 -0.47864,-1.7281 -1.4556,-3.1253 0,0 -21.258,-3.4064 -42.312,-5.0625 -20.96,-1.6487 -43.984,-2.5 -55.312,-2.5 h -35 c -18.464,0.0721 -36.901,1.21 -55.313,2.5001 l -0.0312,0.0312 h -0.0312 c -13.369,1.2568 -28.842,2.6278 -42.344,5.0312 -0.95457,1.4908 -1.4714,1.6349 -1.3154,2.9592 15.614,-1.897 28.807,-4.0506 43.915,-5.2316 23.98,-1.8745 49.508,-2.2351 72.356,-2.3283 22.783,-0.0929 45.047,0.69285 66.878,2.3436 16.901,1.2779 33.542,3.0742 49.965,5.3824 z"
                     color="#000000"
                     fill="#f8eca8"
                     style="text-indent:0;text-decoration-line:none;text-transform:none"
                     id="path230" />
                  <path
                     d="m -687.27,572.98 c 0.44377,0.60668 1.0848,1.1838 1.9525,1.7269 12.963,-2.3075 28.246,-3.7112 41.625,-4.9688 18.145,-1.3742 36.44,-2.2332 54.688,-2.4688 h 35 c 10.916,0 33.968,0.8703 54.688,2.5 20.625,1.6223 41.688,4.9375 41.688,4.9375 1.1271,-0.75199 1.4529,-1.1907 1.871,-1.9933 -39.889,-7.1136 -76.13,-7.8257 -114.39,-8.1801 -37.267,-0.34515 -79.257,1.8974 -117.12,8.4466 z"
                     color="#000000"
                     fill="#d1b948"
                     style="text-indent:0;text-decoration-line:none;text-transform:none"
                     id="path231" />
                </g>
                <path
                   d="m -644.32,561.77 -0.0312,0.0312 h -0.0312 c -13.369,1.2568 -28.842,2.6278 -42.344,5.0312 -1.9091,2.9817 -2.0675,5.7008 1.4062,7.875 12.963,-2.3075 28.246,-3.7112 41.625,-4.9688 18.145,-1.3742 36.44,-2.2332 54.688,-2.4688 h 35 c 10.916,0 33.968,0.8703 54.688,2.5 20.625,1.6223 41.688,4.9375 41.688,4.9375 3.5944,-2.398 3.2039,-5.0807 1.25,-7.875 0,0 -21.258,-3.4064 -42.312,-5.0625 -20.96,-1.6487 -43.984,-2.5 -55.312,-2.5 h -35 c -18.464,0.0721 -36.901,1.21 -55.313,2.5001 z"
                   color="#000000"
                   fill="none"
                   stroke="#806600"
                   stroke-width="1.3218"
                   style="text-indent:0;text-decoration-line:none;text-transform:none"
                   id="path232" />
              </g>
              <g
                 transform="matrix(0.80411,0,0,0.66189,1686.8,40.999)"
                 stroke-width="1.3707"
                 id="g236">
                <g
                   id="g235">
                  <path
                     d="m -644.32,561.77 -0.0312,0.0312 h -0.0312 c -13.369,1.2568 -28.842,2.6278 -42.344,5.0312 -1.9091,2.9817 -2.0675,5.7008 1.4062,7.875 12.963,-2.3075 28.246,-3.7112 41.625,-4.9688 18.145,-1.3742 36.44,-2.2332 54.688,-2.4688 h 35 c 10.916,0 33.968,0.8703 54.688,2.5 20.625,1.6223 41.688,4.9375 41.688,4.9375 3.5944,-2.398 3.2039,-5.0807 1.25,-7.875 0,0 -21.258,-3.4064 -42.312,-5.0625 -20.96,-1.6487 -43.984,-2.5 -55.312,-2.5 h -35 c -18.464,0.0721 -36.901,1.21 -55.313,2.5001 z"
                     color="#000000"
                     fill="#f6e078"
                     style="text-indent:0;text-decoration-line:none;text-transform:none"
                     id="path233" />
                  <path
                     d="m -454.93,569.96 c 0.10745,-1.3197 -0.47864,-1.7281 -1.4556,-3.1253 0,0 -21.258,-3.4064 -42.312,-5.0625 -20.96,-1.6487 -43.984,-2.5 -55.312,-2.5 h -35 c -18.464,0.0721 -36.901,1.21 -55.313,2.5001 l -0.0312,0.0312 h -0.0312 c -13.369,1.2568 -28.842,2.6278 -42.344,5.0312 -0.95457,1.4908 -1.4714,1.6349 -1.3154,2.9592 15.614,-1.897 28.807,-4.0506 43.915,-5.2316 23.98,-1.8745 49.508,-2.2351 72.356,-2.3283 22.783,-0.0929 45.047,0.69285 66.878,2.3436 16.901,1.2779 33.542,3.0742 49.965,5.3824 z"
                     color="#000000"
                     fill="#f8eca8"
                     style="text-indent:0;text-decoration-line:none;text-transform:none"
                     id="path234" />
                  <path
                     d="m -687.27,572.98 c 0.44377,0.60668 1.0848,1.1838 1.9525,1.7269 12.963,-2.3075 28.246,-3.7112 41.625,-4.9688 18.145,-1.3742 36.44,-2.2332 54.688,-2.4688 h 35 c 10.916,0 33.968,0.8703 54.688,2.5 20.625,1.6223 41.688,4.9375 41.688,4.9375 1.1271,-0.75199 1.4529,-1.1907 1.871,-1.9933 -39.889,-7.1136 -76.13,-7.8257 -114.39,-8.1801 -37.267,-0.34515 -79.257,1.8974 -117.12,8.4466 z"
                     color="#000000"
                     fill="#d1b948"
                     style="text-indent:0;text-decoration-line:none;text-transform:none"
                     id="path235" />
                </g>
                <path
                   d="m -644.32,561.77 -0.0312,0.0312 h -0.0312 c -13.369,1.2568 -28.842,2.6278 -42.344,5.0312 -1.9091,2.9817 -2.0675,5.7008 1.4062,7.875 12.963,-2.3075 28.246,-3.7112 41.625,-4.9688 18.145,-1.3742 36.44,-1.7781 54.688,-2.0138 h 35 c 10.916,0 33.968,0.41526 54.688,2.045 20.625,1.6223 41.688,4.9375 41.688,4.9375 3.5944,-2.398 3.2039,-5.0807 1.25,-7.875 0,0 -21.258,-3.4064 -42.312,-5.0625 -20.96,-1.6487 -43.984,-2.045 -55.312,-2.045 h -35 c -18.464,0.0721 -36.901,0.75492 -55.313,2.0451 z"
                   color="#000000"
                   fill="none"
                   stroke="#806600"
                   stroke-width="1.3707"
                   style="text-indent:0;text-decoration-line:none;text-transform:none"
                   id="path236" />
              </g>
            </g>
            <g
               transform="matrix(-1,0,0,1,1696.5,122.84)"
               id="g244">
              <path
                 d="m 469.32,265.49 -19.811,10.602 19.811,10.602 19.811,-10.602 z"
                 fill="#f7de63"
                 stop-color="#000000"
                 stroke="#806600"
                 stroke-width="1.024"
                 style="font-variation-settings:normal"
                 id="path237" />
              <g
                 transform="translate(0,0.27446)"
                 id="g242">
                <g
                   id="g241">
                  <path
                     d="m 469.32,282.9 -14.197,-7.0887 14.197,-7.0877 14.197,7.0877 z"
                     fill="#bc0028"
                     stop-color="#000000"
                     style="font-variation-settings:normal"
                     id="path238" />
                  <path
                     d="m 469.32,282.9 14.197,-7.0884 H 469.32 Z"
                     fill="#800000"
                     stop-color="#000000"
                     style="font-variation-settings:normal"
                     id="path239" />
                  <path
                     transform="matrix(0.7191,0,0,0.7191,4.334,373.95)"
                     d="m 646.62,-146.33 -19.742,9.8573 h 19.742 z"
                     fill="#ff0a3e"
                     id="path240" />
                  <path
                     d="m 469.32,268.73 -0.74896,6.3397 -13.448,0.74797 13.448,0.74896 0.74896,6.3397 0.74897,-6.3397 13.448,-0.74896 -13.448,-0.74797 z"
                     fill="#f4d7d7"
                     stop-color="#000000"
                     style="font-variation-settings:normal;paint-order:markers fill stroke"
                     id="path241" />
                </g>
                <path
                   transform="matrix(0.80211,0,0,0.80211,301.59,115.51)"
                   d="m 209.11,191.02 -17.7,8.8363 17.7,8.8375 17.7,-8.8375 z"
                   fill="none"
                   stop-color="#000000"
                   stroke="#806600"
                   stroke-width="1.2766"
                   style="font-variation-settings:normal"
                   id="path242" />
              </g>
              <g
                 transform="matrix(-1,0,0,1,938.64,0.27446)"
                 id="g243" />
            </g>
            <g
               transform="matrix(0.59728,0,0,0.59728,887.74,153.53)"
               stroke-width="1.1691"
               id="g287">
              <g
                 transform="matrix(1.432,0,0,1.432,-142.8,-103.92)"
                 id="g265">
                <g
                   transform="matrix(-0.81814,0.14282,0.15467,0.88602,852.1,11.28)"
                   stroke-width="1.3527"
                   id="g248">
                  <g
                     id="g246">
                    <path
                       d="m 626.17,310.88 -23.701,-12.771 23.701,-12.082 2.8814,13.147 z"
                       fill="#f6e078"
                       stroke="#806600"
                       stroke-width="1.3527"
                       id="path244" />
                    <path
                       d="m 626.17,307.47 -17.183,-9.2586 17.183,-8.759 5.657,8.5789 z"
                       fill="#ff0a3e"
                       id="path245" />
                    <path
                       d="m 626.17,307.47 -17.183,-9.2586 22.66,-0.18009 z"
                       fill="#bc0028"
                       stop-color="#000000"
                       style="font-variation-settings:normal"
                       id="path246" />
                  </g>
                  <path
                     transform="translate(156.53,47.58)"
                     d="m 452.4,250.56 22.953,-0.0249"
                     fill="none"
                     stroke="#fff6d5"
                     stroke-width="1.3527"
                     id="path247" />
                  <path
                     d="m 626.17,307.47 -17.183,-9.2586 17.183,-8.759 5.8371,8.3988 z"
                     fill="none"
                     stroke="#a48d2f"
                     stroke-width="1.3527"
                     id="path248" />
                </g>
                <g
                   transform="translate(0.77786,-117.02)"
                   stroke-width="1.4434"
                   id="g264">
                  <g
                     transform="matrix(0.9,0,0,0.9,292.52,-504.08)"
                     id="g256">
                    <g
                       transform="matrix(0.9,0,0,0.9,18.93,108.07)"
                       id="g252">
                      <g
                         transform="matrix(0.45,0,0,0.45,-1021.1,731)"
                         stroke-width="3.2075"
                         id="g251">
                        <g
                           fill-rule="evenodd"
                           id="g250">
                          <ellipse
                             transform="translate(0,-2.0633)"
                             cx="2689.7"
                             cy="785.03003"
                             rx="10.489"
                             ry="10.66"
                             fill="#e5e5e5"
                             stop-color="#000000"
                             style="font-variation-settings:normal"
                             id="ellipse248" />
                          <path
                             d="m 2680.8,788.62 1.995,2.5122 3.8421,2.1427 3.3249,0.14778 3.5466,-0.36944 3.7682,-2.9555 1.6255,-2.5122 1.0345,-3.916 v -4.0638 l -1.6256,-2.2905 -2.3643,-2.7338 -2.9556,-1.1822 c 0,0 1.536,2.7184 1.9211,3.9899 0.3698,1.2211 0.3941,2.812 0.1478,4.0638 -0.2379,1.2086 -0.8568,2.7319 -1.6255,3.6944 -0.8515,1.0661 -2.4648,2.3639 -3.6943,2.9555 -1.3729,0.66057 -3.1321,0.84093 -4.6549,0.88664 -1.2898,0.0387 -4.2855,-0.36943 -4.2855,-0.36943 z"
                             fill="#cccccc"
                             stop-color="#000000"
                             style="font-variation-settings:normal"
                             id="path249" />
                          <path
                             transform="matrix(1.6596,0,0,1.6237,-1773.2,-485.36)"
                             d="m 2690.3,778.01 c 0,1.8965 -1.5558,3.4358 -3.4727,3.4358 -1.9169,0 -3.4727,-1.5392 -3.4727,-3.4358 0,-0.97409 0.7666,-0.9438 1.4256,-1.5692 0.624,-0.59226 1.6935,-1.6845 2.6259,-1.6845 1.9169,0 2.8939,1.3572 2.8939,3.2537 z"
                             fill="#ffffff"
                             stop-color="#000000"
                             style="font-variation-settings:normal"
                             id="path250" />
                        </g>
                        <ellipse
                           transform="translate(0,-2.0633)"
                           cx="2689.7"
                           cy="785.03003"
                           rx="10.489"
                           ry="10.66"
                           fill="none"
                           stroke="#808080"
                           stroke-width="3.2075"
                           id="ellipse250" />
                      </g>
                    </g>
                    <g
                       transform="matrix(0.9,0,0,0.9,19.798,121.61)"
                       id="g255">
                      <g
                         transform="matrix(0.45,0,0,0.45,-1021.1,731)"
                         stroke-width="3.2075"
                         id="g254">
                        <g
                           fill-rule="evenodd"
                           id="g253">
                          <ellipse
                             transform="translate(0,-2.0633)"
                             cx="2689.7"
                             cy="785.03003"
                             rx="10.489"
                             ry="10.66"
                             fill="#e5e5e5"
                             stop-color="#000000"
                             style="font-variation-settings:normal"
                             id="ellipse252" />
                          <path
                             d="m 2680.8,788.62 1.995,2.5122 3.8421,2.1427 3.3249,0.14778 3.5466,-0.36944 3.7682,-2.9555 1.6255,-2.5122 1.0345,-3.916 v -4.0638 l -1.6256,-2.2905 -2.3643,-2.7338 -2.9556,-1.1822 c 0,0 1.536,2.7184 1.9211,3.9899 0.3698,1.2211 0.3941,2.812 0.1478,4.0638 -0.2379,1.2086 -0.8568,2.7319 -1.6255,3.6944 -0.8515,1.0661 -2.4648,2.3639 -3.6943,2.9555 -1.3729,0.66057 -3.1321,0.84093 -4.6549,0.88664 -1.2898,0.0387 -4.2855,-0.36943 -4.2855,-0.36943 z"
                             fill="#cccccc"
                             stop-color="#000000"
                             style="font-variation-settings:normal"
                             id="path252" />
                          <path
                             transform="matrix(1.6596,0,0,1.6237,-1773.2,-485.36)"
                             d="m 2690.3,778.01 c 0,1.8965 -1.5558,3.4358 -3.4727,3.4358 -1.9169,0 -3.4727,-1.5392 -3.4727,-3.4358 0,-0.97409 0.7666,-0.9438 1.4256,-1.5692 0.624,-0.59226 1.6935,-1.6845 2.6259,-1.6845 1.9169,0 2.8939,1.3572 2.8939,3.2537 z"
                             fill="#ffffff"
                             stop-color="#000000"
                             style="font-variation-settings:normal"
                             id="path253" />
                        </g>
                        <ellipse
                           transform="translate(0,-2.0633)"
                           cx="2689.7"
                           cy="785.03003"
                           rx="10.489"
                           ry="10.66"
                           fill="none"
                           stroke="#808080"
                           stroke-width="3.2075"
                           id="ellipse253" />
                      </g>
                    </g>
                  </g>
                  <g
                     transform="matrix(0.9,0,0,0.9,241.08,-501.27)"
                     id="g263">
                    <g
                       transform="matrix(0.9,0,0,0.9,18.93,108.07)"
                       id="g259">
                      <g
                         transform="matrix(0.45,0,0,0.45,-1021.1,731)"
                         stroke-width="3.2075"
                         id="g258">
                        <g
                           fill-rule="evenodd"
                           id="g257">
                          <ellipse
                             transform="translate(0,-2.0633)"
                             cx="2689.7"
                             cy="785.03003"
                             rx="10.489"
                             ry="10.66"
                             fill="#e5e5e5"
                             id="ellipse256" />
                          <path
                             d="m 2680.8,788.62 1.995,2.5122 3.8421,2.1427 3.3249,0.14778 3.5466,-0.36944 3.7682,-2.9555 1.6255,-2.5122 1.0345,-3.916 v -4.0638 l -1.6256,-2.2905 -2.3643,-2.7338 -2.9556,-1.1822 c 0,0 1.536,2.7184 1.9211,3.9899 0.3698,1.2211 0.3941,2.812 0.1478,4.0638 -0.2379,1.2086 -0.8568,2.7319 -1.6255,3.6944 -0.8515,1.0661 -2.4648,2.3639 -3.6943,2.9555 -1.3729,0.66057 -3.1321,0.84093 -4.6549,0.88664 -1.2898,0.0387 -4.2855,-0.36943 -4.2855,-0.36943 z"
                             fill="#cccccc"
                             id="path256" />
                          <path
                             transform="matrix(1.6596,0,0,1.6237,-1773.2,-485.36)"
                             d="m 2690.3,778.01 c 0,1.8965 -1.5558,3.4358 -3.4727,3.4358 -1.9169,0 -3.4727,-1.5392 -3.4727,-3.4358 0,-0.97409 0.7666,-0.9438 1.4256,-1.5692 0.624,-0.59226 1.6935,-1.6845 2.6259,-1.6845 1.9169,0 2.8939,1.3572 2.8939,3.2537 z"
                             fill="#ffffff"
                             id="path257" />
                        </g>
                        <ellipse
                           transform="translate(0,-2.0633)"
                           cx="2689.7"
                           cy="785.03003"
                           rx="10.489"
                           ry="10.66"
                           fill="none"
                           stroke="#808080"
                           stroke-width="3.2075"
                           id="ellipse257" />
                      </g>
                    </g>
                    <g
                       transform="matrix(0.9,0,0,0.9,19.798,121.61)"
                       id="g262">
                      <g
                         transform="matrix(0.45,0,0,0.45,-1021.1,731)"
                         stroke-width="3.2075"
                         id="g261">
                        <g
                           fill-rule="evenodd"
                           id="g260">
                          <ellipse
                             transform="translate(0,-2.0633)"
                             cx="2689.7"
                             cy="785.03003"
                             rx="10.489"
                             ry="10.66"
                             fill="#e5e5e5"
                             id="ellipse259" />
                          <path
                             d="m 2680.8,788.62 1.995,2.5122 3.8421,2.1427 3.3249,0.14778 3.5466,-0.36944 3.7682,-2.9555 1.6255,-2.5122 1.0345,-3.916 v -4.0638 l -1.6256,-2.2905 -2.3643,-2.7338 -2.9556,-1.1822 c 0,0 1.536,2.7184 1.9211,3.9899 0.3698,1.2211 0.3941,2.812 0.1478,4.0638 -0.2379,1.2086 -0.8568,2.7319 -1.6255,3.6944 -0.8515,1.0661 -2.4648,2.3639 -3.6943,2.9555 -1.3729,0.66057 -3.1321,0.84093 -4.6549,0.88664 -1.2898,0.0387 -4.2855,-0.36943 -4.2855,-0.36943 z"
                             fill="#cccccc"
                             id="path259" />
                          <path
                             transform="matrix(1.6596,0,0,1.6237,-1773.2,-485.36)"
                             d="m 2690.3,778.01 c 0,1.8965 -1.5558,3.4358 -3.4727,3.4358 -1.9169,0 -3.4727,-1.5392 -3.4727,-3.4358 0,-0.97409 0.7666,-0.9438 1.4256,-1.5692 0.624,-0.59226 1.6935,-1.6845 2.6259,-1.6845 1.9169,0 2.8939,1.3572 2.8939,3.2537 z"
                             fill="#ffffff"
                             id="path260" />
                        </g>
                        <ellipse
                           transform="translate(0,-2.0633)"
                           cx="2689.7"
                           cy="785.03003"
                           rx="10.489"
                           ry="10.66"
                           fill="none"
                           stroke="#808080"
                           stroke-width="3.2075"
                           id="ellipse260" />
                      </g>
                    </g>
                  </g>
                </g>
              </g>
              <g
                 transform="matrix(-1.432,0,0,1.432,1279.5,-103.92)"
                 id="g286">
                <g
                   transform="matrix(-0.81814,0.14282,0.15467,0.88602,852.1,11.28)"
                   stroke-width="1.3527"
                   id="g269">
                  <g
                     id="g267">
                    <path
                       d="m 626.17,310.88 -23.701,-12.771 23.701,-12.082 2.8814,13.147 z"
                       fill="#f6e078"
                       stroke="#806600"
                       stroke-width="1.3527"
                       id="path265" />
                    <path
                       d="m 626.17,307.47 -17.183,-9.2586 17.183,-8.759 5.657,8.5789 z"
                       fill="#ff0a3e"
                       id="path266" />
                    <path
                       d="m 626.17,307.47 -17.183,-9.2586 22.66,-0.18009 z"
                       fill="#bc0028"
                       id="path267" />
                  </g>
                  <path
                     transform="translate(156.53,47.58)"
                     d="m 452.4,250.56 22.953,-0.0249"
                     fill="none"
                     stroke="#fff6d5"
                     stroke-width="1.3527"
                     id="path268" />
                  <path
                     d="m 626.17,307.47 -17.183,-9.2586 17.183,-8.759 5.8371,8.3988 z"
                     fill="none"
                     stroke="#a48d2f"
                     stroke-width="1.3527"
                     id="path269" />
                </g>
                <g
                   transform="translate(0.77786,-117.02)"
                   stroke-width="1.4434"
                   id="g285">
                  <g
                     transform="matrix(0.9,0,0,0.9,292.52,-504.08)"
                     id="g277">
                    <g
                       transform="matrix(0.9,0,0,0.9,18.93,108.07)"
                       id="g273">
                      <g
                         transform="matrix(0.45,0,0,0.45,-1021.1,731)"
                         stroke-width="3.2075"
                         id="g272">
                        <g
                           fill-rule="evenodd"
                           id="g271">
                          <ellipse
                             transform="translate(0,-2.0633)"
                             cx="2689.7"
                             cy="785.03003"
                             rx="10.489"
                             ry="10.66"
                             fill="#e5e5e5"
                             stop-color="#000000"
                             style="font-variation-settings:normal"
                             id="ellipse269" />
                          <path
                             d="m 2680.8,788.62 1.995,2.5122 3.8421,2.1427 3.3249,0.14778 3.5466,-0.36944 3.7682,-2.9555 1.6255,-2.5122 1.0345,-3.916 v -4.0638 l -1.6256,-2.2905 -2.3643,-2.7338 -2.9556,-1.1822 c 0,0 1.536,2.7184 1.9211,3.9899 0.3698,1.2211 0.3941,2.812 0.1478,4.0638 -0.2379,1.2086 -0.8568,2.7319 -1.6255,3.6944 -0.8515,1.0661 -2.4648,2.3639 -3.6943,2.9555 -1.3729,0.66057 -3.1321,0.84093 -4.6549,0.88664 -1.2898,0.0387 -4.2855,-0.36943 -4.2855,-0.36943 z"
                             fill="#cccccc"
                             stop-color="#000000"
                             style="font-variation-settings:normal"
                             id="path270" />
                          <path
                             transform="matrix(1.6596,0,0,1.6237,-1773.2,-485.36)"
                             d="m 2690.3,778.01 c 0,1.8965 -1.5558,3.4358 -3.4727,3.4358 -1.9169,0 -3.4727,-1.5392 -3.4727,-3.4358 0,-0.97409 0.7666,-0.9438 1.4256,-1.5692 0.624,-0.59226 1.6935,-1.6845 2.6259,-1.6845 1.9169,0 2.8939,1.3572 2.8939,3.2537 z"
                             fill="#ffffff"
                             stop-color="#000000"
                             style="font-variation-settings:normal"
                             id="path271" />
                        </g>
                        <ellipse
                           transform="translate(0,-2.0633)"
                           cx="2689.7"
                           cy="785.03003"
                           rx="10.489"
                           ry="10.66"
                           fill="none"
                           stroke="#808080"
                           stroke-width="3.2075"
                           id="ellipse271" />
                      </g>
                    </g>
                    <g
                       transform="matrix(0.9,0,0,0.9,19.798,121.61)"
                       id="g276">
                      <g
                         transform="matrix(0.45,0,0,0.45,-1021.1,731)"
                         stroke-width="3.2075"
                         id="g275">
                        <g
                           fill-rule="evenodd"
                           id="g274">
                          <ellipse
                             transform="translate(0,-2.0633)"
                             cx="2689.7"
                             cy="785.03003"
                             rx="10.489"
                             ry="10.66"
                             fill="#e5e5e5"
                             stop-color="#000000"
                             style="font-variation-settings:normal"
                             id="ellipse273" />
                          <path
                             d="m 2680.8,788.62 1.995,2.5122 3.8421,2.1427 3.3249,0.14778 3.5466,-0.36944 3.7682,-2.9555 1.6255,-2.5122 1.0345,-3.916 v -4.0638 l -1.6256,-2.2905 -2.3643,-2.7338 -2.9556,-1.1822 c 0,0 1.536,2.7184 1.9211,3.9899 0.3698,1.2211 0.3941,2.812 0.1478,4.0638 -0.2379,1.2086 -0.8568,2.7319 -1.6255,3.6944 -0.8515,1.0661 -2.4648,2.3639 -3.6943,2.9555 -1.3729,0.66057 -3.1321,0.84093 -4.6549,0.88664 -1.2898,0.0387 -4.2855,-0.36943 -4.2855,-0.36943 z"
                             fill="#cccccc"
                             stop-color="#000000"
                             style="font-variation-settings:normal"
                             id="path273" />
                          <path
                             transform="matrix(1.6596,0,0,1.6237,-1773.2,-485.36)"
                             d="m 2690.3,778.01 c 0,1.8965 -1.5558,3.4358 -3.4727,3.4358 -1.9169,0 -3.4727,-1.5392 -3.4727,-3.4358 0,-0.97409 0.7666,-0.9438 1.4256,-1.5692 0.624,-0.59226 1.6935,-1.6845 2.6259,-1.6845 1.9169,0 2.8939,1.3572 2.8939,3.2537 z"
                             fill="#ffffff"
                             stop-color="#000000"
                             style="font-variation-settings:normal"
                             id="path274" />
                        </g>
                        <ellipse
                           transform="translate(0,-2.0633)"
                           cx="2689.7"
                           cy="785.03003"
                           rx="10.489"
                           ry="10.66"
                           fill="none"
                           stroke="#808080"
                           stroke-width="3.2075"
                           id="ellipse274" />
                      </g>
                    </g>
                  </g>
                  <g
                     transform="matrix(0.9,0,0,0.9,241.08,-501.27)"
                     id="g284">
                    <g
                       transform="matrix(0.9,0,0,0.9,18.93,108.07)"
                       id="g280">
                      <g
                         transform="matrix(0.45,0,0,0.45,-1021.1,731)"
                         stroke-width="3.2075"
                         id="g279">
                        <g
                           fill-rule="evenodd"
                           id="g278">
                          <ellipse
                             transform="translate(0,-2.0633)"
                             cx="2689.7"
                             cy="785.03003"
                             rx="10.489"
                             ry="10.66"
                             fill="#e5e5e5"
                             stop-color="#000000"
                             style="font-variation-settings:normal"
                             id="ellipse277" />
                          <path
                             d="m 2680.8,788.62 1.995,2.5122 3.8421,2.1427 3.3249,0.14778 3.5466,-0.36944 3.7682,-2.9555 1.6255,-2.5122 1.0345,-3.916 v -4.0638 l -1.6256,-2.2905 -2.3643,-2.7338 -2.9556,-1.1822 c 0,0 1.536,2.7184 1.9211,3.9899 0.3698,1.2211 0.3941,2.812 0.1478,4.0638 -0.2379,1.2086 -0.8568,2.7319 -1.6255,3.6944 -0.8515,1.0661 -2.4648,2.3639 -3.6943,2.9555 -1.3729,0.66057 -3.1321,0.84093 -4.6549,0.88664 -1.2898,0.0387 -4.2855,-0.36943 -4.2855,-0.36943 z"
                             fill="#cccccc"
                             stop-color="#000000"
                             style="font-variation-settings:normal"
                             id="path277" />
                          <path
                             transform="matrix(1.6596,0,0,1.6237,-1773.2,-485.36)"
                             d="m 2690.3,778.01 c 0,1.8965 -1.5558,3.4358 -3.4727,3.4358 -1.9169,0 -3.4727,-1.5392 -3.4727,-3.4358 0,-0.97409 0.7666,-0.9438 1.4256,-1.5692 0.624,-0.59226 1.6935,-1.6845 2.6259,-1.6845 1.9169,0 2.8939,1.3572 2.8939,3.2537 z"
                             fill="#ffffff"
                             id="path278" />
                        </g>
                        <ellipse
                           transform="translate(0,-2.0633)"
                           cx="2689.7"
                           cy="785.03003"
                           rx="10.489"
                           ry="10.66"
                           fill="none"
                           stroke="#808080"
                           stroke-width="3.2075"
                           id="ellipse278" />
                      </g>
                    </g>
                    <g
                       transform="matrix(0.9,0,0,0.9,19.798,121.61)"
                       id="g283">
                      <g
                         transform="matrix(0.45,0,0,0.45,-1021.1,731)"
                         stroke-width="3.2075"
                         id="g282">
                        <g
                           fill-rule="evenodd"
                           id="g281">
                          <ellipse
                             transform="translate(0,-2.0633)"
                             cx="2689.7"
                             cy="785.03003"
                             rx="10.489"
                             ry="10.66"
                             fill="#e5e5e5"
                             stop-color="#000000"
                             style="font-variation-settings:normal"
                             id="ellipse280" />
                          <path
                             d="m 2680.8,788.62 1.995,2.5122 3.8421,2.1427 3.3249,0.14778 3.5466,-0.36944 3.7682,-2.9555 1.6255,-2.5122 1.0345,-3.916 v -4.0638 l -1.6256,-2.2905 -2.3643,-2.7338 -2.9556,-1.1822 c 0,0 1.536,2.7184 1.9211,3.9899 0.3698,1.2211 0.3941,2.812 0.1478,4.0638 -0.2379,1.2086 -0.8568,2.7319 -1.6255,3.6944 -0.8515,1.0661 -2.4648,2.3639 -3.6943,2.9555 -1.3729,0.66057 -3.1321,0.84093 -4.6549,0.88664 -1.2898,0.0387 -4.2855,-0.36943 -4.2855,-0.36943 z"
                             fill="#cccccc"
                             stop-color="#000000"
                             style="font-variation-settings:normal"
                             id="path280" />
                          <path
                             transform="matrix(1.6596,0,0,1.6237,-1773.2,-485.36)"
                             d="m 2690.3,778.01 c 0,1.8965 -1.5558,3.4358 -3.4727,3.4358 -1.9169,0 -3.4727,-1.5392 -3.4727,-3.4358 0,-0.97409 0.7666,-0.9438 1.4256,-1.5692 0.624,-0.59226 1.6935,-1.6845 2.6259,-1.6845 1.9169,0 2.8939,1.3572 2.8939,3.2537 z"
                             fill="#ffffff"
                             id="path281" />
                        </g>
                        <ellipse
                           transform="translate(0,-2.0633)"
                           cx="2689.7"
                           cy="785.03003"
                           rx="10.489"
                           ry="10.66"
                           fill="none"
                           stroke="#808080"
                           stroke-width="3.2075"
                           id="ellipse281" />
                      </g>
                    </g>
                  </g>
                </g>
              </g>
            </g>
          </g>
          <g
             transform="matrix(0.80211,0,0,0.80211,302.11,115.6)"
             stroke-width="1.1541"
             id="g299">
            <g
               transform="translate(0.22374,0.7359)"
               stroke-width="1.1541"
               id="g298">
              <g
                 transform="matrix(0.79113,-0.045678,0.042421,0.85187,-289.49,-102.21)"
                 id="g297">
                <g
                   transform="matrix(0.50554,0,0,0.38692,-1025.2,31.457)"
                   stroke-width="2.6095"
                   id="g291">
                  <g
                     fill-rule="evenodd"
                     id="g290">
                    <path
                       d="m 3029.4,878.47 h 95.459 v 63.113 H 3029.4 Z"
                       fill="#f6e078"
                       id="path288" />
                    <path
                       d="m 3029.4,878.47 h 95.459 l -95.459,63.113 z"
                       fill="#f8eca8"
                       id="path289" />
                    <path
                       d="m 3124.9,891.79 v 49.795 h -76.394 z"
                       fill="#e7cd54"
                       id="path290" />
                  </g>
                  <rect
                     x="3029.3999"
                     y="878.46997"
                     width="95.459"
                     height="63.112999"
                     ry="3.2066"
                     fill="none"
                     stroke="#806600"
                     stroke-width="2.7834"
                     id="rect290" />
                </g>
                <g
                   transform="matrix(0.50554,0,0,0.38692,-1025.2,31.457)"
                   stroke-width="2.7834"
                   id="g296">
                  <g
                     fill-rule="evenodd"
                     id="g295">
                    <rect
                       x="3039.7"
                       y="886.75"
                       width="74.946999"
                       height="46.546001"
                       ry="5.5223999"
                       fill="#36a464"
                       stroke="#a0892c"
                       id="rect291" />
                    <path
                       d="m 3113,931.69 c -0.9981,0.99817 -2.3787,1.6139 -3.9084,1.6139 h -63.902 c -1.5297,0 -2.9103,-0.61576 -3.9085,-1.6139 -0.9981,-0.99818 -1.6139,-2.3788 -1.6139,-3.9085 v -35.501 c 0,-1.5297 0.6158,-2.9103 1.6139,-3.9085 0.9982,-0.99817 72.717,42.32 71.719,43.318 z"
                       fill="#2b96f6"
                       stroke="#a0892c"
                       id="path291" />
                    <path
                       d="m 3113,931.69 c -0.9981,0.99819 -2.3787,1.6139 -3.9084,1.6139 h -63.902 c -1.5297,0 -2.9103,-0.61576 -3.9085,-1.6139 -0.9981,-0.99818 -1.6139,-2.3788 -1.6139,-3.9085 v -35.501 c 0,-1.5297 0.6158,-2.9103 1.6139,-3.9085 0.5068,-0.50679 19.242,10.409 37.436,21.411 17.642,10.668 34.774,21.416 34.283,21.907 z"
                       fill="#abe8c4"
                       stroke="#d7e3f4"
                       id="path292" />
                    <g
                       fill="#306947"
                       stroke="#afc6e9"
                       id="g294">
                      <path
                         d="m 3113,888.37 c 0.9981,0.99818 1.6139,2.3788 1.6139,3.9085 v 35.501 c 0,1.5297 -0.6158,2.9103 -1.6139,3.9085 -0.9981,0.99817 -2.3787,1.6139 -3.9084,1.6139 h -63.902 c -1.5297,0 -2.9103,-0.61576 -3.9085,-1.6139 -0.9981,-0.99818 70.721,-44.316 71.719,-43.318 z"
                         id="path293" />
                      <path
                         d="m 3113,931.69 c -0.9981,0.99817 -2.3787,1.6139 -3.9084,1.6139 h -63.902 c -1.5297,0 -2.9103,-0.61574 -3.9085,-1.6139 -0.5065,-0.50644 17.707,-11.907 35.905,-22.887 0,0 36.812,21.889 35.814,22.887 z"
                         id="path294" />
                    </g>
                  </g>
                  <rect
                     x="3039.7"
                     y="886.75"
                     width="74.946999"
                     height="46.546001"
                     ry="5.5223999"
                     fill="none"
                     stroke="#a0892c"
                     id="rect295" />
                  <path
                     d="m 3056.2,897.38 h 41.991 v 23.79 H 3056.2 Z"
                     fill="#36a464"
                     fill-rule="evenodd"
                     stroke="#87de87"
                     id="path295" />
                </g>
              </g>
            </g>
          </g>
          <g
             fill-rule="evenodd"
             id="g301">
            <path
               d="m 533.13,269.41 -30.623,-1.7681 -0.83091,16.686 30.623,1.7681 z"
               fill="#e7cd54"
               stroke-width="0.76104"
               id="path299" />
            <path
               d="m 533.13,269.41 -30.623,-1.7681 29.792,18.454 z"
               fill="#c5a941"
               stop-color="#000000"
               stroke-width="0.93201"
               style="font-variation-settings:normal"
               id="path300" />
            <path
               d="m 502.33,271.16 -0.65557,13.165 24.507,1.415 z"
               fill="#d1b948"
               stop-color="#000000"
               style="font-variation-settings:normal"
               id="path301" />
          </g>
          <rect
             transform="matrix(-0.99834,-0.057641,-0.049736,0.99876,0,0)"
             x="-545.89001"
             y="238.24001"
             width="30.674"
             height="16.705999"
             ry="0.84878999"
             fill="none"
             stroke="#806600"
             stroke-width="0.81179"
             id="rect301" />
          <g
             transform="matrix(-0.3208,-0.018522,-0.013165,0.26438,1516.5,93.271)"
             stroke-width="2.7834"
             id="g307">
            <g
               fill-rule="evenodd"
               id="g306">
              <rect
                 x="3039.7"
                 y="886.75"
                 width="74.946999"
                 height="46.546001"
                 ry="5.5223999"
                 fill="#36a464"
                 stroke="#a0892c"
                 id="rect302" />
              <path
                 d="m 3113,931.69 c -0.9981,0.99817 -2.3787,1.6139 -3.9084,1.6139 h -63.902 c -1.5297,0 -2.9103,-0.61576 -3.9085,-1.6139 -0.9981,-0.99818 -1.6139,-2.3788 -1.6139,-3.9085 v -35.501 c 0,-1.5297 0.6158,-2.9103 1.6139,-3.9085 0.9982,-0.99817 72.717,42.32 71.719,43.318 z"
                 fill="#2b96f6"
                 stroke="#a0892c"
                 id="path302" />
              <path
                 d="m 3113,931.69 c -0.9981,0.99819 -2.3787,1.6139 -3.9084,1.6139 h -63.902 c -1.5297,0 -2.9103,-0.61576 -3.9085,-1.6139 -0.9981,-0.99818 -1.6139,-2.3788 -1.6139,-3.9085 v -35.501 c 0,-1.5297 0.6158,-2.9103 1.6139,-3.9085 0.5068,-0.50679 19.242,10.409 37.436,21.411 17.642,10.668 34.774,21.416 34.283,21.907 z"
                 fill="#abe8c4"
                 stroke="#d7e3f4"
                 id="path303" />
              <g
                 fill="#306947"
                 stroke="#afc6e9"
                 id="g305">
                <path
                   d="m 3113,888.37 c 0.9981,0.99818 1.6139,2.3788 1.6139,3.9085 v 35.501 c 0,1.5297 -0.6158,2.9103 -1.6139,3.9085 -0.9981,0.99817 -2.3787,1.6139 -3.9084,1.6139 h -63.902 c -1.5297,0 -2.9103,-0.61576 -3.9085,-1.6139 -0.9981,-0.99818 70.721,-44.316 71.719,-43.318 z"
                   id="path304" />
                <path
                   d="m 3113,931.69 c -0.9981,0.99817 -2.3787,1.6139 -3.9084,1.6139 h -63.902 c -1.5297,0 -2.9103,-0.61574 -3.9085,-1.6139 -0.5065,-0.50644 17.707,-11.907 35.905,-22.887 0,0 36.812,21.889 35.814,22.887 z"
                   id="path305" />
              </g>
            </g>
            <rect
               x="3039.7"
               y="886.75"
               width="74.946999"
               height="46.546001"
               ry="5.5223999"
               fill="none"
               stroke="#a0892c"
               id="rect306" />
            <path
               d="m 3056.2,897.38 h 41.991 v 23.79 H 3056.2 Z"
               fill="#36a464"
               fill-rule="evenodd"
               stroke="#87de87"
               id="path306" />
          </g>
        </g>
      </g>
    </g>
  </g>
</svg>
